<?xml version="1.0" encoding="UTF-8" standalone="no"?>
<!-- Created with Inkscape (http://www.inkscape.org/) -->

<svg
   xmlns:dc="http://purl.org/dc/elements/1.1/"
   xmlns:cc="http://creativecommons.org/ns#"
   xmlns:rdf="http://www.w3.org/1999/02/22-rdf-syntax-ns#"
   xmlns:svg="http://www.w3.org/2000/svg"
   xmlns="http://www.w3.org/2000/svg"
   xmlns:sodipodi="http://sodipodi.sourceforge.net/DTD/sodipodi-0.dtd"
   xmlns:inkscape="http://www.inkscape.org/namespaces/inkscape"
   id="svg264264"
   version="1.1"
   inkscape:version="0.91 r13725"
   xml:space="preserve"
   width="622.9696"
   height="337.55905"
   viewBox="0 0 622.9696 337.55905"
   sodipodi:docname="anim_tta_base2.svg"><metadata
     id="metadata264270"><rdf:RDF><cc:Work
         rdf:about=""><dc:format>image/svg+xml</dc:format><dc:type
           rdf:resource="http://purl.org/dc/dcmitype/StillImage" /><dc:title></dc:title></cc:Work></rdf:RDF></metadata><defs
     id="defs264268"><marker
       inkscape:stockid="TriangleOutL"
       orient="auto"
       refY="0.0"
       refX="0.0"
       id="TriangleOutL"
       style="overflow:visible"
       inkscape:isstock="true"><path
         id="path265344"
         d="M 5.77,0.0 L -2.88,5.0 L -2.88,-5.0 L 5.77,0.0 z "
         style="fill-rule:evenodd;stroke:#000000;stroke-width:1.0pt"
         transform="scale(0.8)" /></marker><marker
       inkscape:stockid="TriangleOutL"
       orient="auto"
       refY="0"
       refX="0"
       id="marker23723"
       style="overflow:visible"
       inkscape:isstock="true"
       inkscape:collect="always"><path
         id="path23725"
         d="m 5.77,0 -8.65,5 0,-10 8.65,5 z"
         style="fill:#000000;fill-opacity:1;fill-rule:evenodd;stroke:#000000;stroke-width:1pt;stroke-opacity:1"
         transform="scale(0.8,0.8)"
         inkscape:connector-curvature="0" /></marker></defs><sodipodi:namedview
     pagecolor="#ffffff"
     bordercolor="#666666"
     borderopacity="1"
     objecttolerance="10"
     gridtolerance="10"
     guidetolerance="10"
     inkscape:pageopacity="0"
     inkscape:pageshadow="2"
     inkscape:window-width="1920"
     inkscape:window-height="1007"
     id="namedview264266"
     showgrid="false"
     inkscape:object-paths="true"
     inkscape:snap-intersection-paths="true"
     inkscape:object-nodes="true"
     inkscape:snap-smooth-nodes="true"
     inkscape:snap-midpoints="true"
     inkscape:zoom="1.8796564"
     inkscape:cx="79.269861"
     inkscape:cy="281.4452"
     inkscape:window-x="0"
     inkscape:window-y="27"
     inkscape:window-maximized="1"
     inkscape:current-layer="g264274" /><g
     id="g264272"
     inkscape:groupmode="layer"
     inkscape:label="anim_tta_base-3"
     transform="matrix(1.25,0,0,-1.25,0,337.55905)"><g
       id="g264274"><text
         transform="matrix(1,0,0,-1,172.42166,216.90334)"
         style="font-variant:normal;font-weight:normal;font-size:12px;font-family:'Times New Roman';-inkscape-font-specification:TimesNewRomanPSMT;writing-mode:lr-tb;fill:#000000;fill-opacity:1;fill-rule:nonzero;stroke:none"
         id="text264276"><tspan
           x="0 10.668 15.984 25.308001 31.308001 34.632 38.627998"
           y="0"
           sodipodi:role="line"
           id="tspan264278">Mémoire</tspan><tspan
           x="-10.078128 -4.0781279 -1.918128 1.405872 7.4058719 12.073872 15.397872 19.393871 25.393871 30.709871 34.033871 37.357872 43.357872 49.357872"
           y="15"
           sodipodi:role="line"
           id="tspan264280">d'instructions</tspan><tspan
           x="154.41446 165.08246 170.39847 179.72246 185.72246 189.04646 193.04247"
           y="-7.5"
           sodipodi:role="line"
           id="tspan264282">Mémoire</tspan><tspan
           x="170.73869 176.73869"
           y="7.5"
           sodipodi:role="line"
           id="tspan264284">de</tspan><tspan
           x="155.41055 164.07455 170.07455 176.07455 182.07455 187.39056 192.70656"
           y="22.5"
           sodipodi:role="line"
           id="tspan264286">Données</tspan></text>
<g
         id="g264288"
         transform="matrix(1,0,0,-1,0,270.04724)"><path
           d="m 241.891,104.828 54.297,0 c 3.742,0 6.75,3.008 6.75,6.75 l 0,13.5 c 0,3.738 -3.008,6.75 -6.75,6.75 l -54.297,0 c -3.739,0 -6.75,-3.012 -6.75,-6.75 l 0,-13.5 c 0,-3.742 3.011,-6.75 6.75,-6.75 z"
           style="fill:#fdbf6f;fill-opacity:1;fill-rule:nonzero;stroke:#000000;stroke-width:0.59997702;stroke-linecap:round;stroke-linejoin:round;stroke-miterlimit:4;stroke-dasharray:none;stroke-opacity:1"
           id="path264290"
           inkscape:connector-curvature="0" /></g><text
         transform="matrix(1,0,0,-1,257.57831,149.81358)"
         style="font-variant:normal;font-weight:normal;font-size:11.99954891px;font-family:'Times New Roman';-inkscape-font-specification:TimesNewRomanPSMT;writing-mode:lr-tb;fill:#000000;fill-opacity:1;fill-rule:nonzero;stroke:none"
         id="text264292"><tspan
           x="0 8.2076912 14.279464"
           y="0"
           sodipodi:role="line"
           id="tspan264294">ALU</tspan></text>
<g
         id="g264296"
         transform="matrix(1,0,0,-1,0,270.04724)"><path
           d="m 263.34,127.027 11.398,0 0,9.602 -11.398,0 0,-9.602 z"
           style="fill:#ffffff;fill-opacity:1;fill-rule:nonzero;stroke:#000000;stroke-width:0.59997702;stroke-linecap:round;stroke-linejoin:round;stroke-miterlimit:4;stroke-dasharray:none;stroke-opacity:1"
           id="path264298"
           inkscape:connector-curvature="0" /></g><g
         id="g264300"
         transform="matrix(1,0,0,-1,0,270.04724)"><path
           d="m 263.637,127.328 10.801,9"
           style="fill:#ffffff;fill-opacity:1;fill-rule:nonzero;stroke:#000000;stroke-width:0.59997702;stroke-linecap:round;stroke-linejoin:round;stroke-miterlimit:4;stroke-dasharray:none;stroke-opacity:1"
           id="path264302"
           inkscape:connector-curvature="0" /></g><g
         id="g264304"
         transform="matrix(1,0,0,-1,0,270.04724)"><path
           d="m 263.637,136.328 10.801,-9"
           style="fill:#ffffff;fill-opacity:1;fill-rule:nonzero;stroke:#000000;stroke-width:0.59997702;stroke-linecap:round;stroke-linejoin:round;stroke-miterlimit:4;stroke-dasharray:none;stroke-opacity:1"
           id="path264306"
           inkscape:connector-curvature="0" /></g><g
         id="g264308"
         transform="matrix(1,0,0,-1,0,270.04724)"><path
           d="m 243.539,127.027 11.402,0 0,9.602 -11.402,0 0,-9.602 z"
           style="fill:#ffffff;fill-opacity:1;fill-rule:nonzero;stroke:#000000;stroke-width:0.59997702;stroke-linecap:round;stroke-linejoin:round;stroke-miterlimit:4;stroke-dasharray:none;stroke-opacity:1"
           id="path264310"
           inkscape:connector-curvature="0" /></g><g
         id="g264312"
         transform="matrix(1,0,0,-1,0,270.04724)"><path
           d="m 283.141,127.027 11.398,0 0,9.602 -11.398,0 0,-9.602 z"
           style="fill:#ffffff;fill-opacity:1;fill-rule:nonzero;stroke:#000000;stroke-width:0.59997702;stroke-linecap:round;stroke-linejoin:round;stroke-miterlimit:4;stroke-dasharray:none;stroke-opacity:1"
           id="path264314"
           inkscape:connector-curvature="0" /></g><g
         id="g264316"
         transform="matrix(1,0,0,-1,0,270.04724)"><path
           d="m 268.738,136.77 0,16.324"
           style="fill:none;stroke:#000000;stroke-width:0.59997702;stroke-linecap:round;stroke-linejoin:round;stroke-miterlimit:4;stroke-dasharray:none;stroke-opacity:1"
           id="path264318"
           inkscape:connector-curvature="0" /></g><g
         id="g264320"
         transform="matrix(1,0,0,-1,0,270.04724)"><path
           d="m 248.941,136.77 0,16.324"
           style="fill:none;stroke:#000000;stroke-width:0.59997702;stroke-linecap:round;stroke-linejoin:round;stroke-miterlimit:4;stroke-dasharray:none;stroke-opacity:1"
           id="path264322"
           inkscape:connector-curvature="0" /></g><g
         id="g264324"
         transform="matrix(1,0,0,-1,0,270.04724)"><path
           d="m 288.84,136.77 0,16.324"
           style="fill:none;stroke:#000000;stroke-width:0.59997702;stroke-linecap:round;stroke-linejoin:round;stroke-miterlimit:4;stroke-dasharray:none;stroke-opacity:1"
           id="path264326"
           inkscape:connector-curvature="0" /></g><g
         id="g264328"
         transform="matrix(1,0,0,-1,0,270.04724)"><path
           d="m 392.461,104.828 50.996,0 0,27 -50.996,0 0,-27 z"
           style="fill:#fb9a99;fill-opacity:1;fill-rule:nonzero;stroke:#000000;stroke-width:0.59997702;stroke-linecap:round;stroke-linejoin:round;stroke-miterlimit:4;stroke-dasharray:none;stroke-opacity:1"
           id="path264330"
           inkscape:connector-curvature="0" /></g><text
         transform="matrix(1,0,0,-1,410.75678,149.62608)"
         style="font-variant:normal;font-weight:normal;font-size:11.99954891px;font-family:'Times New Roman';-inkscape-font-specification:TimesNewRomanPSMT;writing-mode:lr-tb;fill:#000000;fill-opacity:1;fill-rule:nonzero;stroke:none"
         id="text264332"><tspan
           x="0 7.9916997"
           y="0"
           sodipodi:role="line"
           id="tspan264334">RF</tspan></text>
<g
         id="g264336"
         transform="matrix(1,0,0,-1,0,270.04724)"><path
           d="m 400.859,127.027 11.402,0 0,9.602 -11.402,0 0,-9.602 z"
           style="fill:#ffffff;fill-opacity:1;fill-rule:nonzero;stroke:#000000;stroke-width:0.59997702;stroke-linecap:round;stroke-linejoin:round;stroke-miterlimit:4;stroke-dasharray:none;stroke-opacity:1"
           id="path264338"
           inkscape:connector-curvature="0" /></g><g
         id="g264340"
         transform="matrix(1,0,0,-1,0,270.04724)"><path
           d="m 420.656,127.027 11.398,0 0,9.602 -11.398,0 0,-9.602 z"
           style="fill:#ffffff;fill-opacity:1;fill-rule:nonzero;stroke:#000000;stroke-width:0.59997702;stroke-linecap:round;stroke-linejoin:round;stroke-miterlimit:4;stroke-dasharray:none;stroke-opacity:1"
           id="path264342"
           inkscape:connector-curvature="0" /></g><g
         id="g264344"
         transform="matrix(1,0,0,-1,0,270.04724)"><path
           d="m 406.262,136.77 0,16.324"
           style="fill:none;stroke:#000000;stroke-width:0.59997702;stroke-linecap:round;stroke-linejoin:round;stroke-miterlimit:4;stroke-dasharray:none;stroke-opacity:1"
           id="path264346"
           inkscape:connector-curvature="0" /></g><g
         id="g264348"
         transform="matrix(1,0,0,-1,0,270.04724)"><path
           d="m 426.355,136.77 0,16.324"
           style="fill:none;stroke:#000000;stroke-width:0.59997702;stroke-linecap:round;stroke-linejoin:round;stroke-miterlimit:4;stroke-dasharray:none;stroke-opacity:1"
           id="path264350"
           inkscape:connector-curvature="0" /></g><g
         id="g264352"
         transform="matrix(1,0,0,-1,0,270.04724)"><path
           d="m 169.375,104.828 50.047,0 c 5.98,0 10.797,4.817 10.797,10.797 l 0,5.402 c 0,5.981 -4.817,10.801 -10.797,10.801 l -50.047,0 c -5.984,0 -10.801,-4.82 -10.801,-10.801 l 0,-5.402 c 0,-5.98 4.817,-10.797 10.801,-10.797 z"
           style="fill:#b2df8a;fill-opacity:1;fill-rule:nonzero;stroke:#000000;stroke-width:0.59997702;stroke-linecap:round;stroke-linejoin:round;stroke-miterlimit:4;stroke-dasharray:none;stroke-opacity:1"
           id="path264354"
           inkscape:connector-curvature="0" /></g><text
         transform="matrix(1,0,0,-1,181.57451,149.81358)"
         style="font-variant:normal;font-weight:normal;font-size:11.99954891px;font-family:'Times New Roman';-inkscape-font-specification:TimesNewRomanPSMT;writing-mode:lr-tb;fill:#000000;fill-opacity:1;fill-rule:nonzero;stroke:none"
         id="text264356"><tspan
           x="0 8.6636744 16.655375"
           y="0"
           sodipodi:role="line"
           id="tspan264358">GCU</tspan></text>
<g
         id="g264360"
         transform="matrix(1,0,0,-1,0,270.04724)"><path
           d="m 208.02,127.027 11.402,0 0,9.598 -11.402,0 0,-9.598 z"
           style="fill:#ffffff;fill-opacity:1;fill-rule:nonzero;stroke:#000000;stroke-width:0.59997702;stroke-linecap:round;stroke-linejoin:round;stroke-miterlimit:4;stroke-dasharray:none;stroke-opacity:1"
           id="path264362"
           inkscape:connector-curvature="0" /></g><g
         id="g264364"
         transform="matrix(1,0,0,-1,0,270.04724)"><path
           d="m 208.32,127.328 10.801,9"
           style="fill:#ffffff;fill-opacity:1;fill-rule:nonzero;stroke:#000000;stroke-width:0.59997702;stroke-linecap:round;stroke-linejoin:round;stroke-miterlimit:4;stroke-dasharray:none;stroke-opacity:1"
           id="path264366"
           inkscape:connector-curvature="0" /></g><g
         id="g264368"
         transform="matrix(1,0,0,-1,0,270.04724)"><path
           d="m 208.32,136.328 10.801,-9"
           style="fill:#ffffff;fill-opacity:1;fill-rule:nonzero;stroke:#000000;stroke-width:0.59997702;stroke-linecap:round;stroke-linejoin:round;stroke-miterlimit:4;stroke-dasharray:none;stroke-opacity:1"
           id="path264370"
           inkscape:connector-curvature="0" /></g><g
         id="g264372"
         transform="matrix(1,0,0,-1,0,270.04724)"><path
           d="m 213.422,136.77 0,16.328"
           style="fill:none;stroke:#000000;stroke-width:0.60000002;stroke-linecap:round;stroke-linejoin:round;stroke-miterlimit:4;stroke-dasharray:none;stroke-opacity:1"
           id="path264374"
           inkscape:connector-curvature="0" /></g><g
         id="g264376"
         transform="matrix(1,0,0,-1,0,270.04724)"><path
           d="m 194.398,83.23 0,15.993"
           style="fill:none;stroke:#000000;stroke-width:0.59997702;stroke-linecap:round;stroke-linejoin:round;stroke-miterlimit:4;stroke-dasharray:none;stroke-opacity:1"
           id="path264378"
           inkscape:connector-curvature="0" /></g><g
         id="g264380"
         transform="matrix(1,0,0,-1,0,270.04724)"><path
           d="m 190.848,99.223 7.097,0 -3.734,5.605 -3.363,-5.605 z"
           style="fill:#ffffff;fill-opacity:1;fill-rule:evenodd;stroke:#000000;stroke-width:0.60000002;stroke-linecap:round;stroke-linejoin:round;stroke-miterlimit:4;stroke-dasharray:none;stroke-opacity:1"
           id="path264382"
           inkscape:connector-curvature="0" /></g><g
         id="g264384"
         transform="matrix(1,0,0,-1,0,270.04724)"><path
           d="m 157.383,29.891 74.027,0 0,53.34 -74.027,0 0,-53.34 z"
           style="fill:none;stroke:#000000;stroke-width:0.60000002;stroke-linecap:butt;stroke-linejoin:miter;stroke-miterlimit:4;stroke-dasharray:none;stroke-opacity:1"
           id="path264386"
           inkscape:connector-curvature="0" /></g><g
         id="g264388"
         transform="matrix(1,0,0,-1,0,270.04724)"><path
           d="m 320.547,104.828 54.301,0 c 3.738,0 6.75,3.008 6.75,6.75 l 0,13.5 c 0,3.738 -3.012,6.75 -6.75,6.75 l -54.301,0 c -3.738,0 -6.75,-3.012 -6.75,-6.75 l 0,-13.5 c 0,-3.742 3.012,-6.75 6.75,-6.75 z"
           style="fill:#cab2d6;fill-opacity:1;fill-rule:nonzero;stroke:#000000;stroke-width:0.59997702;stroke-linecap:round;stroke-linejoin:round;stroke-miterlimit:4;stroke-dasharray:none;stroke-opacity:1"
           id="path264390"
           inkscape:connector-curvature="0" /></g><text
         transform="matrix(1,0,0,-1,336.16454,149.81358)"
         style="font-variant:normal;font-weight:normal;font-size:11.99954891px;font-family:'Times New Roman';-inkscape-font-specification:TimesNewRomanPSMT;writing-mode:lr-tb;fill:#000000;fill-opacity:1;fill-rule:nonzero;stroke:none"
         id="text264392"><tspan
           x="0 6.6717491 14.279464"
           y="0"
           sodipodi:role="line"
           id="tspan264394">LSU</tspan></text>
<g
         id="g264396"
         transform="matrix(1,0,0,-1,0,270.04724)"><path
           d="m 342.16,127.027 11.402,0 0,9.602 -11.402,0 0,-9.602 z"
           style="fill:#ffffff;fill-opacity:1;fill-rule:nonzero;stroke:#000000;stroke-width:0.59997702;stroke-linecap:round;stroke-linejoin:round;stroke-miterlimit:4;stroke-dasharray:none;stroke-opacity:1"
           id="path264398"
           inkscape:connector-curvature="0" /></g><g
         id="g264400"
         transform="matrix(1,0,0,-1,0,270.04724)"><path
           d="m 342.461,127.328 10.801,9"
           style="fill:#ffffff;fill-opacity:1;fill-rule:nonzero;stroke:#000000;stroke-width:0.59997702;stroke-linecap:round;stroke-linejoin:round;stroke-miterlimit:4;stroke-dasharray:none;stroke-opacity:1"
           id="path264402"
           inkscape:connector-curvature="0" /></g><g
         id="g264404"
         transform="matrix(1,0,0,-1,0,270.04724)"><path
           d="m 342.461,136.328 10.801,-9"
           style="fill:#ffffff;fill-opacity:1;fill-rule:nonzero;stroke:#000000;stroke-width:0.59997702;stroke-linecap:round;stroke-linejoin:round;stroke-miterlimit:4;stroke-dasharray:none;stroke-opacity:1"
           id="path264406"
           inkscape:connector-curvature="0" /></g><g
         id="g264408"
         transform="matrix(1,0,0,-1,0,270.04724)"><path
           d="m 347.562,136.77 0,16.324"
           style="fill:none;stroke:#000000;stroke-width:0.59997702;stroke-linecap:round;stroke-linejoin:round;stroke-miterlimit:4;stroke-dasharray:none;stroke-opacity:1"
           id="path264410"
           inkscape:connector-curvature="0" /></g><g
         id="g264412"
         transform="matrix(1,0,0,-1,0,270.04724)"><path
           d="m 363.355,127.027 11.395,0 0,9.602 -11.395,0 0,-9.602 z"
           style="fill:#ffffff;fill-opacity:1;fill-rule:nonzero;stroke:#000000;stroke-width:0.59997702;stroke-linecap:round;stroke-linejoin:round;stroke-miterlimit:4;stroke-dasharray:none;stroke-opacity:1"
           id="path264414"
           inkscape:connector-curvature="0" /></g><g
         id="g264416"
         transform="matrix(1,0,0,-1,0,270.04724)"><path
           d="m 368.75,136.77 0,16.324"
           style="fill:none;stroke:#000000;stroke-width:0.59997702;stroke-linecap:round;stroke-linejoin:round;stroke-miterlimit:4;stroke-dasharray:none;stroke-opacity:1"
           id="path264418"
           inkscape:connector-curvature="0" /></g><g
         id="g264420"
         transform="matrix(1,0,0,-1,0,270.04724)"><path
           d="m 320.969,127.027 11.398,0 0,9.602 -11.398,0 0,-9.602 z"
           style="fill:#ffffff;fill-opacity:1;fill-rule:nonzero;stroke:#000000;stroke-width:0.59997702;stroke-linecap:round;stroke-linejoin:round;stroke-miterlimit:4;stroke-dasharray:none;stroke-opacity:1"
           id="path264422"
           inkscape:connector-curvature="0" /></g><g
         id="g264424"
         transform="matrix(1,0,0,-1,0,270.04724)"><path
           d="m 326.367,136.77 0,16.324"
           style="fill:none;stroke:#000000;stroke-width:0.59997702;stroke-linecap:round;stroke-linejoin:round;stroke-miterlimit:4;stroke-dasharray:none;stroke-opacity:1"
           id="path264426"
           inkscape:connector-curvature="0" /></g><g
         id="g264428"
         transform="matrix(1,0,0,-1,0,270.04724)"><path
           d="m 348.754,88.836 0,10.387"
           style="fill:none;stroke:#000000;stroke-width:0.59997702;stroke-linecap:round;stroke-linejoin:round;stroke-miterlimit:4;stroke-dasharray:none;stroke-opacity:1"
           id="path264430"
           inkscape:connector-curvature="0" /></g><g
         id="g264432"
         transform="matrix(1,0,0,-1,0,270.04724)"><path
           d="m 345.203,88.836 7.098,0 -3.735,-5.606 -3.363,5.606 z"
           style="fill:#ffffff;fill-opacity:1;fill-rule:evenodd;stroke:#000000;stroke-width:0.60000002;stroke-linecap:round;stroke-linejoin:round;stroke-miterlimit:4;stroke-dasharray:none;stroke-opacity:1"
           id="path264434"
           inkscape:connector-curvature="0" /></g><g
         id="g264436"
         transform="matrix(1,0,0,-1,0,270.04724)"><path
           d="m 345.203,99.223 7.098,0 -3.735,5.605 -3.363,-5.605 z"
           style="fill:#ffffff;fill-opacity:1;fill-rule:evenodd;stroke:#000000;stroke-width:0.60000002;stroke-linecap:round;stroke-linejoin:round;stroke-miterlimit:4;stroke-dasharray:none;stroke-opacity:1"
           id="path264438"
           inkscape:connector-curvature="0" /></g><g
         id="g264440"
         transform="matrix(1,0,0,-1,0,270.04724)"><path
           d="m 311.738,29.891 74.027,0 0,53.34 -74.027,0 0,-53.34 z"
           style="fill:none;stroke:#000000;stroke-width:0.60000002;stroke-linecap:butt;stroke-linejoin:miter;stroke-miterlimit:4;stroke-dasharray:none;stroke-opacity:1"
           id="path264442"
           inkscape:connector-curvature="0" /></g><g
         id="g264444"
         transform="matrix(1,0,0,-1,0,270.04724)"><path
           d="m 203.324,192.371 237.664,0 0,3.895 -237.664,0 0,-3.895 z"
           style="fill:#e6e6e6;fill-opacity:1;fill-rule:nonzero;stroke:#000000;stroke-width:0.59997702;stroke-linecap:round;stroke-linejoin:round;stroke-miterlimit:4;stroke-dasharray:none;stroke-opacity:1"
           id="path264446"
           inkscape:connector-curvature="0" /></g><g
         id="g264448"
         transform="matrix(1,0,0,-1,0,270.04724)"><path
           d="m 203.324,172.355 237.664,0 0,4.199 -237.664,0 0,-4.199 z"
           style="fill:#e6e6e6;fill-opacity:1;fill-rule:nonzero;stroke:#000000;stroke-width:0.59997702;stroke-linecap:round;stroke-linejoin:round;stroke-miterlimit:4;stroke-dasharray:none;stroke-opacity:1"
           id="path264450"
           inkscape:connector-curvature="0" /></g><g
         id="g264452"
         transform="matrix(1,0,0,-1,0,270.04724)"><path
           d="m 203.324,212.953 237.664,0 0,3.898 -237.664,0 0,-3.898 z"
           style="fill:#e6e6e6;fill-opacity:1;fill-rule:nonzero;stroke:#000000;stroke-width:0.59997702;stroke-linecap:round;stroke-linejoin:round;stroke-miterlimit:4;stroke-dasharray:none;stroke-opacity:1"
           id="path264454"
           inkscape:connector-curvature="0" /></g><g
         id="g264456"
         transform="matrix(1,0,0,-1,0,270.04724)"><path
           d="m 268.738,153.094 -5.398,9 11.398,0 -6,-9 z"
           style="fill:#ffffff;fill-opacity:1;fill-rule:evenodd;stroke:#000000;stroke-width:0.59997702;stroke-linecap:round;stroke-linejoin:round;stroke-miterlimit:4;stroke-dasharray:none;stroke-opacity:1"
           id="path264458"
           inkscape:connector-curvature="0" /></g><g
         id="g264460"
         transform="matrix(1,0,0,-1,0,270.04724)"><path
           d="m 263.34,162.094 11.398,0 0,66.797 -11.398,0 0,-66.797 z"
           style="fill:#ffffff;fill-opacity:1;fill-rule:nonzero;stroke:#000000;stroke-width:0.59997702;stroke-linecap:round;stroke-linejoin:round;stroke-miterlimit:4;stroke-dasharray:none;stroke-opacity:1"
           id="path264462"
           inkscape:connector-curvature="0" /></g><g
         id="g264464"
         transform="matrix(1,0,0,-1,0,270.04724)"><path
           d="m 274.438,174.453 c 0,2.985 -2.418,5.402 -5.399,5.402 -2.984,0 -5.402,-2.417 -5.402,-5.402 0,-2.98 2.418,-5.398 5.402,-5.398 2.981,0 5.399,2.418 5.399,5.398 z"
           style="fill:#000000;fill-opacity:1;fill-rule:nonzero;stroke:#000000;stroke-width:0.59997702;stroke-linecap:round;stroke-linejoin:round;stroke-miterlimit:4;stroke-dasharray:none;stroke-opacity:1"
           id="path264466"
           inkscape:connector-curvature="0" /></g><g
         id="g264468"
         transform="matrix(1,0,0,-1,0,270.04724)"><path
           d="m 248.941,153.094 -5.402,9 11.402,0 -6,-9 z"
           style="fill:#ffffff;fill-opacity:1;fill-rule:evenodd;stroke:#000000;stroke-width:0.59997702;stroke-linecap:round;stroke-linejoin:round;stroke-miterlimit:4;stroke-dasharray:none;stroke-opacity:1"
           id="path264470"
           inkscape:connector-curvature="0" /></g><g
         id="g264472"
         transform="matrix(1,0,0,-1,0,270.04724)"><path
           d="m 243.539,162.094 11.402,0 0,66.797 -11.402,0 0,-66.797 z"
           style="fill:#ffffff;fill-opacity:1;fill-rule:nonzero;stroke:#000000;stroke-width:0.59997702;stroke-linecap:round;stroke-linejoin:round;stroke-miterlimit:4;stroke-dasharray:none;stroke-opacity:1"
           id="path264474"
           inkscape:connector-curvature="0" /></g><g
         id="g264476"
         transform="matrix(1,0,0,-1,0,270.04724)"><path
           d="m 254.641,174.453 c 0,2.985 -2.418,5.402 -5.399,5.402 -2.984,0 -5.402,-2.417 -5.402,-5.402 0,-2.98 2.418,-5.398 5.402,-5.398 2.981,0 5.399,2.418 5.399,5.398 z"
           style="fill:#000000;fill-opacity:1;fill-rule:nonzero;stroke:#000000;stroke-width:0.59997702;stroke-linecap:round;stroke-linejoin:round;stroke-miterlimit:4;stroke-dasharray:none;stroke-opacity:1"
           id="path264478"
           inkscape:connector-curvature="0" /></g><g
         id="g264480"
         transform="matrix(1,0,0,-1,0,270.04724)"><path
           d="m 254.641,214.902 c 0,2.981 -2.418,5.399 -5.399,5.399 -2.984,0 -5.402,-2.418 -5.402,-5.399 0,-2.984 2.418,-5.398 5.402,-5.398 2.981,0 5.399,2.414 5.399,5.398 z"
           style="fill:#000000;fill-opacity:1;fill-rule:nonzero;stroke:#000000;stroke-width:0.59997702;stroke-linecap:round;stroke-linejoin:round;stroke-miterlimit:4;stroke-dasharray:none;stroke-opacity:1"
           id="path264482"
           inkscape:connector-curvature="0" /></g><g
         id="g264484"
         transform="matrix(1,0,0,-1,0,270.04724)"><path
           d="m 283.141,153.094 11.398,0 -6,9 -5.398,-9 z"
           style="fill:#ffffff;fill-opacity:1;fill-rule:evenodd;stroke:#000000;stroke-width:0.59997702;stroke-linecap:round;stroke-linejoin:round;stroke-miterlimit:4;stroke-dasharray:none;stroke-opacity:1"
           id="path264486"
           inkscape:connector-curvature="0" /></g><g
         id="g264488"
         transform="matrix(1,0,0,-1,0,270.04724)"><path
           d="m 283.141,162.094 11.398,0 0,66.797 -11.398,0 0,-66.797 z"
           style="fill:#ffffff;fill-opacity:1;fill-rule:nonzero;stroke:#000000;stroke-width:0.59997702;stroke-linecap:round;stroke-linejoin:round;stroke-miterlimit:4;stroke-dasharray:none;stroke-opacity:1"
           id="path264490"
           inkscape:connector-curvature="0" /></g><g
         id="g264492"
         transform="matrix(1,0,0,-1,0,270.04724)"><path
           d="m 294.238,214.902 c 0,2.981 -2.418,5.399 -5.398,5.399 -2.981,0 -5.399,-2.418 -5.399,-5.399 0,-2.984 2.418,-5.398 5.399,-5.398 2.98,0 5.398,2.414 5.398,5.398 z"
           style="fill:#000000;fill-opacity:1;fill-rule:nonzero;stroke:#000000;stroke-width:0.59997702;stroke-linecap:round;stroke-linejoin:round;stroke-miterlimit:4;stroke-dasharray:none;stroke-opacity:1"
           id="path264494"
           inkscape:connector-curvature="0" /></g><g
         id="g264496"
         transform="matrix(1,0,0,-1,0,270.04724)"><path
           d="m 294.238,174.453 c 0,2.985 -2.418,5.402 -5.398,5.402 -2.981,0 -5.399,-2.417 -5.399,-5.402 0,-2.98 2.418,-5.398 5.399,-5.398 2.98,0 5.398,2.418 5.398,5.398 z"
           style="fill:#000000;fill-opacity:1;fill-rule:nonzero;stroke:#000000;stroke-width:0.59997702;stroke-linecap:round;stroke-linejoin:round;stroke-miterlimit:4;stroke-dasharray:none;stroke-opacity:1"
           id="path264498"
           inkscape:connector-curvature="0" /></g><g
         id="g264500"
         transform="matrix(1,0,0,-1,0,270.04724)"><path
           d="m 400.859,162.094 11.403,0 -6,-9 -5.403,9 z"
           style="fill:#ffffff;fill-opacity:1;fill-rule:evenodd;stroke:#000000;stroke-width:0.59997702;stroke-linecap:round;stroke-linejoin:round;stroke-miterlimit:4;stroke-dasharray:none;stroke-opacity:1"
           id="path264502"
           inkscape:connector-curvature="0" /></g><g
         id="g264504"
         transform="matrix(1,0,0,-1,0,270.04724)"><path
           d="m 400.859,162.094 11.402,0 0,66.797 -11.402,0 0,-66.797 z"
           style="fill:#ffffff;fill-opacity:1;fill-rule:nonzero;stroke:#000000;stroke-width:0.59997702;stroke-linecap:round;stroke-linejoin:round;stroke-miterlimit:4;stroke-dasharray:none;stroke-opacity:1"
           id="path264506"
           inkscape:connector-curvature="0" /></g><g
         id="g264508"
         transform="matrix(1,0,0,-1,0,270.04724)"><path
           d="m 411.961,174.453 c 0,2.985 -2.418,5.402 -5.399,5.402 -2.984,0 -5.402,-2.417 -5.402,-5.402 0,-2.98 2.418,-5.398 5.402,-5.398 2.981,0 5.399,2.418 5.399,5.398 z"
           style="fill:#000000;fill-opacity:1;fill-rule:nonzero;stroke:#000000;stroke-width:0.59997702;stroke-linecap:round;stroke-linejoin:round;stroke-miterlimit:4;stroke-dasharray:none;stroke-opacity:1"
           id="path264510"
           inkscape:connector-curvature="0" /></g><g
         id="g264512"
         transform="matrix(1,0,0,-1,0,270.04724)"><path
           d="m 432.055,153.094 -6,9 -5.399,-9 11.399,0 z"
           style="fill:#ffffff;fill-opacity:1;fill-rule:evenodd;stroke:#000000;stroke-width:0.59997702;stroke-linecap:round;stroke-linejoin:round;stroke-miterlimit:4;stroke-dasharray:none;stroke-opacity:1"
           id="path264514"
           inkscape:connector-curvature="0" /></g><g
         id="g264516"
         transform="matrix(1,0,0,-1,0,270.04724)"><path
           d="m 420.66,162.094 11.398,0 0,66.797 -11.398,0 0,-66.797 z"
           style="fill:#ffffff;fill-opacity:1;fill-rule:nonzero;stroke:#000000;stroke-width:0.59997702;stroke-linecap:round;stroke-linejoin:round;stroke-miterlimit:4;stroke-dasharray:none;stroke-opacity:1"
           id="path264518"
           inkscape:connector-curvature="0" /></g><g
         id="g264520"
         transform="matrix(1,0,0,-1,0,270.04724)"><path
           d="m 431.758,174.453 c 0,2.985 -2.418,5.402 -5.403,5.402 -2.98,0 -5.398,-2.417 -5.398,-5.402 0,-2.98 2.418,-5.398 5.398,-5.398 2.985,0 5.403,2.418 5.403,5.398 z"
           style="fill:#000000;fill-opacity:1;fill-rule:nonzero;stroke:#000000;stroke-width:0.59997702;stroke-linecap:round;stroke-linejoin:round;stroke-miterlimit:4;stroke-dasharray:none;stroke-opacity:1"
           id="path264522"
           inkscape:connector-curvature="0" /></g><g
         id="g264524"
         transform="matrix(1,0,0,-1,0,270.04724)"><path
           d="m 213.422,153.098 -5.402,8.996 11.402,0 -6,-8.996 z"
           style="fill:#ffffff;fill-opacity:1;fill-rule:evenodd;stroke:#000000;stroke-width:0.59997702;stroke-linecap:round;stroke-linejoin:round;stroke-miterlimit:4;stroke-dasharray:none;stroke-opacity:1"
           id="path264526"
           inkscape:connector-curvature="0" /></g><g
         id="g264528"
         transform="matrix(1,0,0,-1,0,270.04724)"><path
           d="m 208.02,162.094 11.402,0 0,66.797 -11.402,0 0,-66.797 z"
           style="fill:#ffffff;fill-opacity:1;fill-rule:nonzero;stroke:#000000;stroke-width:0.59997702;stroke-linecap:round;stroke-linejoin:round;stroke-miterlimit:4;stroke-dasharray:none;stroke-opacity:1"
           id="path264530"
           inkscape:connector-curvature="0" /></g><g
         id="g264532"
         transform="matrix(1,0,0,-1,0,270.04724)"><path
           d="m 219.121,174.457 c 0,2.981 -2.418,5.398 -5.398,5.398 -2.985,0 -5.403,-2.417 -5.403,-5.398 0,-2.984 2.418,-5.402 5.403,-5.402 2.98,0 5.398,2.418 5.398,5.402 z"
           style="fill:#000000;fill-opacity:1;fill-rule:nonzero;stroke:#000000;stroke-width:0.59997702;stroke-linecap:round;stroke-linejoin:round;stroke-miterlimit:4;stroke-dasharray:none;stroke-opacity:1"
           id="path264534"
           inkscape:connector-curvature="0" /></g><g
         id="g264536"
         transform="matrix(1,0,0,-1,0,270.04724)"><path
           d="m 219.121,214.902 c 0,2.981 -2.418,5.399 -5.398,5.399 -2.985,0 -5.403,-2.418 -5.403,-5.399 0,-2.98 2.418,-5.398 5.403,-5.398 2.98,0 5.398,2.418 5.398,5.398 z"
           style="fill:#000000;fill-opacity:1;fill-rule:nonzero;stroke:#000000;stroke-width:0.59997702;stroke-linecap:round;stroke-linejoin:round;stroke-miterlimit:4;stroke-dasharray:none;stroke-opacity:1"
           id="path264538"
           inkscape:connector-curvature="0" /></g><g
         id="g264540"
         transform="matrix(1,0,0,-1,0,270.04724)"><path
           d="m 342.16,162.094 11.402,0 -6,-9 -5.402,9 z"
           style="fill:#ffffff;fill-opacity:1;fill-rule:evenodd;stroke:#000000;stroke-width:0.59997702;stroke-linecap:round;stroke-linejoin:round;stroke-miterlimit:4;stroke-dasharray:none;stroke-opacity:1"
           id="path264542"
           inkscape:connector-curvature="0" /></g><g
         id="g264544"
         transform="matrix(1,0,0,-1,0,270.04724)"><path
           d="m 342.16,162.094 11.402,0 0,66.797 -11.402,0 0,-66.797 z"
           style="fill:#ffffff;fill-opacity:1;fill-rule:nonzero;stroke:#000000;stroke-width:0.59997702;stroke-linecap:round;stroke-linejoin:round;stroke-miterlimit:4;stroke-dasharray:none;stroke-opacity:1"
           id="path264546"
           inkscape:connector-curvature="0" /></g><g
         id="g264548"
         transform="matrix(1,0,0,-1,0,270.04724)"><path
           d="m 353.262,174.453 c 0,2.985 -2.418,5.402 -5.399,5.402 -2.984,0 -5.402,-2.417 -5.402,-5.402 0,-2.98 2.418,-5.398 5.402,-5.398 2.981,0 5.399,2.418 5.399,5.398 z"
           style="fill:#000000;fill-opacity:1;fill-rule:nonzero;stroke:#000000;stroke-width:0.59997702;stroke-linecap:round;stroke-linejoin:round;stroke-miterlimit:4;stroke-dasharray:none;stroke-opacity:1"
           id="path264550"
           inkscape:connector-curvature="0" /></g><g
         id="g264552"
         transform="matrix(1,0,0,-1,0,270.04724)"><path
           d="m 353.262,214.902 c 0,2.981 -2.418,5.399 -5.399,5.399 -2.984,0 -5.402,-2.418 -5.402,-5.399 0,-2.984 2.418,-5.398 5.402,-5.398 2.981,0 5.399,2.414 5.399,5.398 z"
           style="fill:#000000;fill-opacity:1;fill-rule:nonzero;stroke:#000000;stroke-width:0.59997702;stroke-linecap:round;stroke-linejoin:round;stroke-miterlimit:4;stroke-dasharray:none;stroke-opacity:1"
           id="path264554"
           inkscape:connector-curvature="0" /></g><g
         id="g264556"
         transform="matrix(1,0,0,-1,0,270.04724)"><path
           d="m 374.75,153.094 -6,9 -5.395,-9 11.395,0 z"
           style="fill:#ffffff;fill-opacity:1;fill-rule:evenodd;stroke:#000000;stroke-width:0.59997702;stroke-linecap:round;stroke-linejoin:round;stroke-miterlimit:4;stroke-dasharray:none;stroke-opacity:1"
           id="path264558"
           inkscape:connector-curvature="0" /></g><g
         id="g264560"
         transform="matrix(1,0,0,-1,0,270.04724)"><path
           d="m 363.355,162.094 11.395,0 0,66.797 -11.395,0 0,-66.797 z"
           style="fill:#ffffff;fill-opacity:1;fill-rule:nonzero;stroke:#000000;stroke-width:0.59997702;stroke-linecap:round;stroke-linejoin:round;stroke-miterlimit:4;stroke-dasharray:none;stroke-opacity:1"
           id="path264562"
           inkscape:connector-curvature="0" /></g><g
         id="g264564"
         transform="matrix(1,0,0,-1,0,270.04724)"><path
           d="m 374.453,174.453 c 0,2.985 -2.418,5.402 -5.402,5.402 -2.981,0 -5.399,-2.417 -5.399,-5.402 0,-2.98 2.418,-5.398 5.399,-5.398 2.984,0 5.402,2.418 5.402,5.398 z"
           style="fill:#000000;fill-opacity:1;fill-rule:nonzero;stroke:#000000;stroke-width:0.59997702;stroke-linecap:round;stroke-linejoin:round;stroke-miterlimit:4;stroke-dasharray:none;stroke-opacity:1"
           id="path264566"
           inkscape:connector-curvature="0" /></g><g
         id="g264568"
         transform="matrix(1,0,0,-1,0,270.04724)"><path
           d="m 374.453,214.902 c 0,2.981 -2.418,5.399 -5.402,5.399 -2.981,0 -5.399,-2.418 -5.399,-5.399 0,-2.984 2.418,-5.398 5.399,-5.398 2.984,0 5.402,2.414 5.402,5.398 z"
           style="fill:#000000;fill-opacity:1;fill-rule:nonzero;stroke:#000000;stroke-width:0.59997702;stroke-linecap:round;stroke-linejoin:round;stroke-miterlimit:4;stroke-dasharray:none;stroke-opacity:1"
           id="path264570"
           inkscape:connector-curvature="0" /></g><g
         id="g264572"
         transform="matrix(1,0,0,-1,0,270.04724)"><path
           d="m 320.969,162.094 11.398,0 -6,-9 -5.398,9 z"
           style="fill:#ffffff;fill-opacity:1;fill-rule:evenodd;stroke:#000000;stroke-width:0.59997702;stroke-linecap:round;stroke-linejoin:round;stroke-miterlimit:4;stroke-dasharray:none;stroke-opacity:1"
           id="path264574"
           inkscape:connector-curvature="0" /></g><g
         id="g264576"
         transform="matrix(1,0,0,-1,0,270.04724)"><path
           d="m 320.969,162.094 11.398,0 0,66.797 -11.398,0 0,-66.797 z"
           style="fill:#ffffff;fill-opacity:1;fill-rule:nonzero;stroke:#000000;stroke-width:0.59997702;stroke-linecap:round;stroke-linejoin:round;stroke-miterlimit:4;stroke-dasharray:none;stroke-opacity:1"
           id="path264578"
           inkscape:connector-curvature="0" /></g><g
         id="g264580"
         transform="matrix(1,0,0,-1,0,270.04724)"><path
           d="m 332.066,174.453 c 0,2.985 -2.414,5.402 -5.398,5.402 -2.98,0 -5.398,-2.417 -5.398,-5.402 0,-2.98 2.418,-5.398 5.398,-5.398 2.984,0 5.398,2.418 5.398,5.398 z"
           style="fill:#000000;fill-opacity:1;fill-rule:nonzero;stroke:#000000;stroke-width:0.59997702;stroke-linecap:round;stroke-linejoin:round;stroke-miterlimit:4;stroke-dasharray:none;stroke-opacity:1"
           id="path264582"
           inkscape:connector-curvature="0" /></g><g
         id="g264584"
         transform="matrix(1,0,0,-1,0,270.04724)"><path
           d="m 411.961,214.902 c 0,2.985 -2.418,5.403 -5.402,5.403 -2.981,0 -5.399,-2.418 -5.399,-5.403 0,-2.984 2.418,-5.402 5.399,-5.402 2.984,0 5.402,2.418 5.402,5.402 z"
           style="fill:#000000;fill-opacity:1;fill-rule:nonzero;stroke:#000000;stroke-width:0.59997702;stroke-linecap:round;stroke-linejoin:round;stroke-miterlimit:4;stroke-dasharray:none;stroke-opacity:1"
           id="path264586"
           inkscape:connector-curvature="0" /></g><g
         id="g264588"
         transform="matrix(1,0,0,-1,0,270.04724)"><path
           d="m 431.758,214.902 c 0,2.985 -2.418,5.403 -5.403,5.403 -2.98,0 -5.398,-2.418 -5.398,-5.403 0,-2.984 2.418,-5.402 5.398,-5.402 2.985,0 5.403,2.418 5.403,5.402 z"
           style="fill:#000000;fill-opacity:1;fill-rule:nonzero;stroke:#000000;stroke-width:0.59997702;stroke-linecap:round;stroke-linejoin:round;stroke-miterlimit:4;stroke-dasharray:none;stroke-opacity:1"
           id="path264590"
           inkscape:connector-curvature="0" /></g><g
         id="g264592"
         transform="matrix(1,0,0,-1,0,270.04724)"><path
           d="m 411.961,194.316 c 0,2.985 -2.418,5.403 -5.402,5.403 -2.981,0 -5.399,-2.418 -5.399,-5.403 0,-2.98 2.418,-5.398 5.399,-5.398 2.984,0 5.402,2.418 5.402,5.398 z"
           style="fill:#000000;fill-opacity:1;fill-rule:nonzero;stroke:#000000;stroke-width:0.59997702;stroke-linecap:round;stroke-linejoin:round;stroke-miterlimit:4;stroke-dasharray:none;stroke-opacity:1"
           id="path264594"
           inkscape:connector-curvature="0" /></g><g
         id="g264596"
         transform="matrix(1,0,0,-1,0,270.04724)"><path
           d="m 431.758,194.316 c 0,2.985 -2.418,5.403 -5.403,5.403 -2.98,0 -5.398,-2.418 -5.398,-5.403 0,-2.98 2.418,-5.398 5.398,-5.398 2.985,0 5.403,2.418 5.403,5.398 z"
           style="fill:#000000;fill-opacity:1;fill-rule:nonzero;stroke:#000000;stroke-width:0.59997702;stroke-linecap:round;stroke-linejoin:round;stroke-miterlimit:4;stroke-dasharray:none;stroke-opacity:1"
           id="path264598"
           inkscape:connector-curvature="0" /></g><g
         id="g264600"
         transform="matrix(1,0,0,-1,0,270.04724)"><path
           d="m 254.637,194.316 c 0,2.981 -2.418,5.399 -5.399,5.399 -2.98,0 -5.398,-2.418 -5.398,-5.399 0,-2.984 2.418,-5.398 5.398,-5.398 2.981,0 5.399,2.414 5.399,5.398 z"
           style="fill:#000000;fill-opacity:1;fill-rule:nonzero;stroke:#000000;stroke-width:0.59997702;stroke-linecap:round;stroke-linejoin:round;stroke-miterlimit:4;stroke-dasharray:none;stroke-opacity:1"
           id="path264602"
           inkscape:connector-curvature="0" /></g><g
         id="g264604"
         transform="matrix(1,0,0,-1,0,270.04724)"><path
           d="m 332.066,194.316 c 0,2.981 -2.418,5.399 -5.398,5.399 -2.98,0 -5.398,-2.418 -5.398,-5.399 0,-2.984 2.418,-5.398 5.398,-5.398 2.98,0 5.398,2.414 5.398,5.398 z"
           style="fill:#000000;fill-opacity:1;fill-rule:nonzero;stroke:#000000;stroke-width:0.59997702;stroke-linecap:round;stroke-linejoin:round;stroke-miterlimit:4;stroke-dasharray:none;stroke-opacity:1"
           id="path264606"
           inkscape:connector-curvature="0" /></g><g
         id="g264608"
         transform="matrix(1,0,0,-1,0,270.04724)"><path
           d="m 294.238,194.316 c 0,2.981 -2.418,5.399 -5.398,5.399 -2.981,0 -5.399,-2.418 -5.399,-5.399 0,-2.984 2.418,-5.398 5.399,-5.398 2.98,0 5.398,2.414 5.398,5.398 z"
           style="fill:#000000;fill-opacity:1;fill-rule:nonzero;stroke:#000000;stroke-width:0.59997702;stroke-linecap:round;stroke-linejoin:round;stroke-miterlimit:4;stroke-dasharray:none;stroke-opacity:1"
           id="path264610"
           inkscape:connector-curvature="0" /></g><g
         id="g264612"
         transform="matrix(1,0,0,-1,0,270.04724)"><path
           d="m 374.453,194.316 c 0,2.981 -2.418,5.399 -5.402,5.399 -2.977,0 -5.395,-2.418 -5.395,-5.399 0,-2.984 2.418,-5.398 5.395,-5.398 2.984,0 5.402,2.414 5.402,5.398 z"
           style="fill:#000000;fill-opacity:1;fill-rule:nonzero;stroke:#000000;stroke-width:0.59997702;stroke-linecap:round;stroke-linejoin:round;stroke-miterlimit:4;stroke-dasharray:none;stroke-opacity:1"
           id="path264614"
           inkscape:connector-curvature="0" /></g><g
         id="g264616"
         transform="matrix(1,0,0,-1,0,270.04724)"><path
           d="m 326.668,169.055 0,10.8"
           style="fill:none;stroke:#000000;stroke-width:0.80000001;stroke-linecap:butt;stroke-linejoin:miter;stroke-miterlimit:4;stroke-dasharray:none;stroke-opacity:1"
           id="path264618"
           inkscape:connector-curvature="0" /></g><g
         id="g264620"
         transform="matrix(1,0,0,-1,0,270.04724)"><path
           d="m 294.238,174.453 -10.797,0"
           style="fill:none;stroke:#000000;stroke-width:0.80000001;stroke-linecap:butt;stroke-linejoin:miter;stroke-miterlimit:4;stroke-dasharray:none;stroke-opacity:1"
           id="path264622"
           inkscape:connector-curvature="0" /></g><g
         id="g264624"
         transform="matrix(1,0,0,-1,0,270.04724)"><path
           d="m 208.32,127.328 10.801,9"
           style="fill:#ffffff;fill-opacity:1;fill-rule:nonzero;stroke:#000000;stroke-width:0.59997702;stroke-linecap:round;stroke-linejoin:round;stroke-miterlimit:4;stroke-dasharray:none;stroke-opacity:1"
           id="path264626"
           inkscape:connector-curvature="0" /></g><text
         transform="matrix(1,0,0,-1,30.484683,34.914753)"
         style="font-variant:normal;font-weight:normal;font-size:11.85234928px;font-family:'Times New Roman';-inkscape-font-specification:TimesNewRomanPSMT;writing-mode:lr-tb;fill:#000000;fill-opacity:1;fill-rule:nonzero;stroke:none"
         id="text264628"><tspan
           x="0 7.8936644 13.819839 18.430403 21.39349 27.319664 32.570255 35.53334 38.816444 42.763275 48.013866 53.940041 58.550606 64.476776 70.402954 74.349785"
           y="0"
           sodipodi:role="line"
           id="tspan264630">Bus de transport</tspan><tspan
           x="58.371883 64.961792 70.887962 74.834793"
           y="-84.458"
           sodipodi:role="line"
           id="tspan264632">Port</tspan></text>
<g
         id="g264634"
         transform="matrix(1,0,0,-1,0,270.04724)"><path
           d="m 114.219,146.832 80.879,0 9.386,-7.461"
           style="fill:none;stroke:#000000;stroke-width:0.80000001;stroke-linecap:butt;stroke-linejoin:miter;stroke-miterlimit:4;stroke-dasharray:none;stroke-opacity:1"
           id="path264636"
           inkscape:connector-curvature="0" /></g><g
         id="g264638"
         transform="matrix(1,0.794867,0.794867,-1,0,270.04724)"><path
           d="m 60.315,185.012 -4.334,2.509 0,-5.012 4.334,2.503 z"
           style="fill:#000000;fill-opacity:1;fill-rule:evenodd;stroke:#000000;stroke-width:0.62625998;stroke-linecap:butt;stroke-linejoin:miter;stroke-miterlimit:4;stroke-dasharray:none;stroke-opacity:1"
           id="path264640"
           inkscape:connector-curvature="0" /></g><g
         id="g264642"
         transform="matrix(1,0,0,-1,0,270.04724)"><path
           d="m 114.219,232.285 117.582,0 0,-10.84"
           style="fill:none;stroke:#000000;stroke-width:0.80000001;stroke-linecap:butt;stroke-linejoin:miter;stroke-miterlimit:4;stroke-dasharray:none;stroke-opacity:1"
           id="path264644"
           inkscape:connector-curvature="0" /></g><g
         id="g264646"
         transform="matrix(0,1,1,0,0,270.04724)"><path
           d="m -217.754,231.801 -5.535,3.203 0,-6.402 5.535,3.199 z"
           style="fill:#000000;fill-opacity:1;fill-rule:evenodd;stroke:#000000;stroke-width:0.80000001;stroke-linecap:butt;stroke-linejoin:miter;stroke-miterlimit:4;stroke-dasharray:none;stroke-opacity:1"
           id="path264648"
           inkscape:connector-curvature="0" /></g><text
         transform="matrix(1,0,0,-1,18.775002,172.59464)"
         style="font-variant:normal;font-weight:normal;font-size:11.85234928px;font-family:'Times New Roman';-inkscape-font-specification:TimesNewRomanPSMT;writing-mode:lr-tb;fill:#000000;fill-opacity:1;fill-rule:nonzero;stroke:none"
         id="text264650"><tspan
           x="0 8.5573959 14.48357 17.76667 21.049772 26.300362 29.263451 33.210281 39.136456 45.06263 50.313221 53.596321 56.879421 62.805599 68.731773 74.657944 79.908539 83.191635 86.439178"
           y="0"
           sodipodi:role="line"
           id="tspan264652">Unité fonctionnelle</tspan></text>
<g
         id="g264654"
         transform="matrix(1,0,0,-1,0,270.04724)" /><path
         style="display:inline;fill:none;fill-rule:evenodd;stroke:#000000;stroke-width:0.80000001;stroke-linecap:butt;stroke-linejoin:miter;stroke-miterlimit:4;stroke-dasharray:none;stroke-opacity:1;marker-end:url(#marker23723)"
         d="m 114.219,176.61724 46.21704,0 5.57508,-7.5763"
         id="path56993-7"
         inkscape:connector-curvature="0"
         sodipodi:nodetypes="ccc" /></g></g></svg>