<?xml version="1.0" encoding="UTF-8" standalone="no"?>
<!-- Created with Inkscape (http://www.inkscape.org/) -->

<svg
   xmlns:dc="http://purl.org/dc/elements/1.1/"
   xmlns:cc="http://creativecommons.org/ns#"
   xmlns:rdf="http://www.w3.org/1999/02/22-rdf-syntax-ns#"
   xmlns:svg="http://www.w3.org/2000/svg"
   xmlns="http://www.w3.org/2000/svg"
   xmlns:sodipodi="http://sodipodi.sourceforge.net/DTD/sodipodi-0.dtd"
   xmlns:inkscape="http://www.inkscape.org/namespaces/inkscape"
   inkscape:version="0.91 r13725"
   version="1.1"
   id="svg2"
   viewBox="0 0 1176.2136 161.22146"
   height="45.500278mm"
   width="331.95361mm"
   sodipodi:docname="crc.svg">
  <sodipodi:namedview
     inkscape:window-maximized="1"
     inkscape:window-y="27"
     inkscape:window-x="0"
     inkscape:window-height="1007"
     inkscape:window-width="1920"
     showgrid="false"
     inkscape:current-layer="layer1"
     inkscape:document-units="px"
     inkscape:cy="-6.5169033"
     inkscape:cx="842.41126"
     inkscape:zoom="0.9899495"
     inkscape:pageshadow="2"
     inkscape:pageopacity="0.0"
     borderopacity="1.0"
     bordercolor="#666666"
     pagecolor="#ffffff"
     id="base"
     inkscape:snap-midpoints="true"
     inkscape:snap-nodes="true"
     inkscape:object-paths="true"
     inkscape:snap-intersection-paths="true"
     inkscape:object-nodes="true"
     inkscape:snap-smooth-nodes="true"
     fit-margin-top="0"
     fit-margin-left="0"
     fit-margin-right="0"
     fit-margin-bottom="0"
     showguides="false" />
  <defs
     id="defs4">
    <marker
       inkscape:stockid="Arrow2Lend"
       orient="auto"
       refY="0"
       refX="0"
       id="marker4761"
       style="overflow:visible"
       inkscape:isstock="true">
      <path
         id="path4763"
         style="fill:#000000;fill-opacity:1;fill-rule:evenodd;stroke:#000000;stroke-width:0.625;stroke-linejoin:round;stroke-opacity:1"
         d="M 8.7185878,4.0337352 -2.2072895,0.01601326 8.7185884,-4.0017078 c -1.7454984,2.3720609 -1.7354408,5.6174519 -6e-7,8.035443 z"
         transform="matrix(-1.1,0,0,-1.1,-1.1,0)"
         inkscape:connector-curvature="0" />
    </marker>
    <marker
       inkscape:isstock="true"
       style="overflow:visible"
       id="Arrow2Lstart"
       refX="0"
       refY="0"
       orient="auto"
       inkscape:stockid="Arrow2Lstart">
      <path
         inkscape:connector-curvature="0"
         transform="matrix(1.1,0,0,1.1,1.1,0)"
         d="M 8.7185878,4.0337352 -2.2072895,0.01601326 8.7185884,-4.0017078 c -1.7454984,2.3720609 -1.7354408,5.6174519 -6e-7,8.035443 z"
         style="fill:#000000;fill-opacity:1;fill-rule:evenodd;stroke:#000000;stroke-width:0.625;stroke-linejoin:round;stroke-opacity:1"
         id="path7943" />
    </marker>
  </defs>
  <metadata
     id="metadata7">
    <rdf:RDF>
      <cc:Work
         rdf:about="">
        <dc:format>image/svg+xml</dc:format>
        <dc:type
           rdf:resource="http://purl.org/dc/dcmitype/StillImage" />
        <dc:title />
      </cc:Work>
    </rdf:RDF>
  </metadata>
  <g
     transform="translate(-165.66502,124.21042)"
     inkscape:label="Layer 1"
     inkscape:groupmode="layer"
     id="layer1">
    <g
       transform="matrix(1.3015664,0,0,1.3015664,-87.963974,-1339.2494)"
       id="g4961">
      <g
         style="font-style:normal;font-variant:normal;font-weight:normal;font-stretch:normal;letter-spacing:normal;word-spacing:normal;text-anchor:start;fill:none;fill-opacity:1;fill-rule:evenodd;stroke:#000000;stroke-linecap:butt;stroke-linejoin:miter;stroke-miterlimit:10.43299961;stroke-dasharray:none;stroke-dashoffset:0;stroke-opacity:1"
         id="g4963"
         transform="matrix(0.79782854,0,0,-0.79782854,-139.61999,1308.7299)"
         xml:space="preserve"
         stroke-miterlimit="10.433"
         font-style="normal"
         font-variant="normal"
         font-weight="normal"
         font-stretch="normal"
         font-size-adjust="none"
         letter-spacing="normal"
         word-spacing="normal"><path
           style="fill:#000000;stroke-width:0"
           inkscape:connector-curvature="0"
           d="m 1143.8,409.89 0,-0.17 0,-0.15 0,-0.16 0,-0.14 -0.1,-0.14 0,-0.13 0,-0.12 0,-0.12 0,-0.11 -0.1,-0.1 0,-0.1 -0.1,-0.09 0,-0.09 -0.1,-0.08 -0.1,-0.08 -0.1,-0.07 -0.1,-0.06 -0.1,-0.06 0,-0.03 -0.1,-0.03 -0.1,-0.02 0,-0.03 -0.1,-0.02 -0.1,-0.02 -0.1,-0.02 0,-0.02 -0.1,-0.02 -0.1,-0.02 -0.1,-0.02 -0.1,-0.01 -0.1,-0.02 -0.1,-0.01 -0.2,-0.01 -0.1,-0.01 -0.1,-0.01 -0.1,-0.01 -0.2,-0.01 -0.1,-0.01 -0.1,-0.01 -0.2,0 -0.1,-0.01 -0.2,0 -0.1,0 -0.2,-0.01 -0.2,0 -0.2,0 -1.2,0 0,-1.54 28.8,0 2.1,12.85 -1.3,0 c -1.2,-7.67 -2.4,-11.31 -10.9,-11.31 l -6.6,0 c -2.4,0 -2.5,0.35 -2.5,2 l 0,13.3 4.5,0 c 4.8,0 5.4,-1.6 5.4,-5.83 l 1.2,0 0,13.2 -1.2,0 c 0,-4.28 -0.6,-5.83 -5.4,-5.83 l -4.5,0 0,11.96 c 0,1.64 0.1,1.99 2.5,1.99 l 6.4,0 c 7.6,0 8.9,-2.74 9.7,-9.67 l 1.3,0 -1.4,11.21 -28.1,0 0,-1.54 1.2,0 c 3.9,0 4,-0.55 4,-2.34 z"
           id="path4965" /><path
           style="fill:#000000;stroke-width:0"
           inkscape:connector-curvature="0"
           d="m 1176.5,423.14 0,-13.35 c 0,-2.25 -0.6,-2.25 -3.9,-2.25 l 0,-1.54 11.2,0 0,1.54 c -3.3,0 -3.9,0 -3.9,2.25 l 0,9.16 c 0,5.18 3.5,7.97 6.7,7.97 3.2,0 3.7,-2.69 3.7,-5.53 l 0,-11.6 c 0,-2.25 -0.5,-2.25 -3.9,-2.25 l 0,-1.54 11.3,0 0,1.54 c -2.6,0 -3.9,0 -3.9,1.5 l 0,9.51 c 0,4.29 0,5.83 -1.6,7.63 -0.7,0.84 -2.3,1.84 -5.2,1.84 -3.6,0 -6,-2.14 -7.4,-5.23 l 0,5.23 -7,-0.55 0,-1.54 c 3.5,0 3.9,-0.35 3.9,-2.79 z"
           id="path4967" /><path
           style="fill:#000000;stroke-width:0"
           inkscape:connector-curvature="0"
           d="m 1203.8,416.86 0,0.38 0,0.36 0.1,0.36 0,0.35 0,0.34 0,0.34 0.1,0.32 0,0.32 0.1,0.31 0,0.3 0.1,0.29 0,0.29 0.2,0.54 0.1,0.52 0.2,0.49 0.2,0.46 0.2,0.43 0.2,0.4 0.2,0.37 0.2,0.35 0.3,0.33 0.2,0.3 0.3,0.28 0.2,0.25 0.3,0.23 0.3,0.21 0.2,0.19 0.3,0.17 0.3,0.15 0.3,0.13 0.3,0.11 0.2,0.09 0.3,0.08 0.3,0.06 0.3,0.05 0.2,0.03 0.3,0.02 0.3,0.01 c 0.4,0 3.5,-0.05 5.3,-1.84 -2.1,-0.15 -2.4,-1.64 -2.4,-2.29 0,-1.3 0.9,-2.3 2.3,-2.3 1.3,0 2.3,0.85 2.3,2.34 0,3.4 -3.8,5.34 -7.6,5.34 -6.2,0 -10.8,-5.38 -10.8,-11.56 0,-6.38 4.9,-11.31 10.7,-11.31 6.7,0 8.3,5.98 8.3,6.48 0,0.5 -0.5,0.5 -0.7,0.5 -0.4,0 -0.5,-0.2 -0.6,-0.5 -1.5,-4.63 -4.7,-5.23 -6.6,-5.23 -2.6,0 -7,2.14 -7,10.16 z"
           id="path4969" /><path
           style="fill:#000000;stroke-width:0"
           inkscape:connector-curvature="0"
           d="m 1243.5,416.66 -0.1,0.59 0,0.59 -0.1,0.58 -0.1,0.57 -0.1,0.56 -0.1,0.55 -0.2,0.54 -0.2,0.53 -0.2,0.52 -0.3,0.5 -0.2,0.49 -0.3,0.47 -0.3,0.46 -0.4,0.44 -0.3,0.42 -0.4,0.41 -0.4,0.39 -0.4,0.36 -0.4,0.35 -0.4,0.33 -0.5,0.3 -0.4,0.29 -0.5,0.26 -0.5,0.23 -0.5,0.21 -0.5,0.19 -0.5,0.16 -0.5,0.13 -0.6,0.1 -0.5,0.08 -0.6,0.04 -0.6,0.02 0,-1.1 c 2.2,0 4.3,-1.1 5.6,-3.24 1.3,-2.14 1.3,-5.03 1.3,-6.92 0,-1.79 0,-4.49 -1.1,-6.68 -1.1,-2.24 -3.3,-3.68 -5.8,-3.68 l 0,0 c -2.1,0 -4.3,1.04 -5.6,3.34 -1.3,2.19 -1.3,5.23 -1.3,7.02 0,1.94 0,4.63 1.2,6.82 1.4,2.3 3.7,3.34 5.7,3.34 l 0,1.1 c -6.2,0 -11,-5.43 -11,-11.66 0,-6.43 5.2,-11.21 11,-11.21 6,0 11.1,4.88 11.1,11.21 z"
           id="path4971" /><path
           style="fill:#000000;stroke-width:0"
           inkscape:connector-curvature="0"
           d="m 1265.9,408.74 0,-3.29 7.3,0.55 0,1.54 c -3.4,0 -3.8,0.35 -3.8,2.79 l 0,30.24 -7.2,-0.55 0,-1.54 c 3.5,0 3.9,-0.35 3.9,-2.79 l 0,-10.76 c -1.5,1.79 -3.6,3.09 -6.3,3.09 l 0.2,-1.1 c 1.8,0 3.8,-0.74 5.4,-2.99 0.5,-0.84 0.5,-0.95 0.5,-1.84 l 0,0 0,-10.21 c 0,-0.9 0,-1 -0.5,-1.84 -1.5,-2.4 -3.8,-3.49 -5.9,-3.49 -2.2,0 -4,1.29 -5.2,3.18 -1.3,2.05 -1.5,4.89 -1.5,6.93 0,1.84 0.1,4.83 1.6,7.07 1,1.55 2.9,3.19 5.6,3.19 l -0.2,1.1 c -5.9,0 -11.1,-4.88 -11.1,-11.31 0,-6.33 4.9,-11.26 10.5,-11.26 3.2,0 5.5,1.69 6.7,3.29 z"
           id="path4973" /><path
           style="fill:#000000;stroke-width:0"
           inkscape:connector-curvature="0"
           d="m 1280.5,417.51 0.1,1.04 c 0.3,7.43 4.5,8.67 6.2,8.67 5.1,0 5.6,-6.72 5.6,-8.67 l -11.8,0 -0.1,-1.04 13.9,0 c 1.1,0 1.3,0 1.3,1.04 0,4.93 -2.7,9.77 -8.9,9.77 -5.8,0 -10.4,-5.14 -10.4,-11.36 0,-6.67 5.2,-11.51 11,-11.51 6,0 8.3,5.53 8.3,6.48 0,0.5 -0.4,0.6 -0.7,0.6 -0.4,0 -0.5,-0.3 -0.6,-0.7 -1.8,-5.13 -6.2,-5.13 -6.7,-5.13 -2.5,0 -4.5,1.49 -5.7,3.34 -1.5,2.39 -1.5,5.67 -1.5,7.47 z"
           id="path4975" /><path
           style="fill:#000000;stroke-width:0"
           inkscape:connector-curvature="0"
           d="m 1316.5,409.93 0,-4.48 7.2,0.55 0,1.54 c -3.5,0 -3.9,0.35 -3.9,2.79 l 0,17.69 -7.4,-0.55 0,-1.54 c 3.5,0 3.9,-0.35 3.9,-2.79 l 0,-8.87 c 0,-4.34 -2.4,-7.72 -6,-7.72 -4.2,0 -4.4,2.34 -4.4,4.93 l 0,16.54 -7.3,-0.55 0,-1.54 c 3.9,0 3.9,-0.15 3.9,-4.59 l 0,-7.47 c 0,-3.89 0,-8.42 7.6,-8.42 2.7,0 4.9,1.4 6.4,4.48 z"
           id="path4977" /><path
           style="fill:#000000;stroke-width:0"
           inkscape:connector-curvature="0"
           d="m 1332.3,422.54 0,5.48 -6.9,-0.55 0,-1.54 c 3.5,0 3.9,-0.35 3.9,-2.79 l 0,-13.35 c 0,-2.25 -0.6,-2.25 -3.9,-2.25 l 0,-1.54 12,0 0,1.54 -1,0 c -3.7,0 -3.8,0.55 -3.8,2.35 l 0,7.66 c 0,4.94 2.1,9.37 5.8,9.37 0.4,0 0.5,0 0.6,-0.05 -0.2,-0.05 -1.2,-0.65 -1.2,-1.94 0,-1.39 1.1,-2.14 2.2,-2.14 0.9,0 2.1,0.59 2.1,2.19 0,1.59 -1.5,3.04 -3.7,3.04 -3.6,0 -5.4,-3.34 -6.1,-5.48 z"
           id="path4979" /><path
           style="fill:#000000;stroke-width:0"
           inkscape:connector-curvature="0"
           d="m 1175.3,361.74 -0.1,1.3 0,13.44 c 0,1.65 0.1,2 2.4,2 l 4.4,0 c 7.9,0 7.9,-5.28 7.9,-7.72 0,-2.35 0,-7.72 -7.9,-7.72 l -6.8,0 0.1,-1.3 8.4,0 c 6,0 11.4,4.04 11.4,9.02 0,4.88 -4.9,9.26 -11.8,9.26 l -17.6,0 0,-1.54 1.2,0 c 3.9,0 4,-0.55 4,-2.34 l 0,-26.25 c 0,-1.8 -0.1,-2.35 -4,-2.35 l -1.2,0 0,-1.54 14.7,0 0,1.54 -1.2,0 c -3.8,0 -3.9,0.55 -3.9,2.35 z"
           id="path4981" /><path
           style="fill:#000000;stroke-width:0"
           inkscape:connector-curvature="0"
           d="m 1220.5,356.66 -0.1,0.59 0,0.59 -0.1,0.58 -0.1,0.57 -0.1,0.56 -0.1,0.55 -0.2,0.54 -0.2,0.53 -0.2,0.52 -0.3,0.5 -0.2,0.49 -0.3,0.47 -0.3,0.46 -0.4,0.44 -0.3,0.42 -0.4,0.41 -0.4,0.39 -0.4,0.36 -0.4,0.35 -0.4,0.33 -0.5,0.3 -0.4,0.29 -0.5,0.26 -0.5,0.23 -0.5,0.21 -0.5,0.19 -0.5,0.16 -0.5,0.13 -0.6,0.1 -0.5,0.08 -0.6,0.04 -0.6,0.02 0,-1.1 c 2.2,0 4.3,-1.1 5.6,-3.24 1.3,-2.14 1.3,-5.03 1.3,-6.92 0,-1.79 0,-4.49 -1.1,-6.68 -1.1,-2.24 -3.3,-3.68 -5.8,-3.68 l 0,0 c -2.1,0 -4.3,1.04 -5.6,3.34 -1.3,2.19 -1.3,5.23 -1.3,7.02 0,1.94 0,4.63 1.2,6.82 1.4,2.3 3.7,3.34 5.7,3.34 l 0,1.1 c -6.2,0 -11,-5.43 -11,-11.66 0,-6.43 5.2,-11.21 11,-11.21 6,0 11.1,4.88 11.1,11.21 z"
           id="path4983" /><path
           style="fill:#000000;stroke-width:0"
           inkscape:connector-curvature="0"
           d="m 1230.8,380.57 -7.2,-0.55 0,-1.54 c 3.5,0 3.9,-0.35 3.9,-2.79 l 0,-25.9 c 0,-2.25 -0.5,-2.25 -3.9,-2.25 l 0,-1.54 11.1,0 0,1.54 c -3.3,0 -3.9,0 -3.9,2.25 z"
           id="path4985" /><path
           style="fill:#000000;stroke-width:0"
           inkscape:connector-curvature="0"
           d="m 1252.6,349.79 0,-0.19 0,-0.19 0.1,-0.19 0,-0.18 0.1,-0.19 0,-0.18 0.1,-0.18 0.1,-0.18 0,-0.18 0.1,-0.18 0.1,-0.17 0.1,-0.16 0.1,-0.17 0.1,-0.15 0.1,-0.16 0.1,-0.14 0.2,-0.15 0.1,-0.13 0.1,-0.13 0.2,-0.12 0.1,-0.12 0.2,-0.1 0.1,-0.1 0.2,-0.09 0.2,-0.08 0.2,-0.07 0.1,-0.07 0.2,-0.05 0.2,-0.04 0.2,-0.03 0.3,-0.01 0.2,-0.01 c 1,0 4.1,0.7 4.1,4.73 l 0,2.79 -1.3,0 0,-2.79 c 0,-2.89 -1.2,-3.18 -1.8,-3.18 -1.6,0 -1.8,2.24 -1.8,2.48 l 0,9.97 c 0,2.09 0,4.03 -1.8,5.88 -2,1.94 -4.5,2.74 -6.8,2.74 -4.1,0 -7.6,-2.34 -7.6,-5.63 0,-1.5 1,-2.34 2.3,-2.34 1.4,0 2.3,0.99 2.3,2.29 0,0.59 -0.2,2.24 -2.5,2.29 1.3,1.74 3.8,2.29 5.4,2.29 2.4,0 5.2,-1.94 5.2,-6.38 l 0,-1.84 0,-1.04 0,-4.99 c 0,-4.73 -3.5,-6.42 -5.8,-6.42 -2.4,0 -4.5,1.74 -4.5,4.23 0,2.74 2.1,6.88 10.3,7.18 l 0,0 0,1.04 c -2.5,-0.15 -6,-0.3 -9.1,-1.79 -3.8,-1.69 -5,-4.28 -5,-6.48 0,-4.03 4.8,-5.28 8,-5.28 3.2,0 5.5,2 6.5,4.34 z"
           id="path4987" /><path
           style="fill:#000000;stroke-width:0"
           inkscape:connector-curvature="0"
           d="m 1268.8,368.02 -7,-0.55 0,-1.54 c 3.3,0 3.7,-0.31 3.7,-2.75 l 0,-13.39 c 0,-2.25 -0.5,-2.25 -3.9,-2.25 l 0,-1.54 10.7,0 0,1.54 c -3.3,0 -3.5,0.25 -3.5,2.19 z"
           id="path4989" /><path
           style="fill:#000000;stroke-width:0"
           inkscape:connector-curvature="0"
           d="m 1269,376.68 0,0.15 0,0.15 0,0.14 0,0.13 -0.1,0.14 0,0.13 0,0.13 -0.1,0.12 -0.1,0.12 0,0.11 -0.1,0.11 0,0.11 -0.1,0.1 -0.1,0.1 -0.1,0.09 -0.1,0.09 -0.1,0.09 -0.1,0.07 -0.1,0.08 -0.1,0.07 -0.1,0.06 -0.1,0.06 -0.1,0.06 -0.1,0.05 -0.1,0.04 -0.2,0.04 -0.1,0.03 -0.1,0.03 -0.1,0.02 -0.2,0.01 -0.1,0.01 -0.1,0 c -1.6,0 -2.7,-1.34 -2.7,-2.64 0,-1.34 1.1,-2.64 2.7,-2.64 1.4,0 2.6,1.05 2.6,2.64 z"
           id="path4991" /><path
           style="fill:#000000;stroke-width:0"
           inkscape:connector-curvature="0"
           d="m 1282.3,362.54 0,5.48 -6.9,-0.55 0,-1.54 c 3.5,0 3.9,-0.35 3.9,-2.79 l 0,-13.35 c 0,-2.25 -0.6,-2.25 -3.9,-2.25 l 0,-1.54 12,0 0,1.54 -1,0 c -3.7,0 -3.8,0.55 -3.8,2.35 l 0,7.66 c 0,4.94 2.1,9.37 5.8,9.37 0.4,0 0.5,0 0.6,-0.05 -0.2,-0.05 -1.2,-0.65 -1.2,-1.94 0,-1.39 1.1,-2.14 2.2,-2.14 0.9,0 2.1,0.59 2.1,2.19 0,1.59 -1.5,3.04 -3.7,3.04 -3.6,0 -5.4,-3.34 -6.1,-5.48 z"
           id="path4993" /><path
           style="fill:#000000;stroke-width:0"
           inkscape:connector-curvature="0"
           d="m 1299.5,357.51 0.1,1.04 c 0.3,7.43 4.5,8.67 6.2,8.67 5.1,0 5.6,-6.72 5.6,-8.67 l -11.8,0 -0.1,-1.04 13.9,0 c 1.1,0 1.3,0 1.3,1.04 0,4.93 -2.7,9.77 -8.9,9.77 -5.8,0 -10.4,-5.14 -10.4,-11.36 0,-6.67 5.2,-11.51 11,-11.51 6,0 8.3,5.53 8.3,6.48 0,0.5 -0.4,0.6 -0.7,0.6 -0.4,0 -0.5,-0.3 -0.6,-0.7 -1.8,-5.13 -6.2,-5.13 -6.7,-5.13 -2.5,0 -4.5,1.49 -5.7,3.34 -1.5,2.39 -1.5,5.67 -1.5,7.47 z"
           id="path4995" /></g>    </g>
    <rect
       y="-123.36042"
       x="883.86676"
       height="158.79553"
       width="268.91455"
       id="rect7360-3-6-7-6"
       style="font-style:normal;font-variant:normal;font-weight:normal;font-stretch:normal;letter-spacing:normal;word-spacing:normal;text-anchor:start;fill:#00ff00;fill-opacity:0;fill-rule:evenodd;stroke:#000000;stroke-width:1.70000005;stroke-linecap:butt;stroke-linejoin:miter;stroke-miterlimit:10.43299961;stroke-dasharray:none;stroke-dashoffset:0;stroke-opacity:1" />
    <path
       inkscape:connector-curvature="0"
       id="path7894"
       d="m 337.1423,-43.9627 -171.47728,0"
       style="fill:none;fill-rule:evenodd;stroke:#000000;stroke-width:1.70000005;stroke-linecap:butt;stroke-linejoin:miter;stroke-miterlimit:4;stroke-dasharray:none;stroke-opacity:1" />
    <path
       sodipodi:nodetypes="cc"
       inkscape:connector-curvature="0"
       id="path7913"
       d="m 606.05685,-43.9627 277.80991,0"
       style="fill:none;fill-rule:evenodd;stroke:#000000;stroke-width:1.70000005;stroke-linecap:butt;stroke-linejoin:miter;stroke-miterlimit:4;stroke-dasharray:none;stroke-opacity:1" />
    <g
       transform="matrix(1.3338297,0,0,1.3338297,113.44383,-1338.7061)"
       id="g4447">
      <g
         style="font-style:normal;font-variant:normal;font-weight:normal;font-stretch:normal;letter-spacing:normal;word-spacing:normal;text-anchor:start;fill:none;fill-opacity:1;fill-rule:evenodd;stroke:#000000;stroke-linecap:butt;stroke-linejoin:miter;stroke-miterlimit:10.43299961;stroke-dasharray:none;stroke-dashoffset:0;stroke-opacity:1"
         id="g4449"
         transform="matrix(0.79782854,0,0,-0.79782854,-139.61999,1308.7299)"
         xml:space="preserve"
         stroke-miterlimit="10.433"
         font-style="normal"
         font-variant="normal"
         font-weight="normal"
         font-stretch="normal"
         font-size-adjust="none"
         letter-spacing="normal"
         word-spacing="normal"><path
           style="fill:#000000;stroke-width:0"
           inkscape:connector-curvature="0"
           d="m 458.79,423.04 0.02,-0.96 0.07,-0.95 0.12,-0.92 0.15,-0.91 0.2,-0.89 0.24,-0.88 0.29,-0.85 0.31,-0.83 0.36,-0.8 0.39,-0.79 0.43,-0.76 0.46,-0.73 0.49,-0.71 0.53,-0.68 0.55,-0.65 0.58,-0.63 0.61,-0.59 0.64,-0.56 0.66,-0.53 0.68,-0.5 0.7,-0.46 0.73,-0.43 0.74,-0.39 0.77,-0.35 0.78,-0.32 0.79,-0.28 0.82,-0.24 0.82,-0.19 0.84,-0.16 0.84,-0.11 0.86,-0.07 0.86,-0.02 c 8.12,0 13,6.93 13,12.71 0,0.5 0,0.84 -0.64,0.84 -0.55,0 -0.55,-0.29 -0.6,-0.79 -0.4,-7.13 -5.73,-11.21 -11.16,-11.21 -3.04,0 -12.8,1.69 -12.8,16.53 0,14.9 9.71,16.59 12.75,16.59 5.43,0 9.87,-4.53 10.86,-11.8 0.1,-0.7 0.1,-0.85 0.8,-0.85 0.79,0 0.79,0.15 0.79,1.2 l 0,11.8 c 0,0.85 0,1.2 -0.54,1.2 -0.2,0 -0.4,0 -0.8,-0.6 l -2.49,-3.68 c -1.84,1.79 -4.38,4.28 -9.17,4.28 -9.31,0 -17.33,-7.92 -17.33,-18.08 z"
           id="path4451" /><path
           style="fill:#000000;stroke-width:0"
           inkscape:connector-curvature="0"
           d="m 513.67,422.94 0.45,0.12 0.44,0.12 0.44,0.14 0.43,0.15 0.42,0.16 0.42,0.17 0.4,0.18 0.4,0.18 0.39,0.2 0.37,0.21 0.37,0.21 0.35,0.23 0.34,0.23 0.33,0.24 0.32,0.25 0.3,0.26 0.29,0.26 0.27,0.28 0.26,0.28 0.24,0.29 0.23,0.29 0.21,0.3 0.19,0.31 0.17,0.32 0.16,0.32 0.14,0.33 0.11,0.33 0.1,0.34 0.08,0.35 0.05,0.35 0.04,0.35 0.01,0.36 c 0,4.79 -5.68,8.97 -13,8.97 l -15.65,0 0,-1.54 1.2,0 c 3.83,0 3.94,-0.55 3.94,-2.34 l 0,-26.25 c 0,-1.8 -0.11,-2.35 -3.94,-2.35 l -1.2,0 0,-1.54 14.55,0 0,1.54 -1.2,0 c -3.83,0 -3.93,0.55 -3.93,2.35 l 0,12.6 0,1.1 0,12.89 c 0,1.15 0,1.75 1.09,1.9 0.5,0.1 1.95,0.1 2.94,0.1 4.49,0 10.06,-0.2 10.06,-7.43 0,-3.43 -1.19,-7.46 -8.56,-7.46 l -5.53,0 0,-1.1 5.73,0 c 0.79,0 2.89,0 4.63,-1.7 1.89,-1.79 1.89,-3.33 1.89,-6.67 0,-3.24 0,-5.23 2.04,-7.12 2.05,-1.8 4.79,-2.1 6.28,-2.1 3.89,0 4.74,4.09 4.74,5.48 0,0.3 0,0.85 -0.65,0.85 -0.55,0 -0.55,-0.45 -0.6,-0.8 -0.3,-3.53 -2.04,-4.43 -3.29,-4.43 -2.44,0 -2.84,2.54 -3.53,7.17 l -0.65,3.99 c -0.9,3.19 -3.34,4.83 -6.08,5.78 z"
           id="path4453" /><path
           style="fill:#000000;stroke-width:0"
           inkscape:connector-curvature="0"
           d="m 529.79,423.04 0.02,-0.96 0.07,-0.95 0.12,-0.92 0.15,-0.91 0.2,-0.89 0.24,-0.88 0.29,-0.85 0.31,-0.83 0.36,-0.8 0.39,-0.79 0.43,-0.76 0.46,-0.73 0.49,-0.71 0.53,-0.68 0.55,-0.65 0.58,-0.63 0.61,-0.59 0.64,-0.56 0.66,-0.53 0.68,-0.5 0.7,-0.46 0.73,-0.43 0.74,-0.39 0.77,-0.35 0.78,-0.32 0.79,-0.28 0.82,-0.24 0.82,-0.19 0.84,-0.16 0.84,-0.11 0.86,-0.07 0.86,-0.02 c 8.12,0 13,6.93 13,12.71 0,0.5 0,0.84 -0.64,0.84 -0.55,0 -0.55,-0.29 -0.6,-0.79 -0.4,-7.13 -5.73,-11.21 -11.16,-11.21 -3.04,0 -12.8,1.69 -12.8,16.53 0,14.9 9.71,16.59 12.75,16.59 5.43,0 9.86,-4.53 10.86,-11.8 0.1,-0.7 0.1,-0.85 0.8,-0.85 0.79,0 0.79,0.15 0.79,1.2 l 0,11.8 c 0,0.85 0,1.2 -0.54,1.2 -0.2,0 -0.4,0 -0.8,-0.6 l -2.49,-3.68 c -1.84,1.79 -4.38,4.28 -9.17,4.28 -9.31,0 -17.33,-7.92 -17.33,-18.08 z"
           id="path4455" /></g>    </g>
    <rect
       y="-122.63449"
       x="336.90268"
       height="158.79553"
       width="268.91455"
       id="rect7360-3-6-7-6-6"
       style="font-style:normal;font-variant:normal;font-weight:normal;font-stretch:normal;letter-spacing:normal;word-spacing:normal;text-anchor:start;fill:#00ff00;fill-opacity:0;fill-rule:evenodd;stroke:#000000;stroke-width:1.70000005;stroke-linecap:butt;stroke-linejoin:miter;stroke-miterlimit:10.43299961;stroke-dasharray:none;stroke-dashoffset:0;stroke-opacity:1" />
    <path
       sodipodi:nodetypes="cc"
       inkscape:connector-curvature="0"
       id="path7913-2"
       d="m 1152.8348,-43.962708 186.2019,0"
       style="fill:none;fill-rule:evenodd;stroke:#000000;stroke-width:1.70000005;stroke-linecap:butt;stroke-linejoin:miter;stroke-miterlimit:4;stroke-dasharray:none;stroke-opacity:1;marker-end:url(#marker4761)" />
    <g
       transform="matrix(4.3018568,0,0,4.3018568,362.08439,-3471.8915)"
       id="g5919">
      <g
         style="font-style:normal;font-variant:normal;font-weight:normal;font-stretch:normal;letter-spacing:normal;word-spacing:normal;text-anchor:start;fill:none;fill-opacity:1;fill-rule:evenodd;stroke:#000000;stroke-linecap:butt;stroke-linejoin:miter;stroke-miterlimit:10.43299961;stroke-dasharray:none;stroke-dashoffset:0;stroke-opacity:1"
         id="content"
         transform="matrix(0.22927941,0,0,-0.22927941,-40.123897,902.69193)"
         xml:space="preserve"
         stroke-miterlimit="10.433"
         font-style="normal"
         font-variant="normal"
         font-weight="normal"
         font-stretch="normal"
         font-size-adjust="none"
         letter-spacing="normal"
         word-spacing="normal"><path
           style="fill:#000000;stroke-width:0"
           inkscape:connector-curvature="0"
           d="m 467.01,421.89 2.02,-2.03 2.04,-2.01 4.09,-4.02 2.04,-2.02 2.02,-2.03 2,-2.05 1.98,-2.08 4.23,1.55 0.05,0.54 c -3.04,2.69 -11.26,10.86 -16.59,16.19 -0.19,0.2 -0.25,0.3 -0.25,0.45 0,0.15 0.25,0.4 0.4,0.55 l 14.5,14.64 0.05,0.45 -4.48,0 -14.3,-16.23 -0.4,0.04 c 0,10.06 0.2,14.2 0.75,15.84 l -0.35,0.35 -7.87,0 -0.4,-0.35 -0.1,-0.84 c 0.3,0 3.29,-0.8 3.74,-1.65 0.2,-0.5 0.25,-1.04 0.25,-1.54 l 0,-22.27 0,-7.32 0.39,-0.25 4.04,1.45 c -0.3,4.83 -0.3,9.71 -0.3,14.59 z"
           id="path5922" /><polygon
           style="fill:#000000;stroke-width:0"
           points="517.73,402.31 519.73,402.66 519.73,417.76 535.07,417.76 535.32,419.75 519.73,419.75 519.73,435.19 517.73,434.89 517.73,419.75 502.64,419.75 502.29,417.76 517.73,417.76 "
           id="polygon5924" /><path
           style="fill:#000000;stroke-width:0"
           inkscape:connector-curvature="0"
           d="m 570.67,411.68 -0.45,0.1 c -2.19,-1.89 -4.68,-3.44 -7.62,-3.44 -5.83,0 -7.03,5.73 -7.03,10.02 0,4.38 2.25,9.36 6.48,9.36 2.14,0 3.79,-1.94 4.23,-5.28 l 0.85,-0.3 2.69,2.64 c -0.3,2.84 -2.54,4.88 -5.78,4.88 -7.37,0 -12.6,-5.38 -12.6,-12.85 0,-4.93 0.5,-11.76 8.62,-11.76 4.43,0 8.07,2.69 11.16,5.73 z"
           id="path5926" /><path
           style="fill:#000000;stroke-width:0"
           inkscape:connector-curvature="0"
           d="m 598.57,424.78 0,15.79 -7.17,-0.55 0,-1.54 c 3.48,0 3.88,-0.35 3.88,-2.79 l 0,-29.69 1.25,0 c 0.04,0.05 0.44,0.75 1.79,3.09 0.75,-1.15 2.84,-3.64 6.52,-3.64 l -0.19,1.1 c -2.25,0 -4.04,1.19 -5.24,3.04 -0.69,1.04 -0.69,1.19 -0.69,2.09 l 0,0 0,10.26 c 0,0.95 0,1 0.55,1.79 1.94,2.79 4.68,3.19 5.88,3.19 2.24,0 4.03,-1.3 5.23,-3.19 1.29,-2.04 1.44,-4.88 1.44,-6.92 0,-1.85 -0.1,-4.83 -1.55,-7.08 -1.04,-1.54 -2.93,-3.18 -5.62,-3.18 l 0.19,-1.1 c 5.93,0 11.11,4.88 11.11,11.31 0,6.33 -4.88,11.26 -10.56,11.26 -3.88,0 -6.03,-2.34 -6.82,-3.24 z"
           id="path5928" /><path
           style="fill:#000000;stroke-width:0"
           inkscape:connector-curvature="0"
           d="m 625.82,428.02 -6.98,-0.55 0,-1.54 c 3.24,0 3.69,-0.31 3.69,-2.75 l 0,-13.39 c 0,-2.25 -0.55,-2.25 -3.88,-2.25 l 0,-1.54 10.65,0 0,1.54 c -3.28,0 -3.48,0.25 -3.48,2.19 z"
           id="path5930" /><path
           style="fill:#000000;stroke-width:0"
           inkscape:connector-curvature="0"
           d="m 626.02,436.68 -0.01,0.15 -0.01,0.15 -0.02,0.14 -0.02,0.13 -0.03,0.14 -0.04,0.13 -0.04,0.13 -0.05,0.12 -0.06,0.12 -0.06,0.11 -0.06,0.11 -0.07,0.11 -0.08,0.1 -0.08,0.1 -0.08,0.09 -0.09,0.09 -0.09,0.09 -0.1,0.07 -0.1,0.08 -0.11,0.07 -0.1,0.06 -0.11,0.06 -0.12,0.06 -0.11,0.05 -0.12,0.04 -0.12,0.04 -0.13,0.03 -0.12,0.03 -0.13,0.02 -0.13,0.01 -0.12,0.01 -0.13,0 c -1.55,0 -2.65,-1.34 -2.65,-2.64 0,-1.34 1.1,-2.64 2.65,-2.64 1.39,0 2.64,1.05 2.64,2.64 z"
           id="path5932" /><path
           style="fill:#000000;stroke-width:0"
           inkscape:connector-curvature="0"
           d="m 639.62,425.93 7.12,0 0,1.54 -7.12,0 0,9.17 -1.25,0 c -0.05,-4.09 -1.54,-9.42 -6.42,-9.62 l 0,-1.09 4.23,0 0,-13.75 c 0,-6.13 4.63,-6.73 6.42,-6.73 3.55,0 4.94,3.54 4.94,6.73 l 0,2.84 -1.25,0 0,-2.74 c 0,-3.69 -1.49,-5.58 -3.33,-5.58 -3.34,0 -3.34,4.53 -3.34,5.38 z"
           id="path5934" /><path
           style="fill:#000000;stroke-width:0"
           inkscape:connector-curvature="0"
           d="m 660.36,415.66 0.11,-0.02 0.13,-0.02 0.14,-0.03 0.16,-0.03 0.17,-0.04 0.18,-0.05 0.18,-0.05 0.2,-0.05 0.21,-0.06 0.21,-0.07 0.21,-0.08 0.22,-0.09 0.22,-0.09 0.22,-0.1 0.22,-0.12 0.22,-0.12 0.22,-0.13 0.21,-0.14 0.2,-0.15 0.2,-0.16 0.19,-0.18 0.18,-0.19 0.17,-0.2 0.16,-0.21 0.14,-0.22 0.07,-0.12 0.06,-0.12 0.06,-0.13 0.05,-0.12 0.05,-0.13 0.05,-0.14 0.04,-0.14 0.03,-0.14 0.03,-0.15 0.03,-0.15 0.02,-0.15 0.01,-0.16 0.01,-0.16 0,-0.17 c 0,-2.54 -1.74,-4.53 -5.63,-4.53 -4.18,0 -5.98,2.84 -6.92,7.07 -0.15,0.65 -0.2,0.85 -0.7,0.85 -0.64,0 -0.64,-0.35 -0.64,-1.25 l 0,-6.57 c 0,-0.85 0,-1.2 0.54,-1.2 0.25,0 0.3,0.05 1.25,1 0.09,0.1 0.09,0.2 0.99,1.14 2.19,-2.09 4.44,-2.14 5.48,-2.14 5.73,0 8.02,3.34 8.02,6.93 0,2.64 -1.49,4.13 -2.09,4.73 -1.64,1.59 -3.59,1.99 -5.68,2.39 -2.79,0.55 -6.13,1.2 -6.13,4.09 0,1.74 1.3,3.78 5.58,3.78 5.48,0 5.73,-4.48 5.83,-6.03 0.05,-0.45 0.5,-0.45 0.6,-0.45 0.65,0 0.65,0.25 0.65,1.2 l 0,5.03 c 0,0.85 0,1.2 -0.55,1.2 -0.25,0 -0.35,0 -0.99,-0.6 -0.16,-0.2 -0.65,-0.65 -0.85,-0.8 -1.9,1.4 -3.94,1.4 -4.69,1.4 -6.08,0 -7.96,-3.34 -7.96,-6.13 0,-1.74 0.79,-3.14 2.13,-4.23 1.6,-1.3 2.99,-1.6 6.58,-2.3 z"
           id="path5936" /></g>    </g>
    <g
       transform="matrix(4.3018568,0,0,4.3018568,-90.048017,-3468.861)"
       id="g6050">
      <g
         style="font-style:normal;font-variant:normal;font-weight:normal;font-stretch:normal;letter-spacing:normal;word-spacing:normal;text-anchor:start;fill:none;fill-opacity:1;fill-rule:evenodd;stroke:#000000;stroke-linecap:butt;stroke-linejoin:miter;stroke-miterlimit:10.43299961;stroke-dasharray:none;stroke-dashoffset:0;stroke-opacity:1"
         word-spacing="normal"
         letter-spacing="normal"
         font-size-adjust="none"
         font-stretch="normal"
         font-weight="normal"
         font-variant="normal"
         font-style="normal"
         stroke-miterlimit="10.433"
         xml:space="preserve"
         transform="matrix(0.22927941,0,0,-0.22927941,-40.123897,902.69193)"
         id="g6052"><path
           style="fill:#000000;stroke-width:0"
           inkscape:connector-curvature="0"
           id="path6054"
           d="m 467.01,421.89 2.02,-2.03 2.04,-2.01 4.09,-4.02 2.04,-2.02 2.02,-2.03 2,-2.05 1.98,-2.08 4.23,1.55 0.05,0.54 c -3.04,2.69 -11.26,10.86 -16.59,16.19 -0.19,0.2 -0.25,0.3 -0.25,0.45 0,0.15 0.25,0.4 0.4,0.55 l 14.5,14.64 0.05,0.45 -4.48,0 -14.3,-16.23 -0.4,0.04 c 0,10.06 0.2,14.2 0.75,15.84 l -0.35,0.35 -7.87,0 -0.4,-0.35 -0.1,-0.84 c 0.3,0 3.29,-0.8 3.74,-1.65 0.2,-0.5 0.25,-1.04 0.25,-1.54 l 0,-22.27 0,-7.32 0.39,-0.25 4.04,1.45 c -0.3,4.83 -0.3,9.71 -0.3,14.59 z" /><path
           style="fill:#000000;stroke-width:0"
           inkscape:connector-curvature="0"
           id="path6056"
           d="m 513.57,424.78 0,15.79 -7.18,-0.55 0,-1.54 c 3.49,0 3.89,-0.35 3.89,-2.79 l 0,-29.69 1.25,0 c 0.04,0.05 0.44,0.75 1.79,3.09 0.75,-1.15 2.84,-3.64 6.52,-3.64 l -0.19,1.1 c -2.25,0 -4.04,1.19 -5.24,3.04 -0.69,1.04 -0.69,1.19 -0.69,2.09 l 0,0 0,10.26 c 0,0.95 0,1 0.55,1.79 1.94,2.79 4.68,3.19 5.88,3.19 2.24,0 4.03,-1.3 5.23,-3.19 1.29,-2.04 1.44,-4.88 1.44,-6.92 0,-1.85 -0.1,-4.83 -1.55,-7.08 -1.04,-1.54 -2.93,-3.18 -5.62,-3.18 l 0.19,-1.1 c 5.93,0 11.11,4.88 11.11,11.31 0,6.33 -4.88,11.26 -10.56,11.26 -3.88,0 -6.03,-2.34 -6.82,-3.24 z" /><path
           style="fill:#000000;stroke-width:0"
           inkscape:connector-curvature="0"
           id="path6058"
           d="m 541.82,428.02 -6.98,-0.55 0,-1.54 c 3.24,0 3.69,-0.31 3.69,-2.75 l 0,-13.39 c 0,-2.25 -0.55,-2.25 -3.88,-2.25 l 0,-1.54 10.65,0 0,1.54 c -3.28,0 -3.48,0.25 -3.48,2.19 z" /><path
           style="fill:#000000;stroke-width:0"
           inkscape:connector-curvature="0"
           id="path6060"
           d="m 542.02,436.68 -0.01,0.15 -0.01,0.15 -0.02,0.14 -0.02,0.13 -0.03,0.14 -0.04,0.13 -0.04,0.13 -0.05,0.12 -0.06,0.12 -0.06,0.11 -0.06,0.11 -0.07,0.11 -0.08,0.1 -0.08,0.1 -0.08,0.09 -0.09,0.09 -0.09,0.09 -0.1,0.07 -0.1,0.08 -0.11,0.07 -0.1,0.06 -0.11,0.06 -0.12,0.06 -0.11,0.05 -0.12,0.04 -0.12,0.04 -0.13,0.03 -0.12,0.03 -0.13,0.02 -0.13,0.01 -0.12,0.01 -0.13,0 c -1.55,0 -2.65,-1.34 -2.65,-2.64 0,-1.34 1.1,-2.64 2.65,-2.64 1.39,0 2.64,1.05 2.64,2.64 z" /><path
           style="fill:#000000;stroke-width:0"
           inkscape:connector-curvature="0"
           id="path6062"
           d="m 555.62,425.93 7.12,0 0,1.54 -7.12,0 0,9.17 -1.25,0 c -0.05,-4.09 -1.54,-9.42 -6.42,-9.62 l 0,-1.09 4.23,0 0,-13.75 c 0,-6.13 4.63,-6.73 6.42,-6.73 3.55,0 4.94,3.54 4.94,6.73 l 0,2.84 -1.25,0 0,-2.74 c 0,-3.69 -1.49,-5.58 -3.33,-5.58 -3.34,0 -3.34,4.53 -3.34,5.38 z" /><path
           style="fill:#000000;stroke-width:0"
           inkscape:connector-curvature="0"
           id="path6064"
           d="m 576.36,415.66 0.11,-0.02 0.13,-0.02 0.14,-0.03 0.16,-0.03 0.17,-0.04 0.18,-0.05 0.18,-0.05 0.2,-0.05 0.21,-0.06 0.21,-0.07 0.21,-0.08 0.22,-0.09 0.22,-0.09 0.22,-0.1 0.22,-0.12 0.22,-0.12 0.22,-0.13 0.21,-0.14 0.2,-0.15 0.2,-0.16 0.19,-0.18 0.18,-0.19 0.17,-0.2 0.16,-0.21 0.14,-0.22 0.07,-0.12 0.06,-0.12 0.06,-0.13 0.05,-0.12 0.05,-0.13 0.05,-0.14 0.04,-0.14 0.03,-0.14 0.03,-0.15 0.03,-0.15 0.02,-0.15 0.01,-0.16 0.01,-0.16 0,-0.17 c 0,-2.54 -1.74,-4.53 -5.63,-4.53 -4.18,0 -5.98,2.84 -6.92,7.07 -0.15,0.65 -0.2,0.85 -0.7,0.85 -0.64,0 -0.64,-0.35 -0.64,-1.25 l 0,-6.57 c 0,-0.85 0,-1.2 0.54,-1.2 0.25,0 0.3,0.05 1.25,1 0.09,0.1 0.09,0.2 0.99,1.14 2.19,-2.09 4.44,-2.14 5.48,-2.14 5.73,0 8.02,3.34 8.02,6.93 0,2.64 -1.49,4.13 -2.09,4.73 -1.64,1.59 -3.59,1.99 -5.68,2.39 -2.79,0.55 -6.13,1.2 -6.13,4.09 0,1.74 1.3,3.78 5.58,3.78 5.48,0 5.73,-4.48 5.83,-6.03 0.05,-0.45 0.5,-0.45 0.6,-0.45 0.65,0 0.65,0.25 0.65,1.2 l 0,5.03 c 0,0.85 0,1.2 -0.55,1.2 -0.25,0 -0.35,0 -0.99,-0.6 -0.16,-0.2 -0.65,-0.65 -0.85,-0.8 -1.9,1.4 -3.94,1.4 -4.69,1.4 -6.08,0 -7.96,-3.34 -7.96,-6.13 0,-1.74 0.79,-3.14 2.13,-4.23 1.6,-1.3 2.99,-1.6 6.58,-2.3 z" /></g>    </g>
    <g
       transform="matrix(4.3018568,0,0,4.3018568,901.95971,-3470.8813)"
       id="g6194">
      <g
         style="font-style:normal;font-variant:normal;font-weight:normal;font-stretch:normal;letter-spacing:normal;word-spacing:normal;text-anchor:start;fill:none;fill-opacity:1;fill-rule:evenodd;stroke:#000000;stroke-linecap:butt;stroke-linejoin:miter;stroke-miterlimit:10.43299961;stroke-dasharray:none;stroke-dashoffset:0;stroke-opacity:1"
         id="g6196"
         transform="matrix(0.22927941,0,0,-0.22927941,-40.123897,902.69193)"
         xml:space="preserve"
         stroke-miterlimit="10.433"
         font-style="normal"
         font-variant="normal"
         font-weight="normal"
         font-stretch="normal"
         font-size-adjust="none"
         letter-spacing="normal"
         word-spacing="normal"><path
           style="fill:#000000;stroke-width:0"
           inkscape:connector-curvature="0"
           d="m 491.07,440.57 -3.99,-0.8 c 1.05,-15.14 1.2,-20.07 1.2,-25.15 0,-0.1 -0.05,-0.4 -0.3,-0.4 -0.2,0 -0.4,0.25 -0.55,0.4 -5.82,6.27 -13.89,16.99 -20.52,25.75 l -8.07,0 -0.4,-0.35 0.2,-1.34 c 4.73,-1.15 4.24,-1.35 4.24,-2.39 0,-2.15 0.05,-4.29 0.05,-6.43 0,-7.87 -0.25,-15.79 -0.65,-23.66 l 0.45,-0.45 3.48,1.5 c -0.55,8.66 -1.19,19.57 -1.19,26 0,0.25 0,0.84 0.34,0.84 0.2,0 0.4,-0.25 0.55,-0.45 2.45,-2.78 6.58,-7.52 11.66,-13.79 l 7.92,-9.87 c 1.49,-1.89 2.19,-2.68 3.34,-3.98 l 1.79,0 c 0,11.31 0.1,22.86 0.75,34.17 z"
           id="path6198" /><path
           style="fill:#000000;stroke-width:0"
           inkscape:connector-curvature="0"
           d="m 521.57,424.78 0,15.79 -7.17,-0.55 0,-1.54 c 3.48,0 3.88,-0.35 3.88,-2.79 l 0,-29.69 1.25,0 c 0.04,0.05 0.44,0.75 1.79,3.09 0.75,-1.15 2.84,-3.64 6.52,-3.64 l -0.19,1.1 c -2.25,0 -4.04,1.19 -5.24,3.04 -0.69,1.04 -0.69,1.19 -0.69,2.09 l 0,0 0,10.26 c 0,0.95 0,1 0.55,1.79 1.94,2.79 4.68,3.19 5.88,3.19 2.24,0 4.03,-1.3 5.23,-3.19 1.29,-2.04 1.44,-4.88 1.44,-6.92 0,-1.85 -0.1,-4.83 -1.55,-7.08 -1.04,-1.54 -2.93,-3.18 -5.62,-3.18 l 0.19,-1.1 c 5.93,0 11.11,4.88 11.11,11.31 0,6.33 -4.88,11.26 -10.56,11.26 -3.88,0 -6.03,-2.34 -6.82,-3.24 z"
           id="path6200" /><path
           style="fill:#000000;stroke-width:0"
           inkscape:connector-curvature="0"
           d="m 549.82,428.02 -6.98,-0.55 0,-1.54 c 3.24,0 3.69,-0.31 3.69,-2.75 l 0,-13.39 c 0,-2.25 -0.55,-2.25 -3.88,-2.25 l 0,-1.54 10.65,0 0,1.54 c -3.28,0 -3.48,0.25 -3.48,2.19 z"
           id="path6202" /><path
           style="fill:#000000;stroke-width:0"
           inkscape:connector-curvature="0"
           d="m 550.02,436.68 -0.01,0.15 -0.01,0.15 -0.02,0.14 -0.02,0.13 -0.03,0.14 -0.04,0.13 -0.04,0.13 -0.05,0.12 -0.06,0.12 -0.06,0.11 -0.06,0.11 -0.07,0.11 -0.08,0.1 -0.08,0.1 -0.08,0.09 -0.09,0.09 -0.09,0.09 -0.1,0.07 -0.1,0.08 -0.11,0.07 -0.1,0.06 -0.11,0.06 -0.12,0.06 -0.11,0.05 -0.12,0.04 -0.12,0.04 -0.13,0.03 -0.12,0.03 -0.13,0.02 -0.13,0.01 -0.12,0.01 -0.13,0 c -1.55,0 -2.65,-1.34 -2.65,-2.64 0,-1.34 1.1,-2.64 2.65,-2.64 1.39,0 2.64,1.05 2.64,2.64 z"
           id="path6204" /><path
           style="fill:#000000;stroke-width:0"
           inkscape:connector-curvature="0"
           d="m 563.62,425.93 7.12,0 0,1.54 -7.12,0 0,9.17 -1.25,0 c -0.05,-4.09 -1.54,-9.42 -6.42,-9.62 l 0,-1.09 4.23,0 0,-13.75 c 0,-6.13 4.63,-6.73 6.42,-6.73 3.55,0 4.94,3.54 4.94,6.73 l 0,2.84 -1.25,0 0,-2.74 c 0,-3.69 -1.49,-5.58 -3.33,-5.58 -3.34,0 -3.34,4.53 -3.34,5.38 z"
           id="path6206" /><path
           style="fill:#000000;stroke-width:0"
           inkscape:connector-curvature="0"
           d="m 584.36,415.66 0.11,-0.02 0.13,-0.02 0.14,-0.03 0.16,-0.03 0.17,-0.04 0.18,-0.05 0.18,-0.05 0.2,-0.05 0.21,-0.06 0.21,-0.07 0.21,-0.08 0.22,-0.09 0.22,-0.09 0.22,-0.1 0.22,-0.12 0.22,-0.12 0.22,-0.13 0.21,-0.14 0.2,-0.15 0.2,-0.16 0.19,-0.18 0.18,-0.19 0.17,-0.2 0.16,-0.21 0.14,-0.22 0.07,-0.12 0.06,-0.12 0.06,-0.13 0.05,-0.12 0.05,-0.13 0.05,-0.14 0.04,-0.14 0.03,-0.14 0.03,-0.15 0.03,-0.15 0.02,-0.15 0.01,-0.16 0.01,-0.16 0,-0.17 c 0,-2.54 -1.74,-4.53 -5.63,-4.53 -4.18,0 -5.98,2.84 -6.92,7.07 -0.15,0.65 -0.2,0.85 -0.7,0.85 -0.64,0 -0.64,-0.35 -0.64,-1.25 l 0,-6.57 c 0,-0.85 0,-1.2 0.54,-1.2 0.25,0 0.3,0.05 1.25,1 0.09,0.1 0.09,0.2 0.99,1.14 2.19,-2.09 4.44,-2.14 5.48,-2.14 5.73,0 8.02,3.34 8.02,6.93 0,2.64 -1.49,4.13 -2.09,4.73 -1.64,1.59 -3.59,1.99 -5.68,2.39 -2.79,0.55 -6.13,1.2 -6.13,4.09 0,1.74 1.3,3.78 5.58,3.78 5.48,0 5.73,-4.48 5.83,-6.03 0.05,-0.45 0.5,-0.45 0.6,-0.45 0.65,0 0.65,0.25 0.65,1.2 l 0,5.03 c 0,0.85 0,1.2 -0.55,1.2 -0.25,0 -0.35,0 -0.99,-0.6 -0.16,-0.2 -0.65,-0.65 -0.85,-0.8 -1.9,1.4 -3.94,1.4 -4.69,1.4 -6.08,0 -7.96,-3.34 -7.96,-6.13 0,-1.74 0.79,-3.14 2.13,-4.23 1.6,-1.3 2.99,-1.6 6.58,-2.3 z"
           id="path6208" /></g>    </g>
    <g
       id="g9463"
       transform="matrix(4.4558656,0,0,4.4558656,435.9091,-3582.2507)">
      <g
         word-spacing="normal"
         letter-spacing="normal"
         font-size-adjust="none"
         font-stretch="normal"
         font-weight="normal"
         font-variant="normal"
         font-style="normal"
         stroke-miterlimit="10.433"
         xml:space="preserve"
         transform="matrix(0.23031637,0,0,-0.23031637,-40.305364,882.16018)"
         id="g9465"
         style="font-style:normal;font-variant:normal;font-weight:normal;font-stretch:normal;letter-spacing:normal;word-spacing:normal;text-anchor:start;fill:none;fill-opacity:1;fill-rule:evenodd;stroke:#000000;stroke-linecap:butt;stroke-linejoin:miter;stroke-miterlimit:10.43299961;stroke-dasharray:none;stroke-dashoffset:0;stroke-opacity:1"><path
           id="path9467"
           d="m 479.11,430.36 -0.59,0 c -3.19,-2.74 -5.98,-5.83 -8.67,-8.92 l -0.3,0 c -1.25,2.84 -2.69,6.38 -4.78,8.27 -0.75,0.65 -1.7,0.75 -2.64,0.75 -2.64,0 -5.23,-2.25 -7.27,-4.04 l 0.89,-1.19 c 1,0.7 2.49,1.59 3.44,1.59 1.44,0 2.54,-1.69 3.29,-2.99 0.49,-0.85 2.34,-4.08 3.43,-6.52 -3.09,-3.09 -5.87,-6.63 -8.32,-10.11 l 0,-0.35 2.39,-1.25 0.8,0.2 c 1.45,3.29 3.49,6.48 5.83,9.27 l 0.5,0 3.34,-6.18 c 1.09,-1.69 2.24,-3.49 4.53,-3.49 3.04,0 5.78,3.24 7.47,5.73 l -0.55,0.7 -0.49,0 c -0.95,-0.95 -2.3,-1.99 -3.59,-1.99 -2.29,0 -5.23,5.62 -7.23,9.46 2.95,3.24 6.38,6.43 10.37,8.77 l 0,0.5 z"
           inkscape:connector-curvature="0"
           style="fill:#000000;stroke-width:0" /><path
           id="path9469"
           d="m 497.11,440.46 0.03,0.05 0.02,0.05 0.02,0.06 0.03,0.05 0.02,0.04 0.02,0.05 0.01,0.04 0.02,0.05 0.01,0.04 0.02,0.04 0.01,0.04 0.01,0.04 0.02,0.03 0.01,0.04 0.01,0.03 0,0.04 0.01,0.03 0.01,0.03 0,0.03 0.01,0.03 0.01,0.03 0,0.03 0,0.02 0.01,0.03 0,0.05 0,0.05 0.01,0.05 0,0.04 c 0,1.09 -0.98,1.92 -2.06,1.92 -1.33,0 -1.75,-1.08 -1.92,-1.64 l -4.6,-15.1 c -0.04,-0.07 -0.18,-0.52 -0.18,-0.55 0,-0.42 1.08,-0.77 1.37,-0.77 0.24,0 0.27,0.07 0.52,0.59 z"
           inkscape:connector-curvature="0"
           style="fill:#000000;stroke-width:0" /></g>    </g>
  </g>
  <g
     id="g6301"
     transform="matrix(0.97142694,0,0,0.97142694,778.66458,-256.42298)">
    <g
       word-spacing="normal"
       letter-spacing="normal"
       font-size-adjust="none"
       font-stretch="normal"
       font-weight="normal"
       font-variant="normal"
       font-style="normal"
       stroke-miterlimit="10.433"
       xml:space="preserve"
       transform="matrix(1.0629921,0,0,-1.0629921,-186.02362,789.27165)"
       id="g6303"
       style="font-style:normal;font-variant:normal;font-weight:normal;font-stretch:normal;letter-spacing:normal;word-spacing:normal;text-anchor:start;fill:none;fill-opacity:1;fill-rule:evenodd;stroke:#000000;stroke-linecap:butt;stroke-linejoin:miter;stroke-miterlimit:10.43299961;stroke-dasharray:none;stroke-dashoffset:0;stroke-opacity:1"><path
         id="path6305"
         d="m 479.11,464.22664 -0.59,0 c -3.19,-2.74 -5.98,-5.83 -8.67,-8.92 l -0.3,0 c -1.25,2.84 -2.69,6.38 -4.78,8.27 -0.75,0.65 -1.7,0.75 -2.64,0.75 -2.64,0 -5.23,-2.25 -7.27,-4.04 l 0.89,-1.19 c 1,0.7 2.49,1.59 3.44,1.59 1.44,0 2.54,-1.69 3.29,-2.99 0.49,-0.85 2.34,-4.08 3.43,-6.52 -3.09,-3.09 -5.87,-6.63 -8.32,-10.11 l 0,-0.35 2.39,-1.25 0.8,0.2 c 1.45,3.29 3.49,6.48 5.83,9.27 l 0.5,0 3.34,-6.18 c 1.09,-1.69 2.24,-3.49 4.53,-3.49 3.04,0 5.78,3.24 7.47,5.73 l -0.55,0.7 -0.49,0 c -0.95,-0.95 -2.3,-1.99 -3.59,-1.99 -2.29,0 -5.23,5.62 -7.23,9.46 2.95,3.24 6.38,6.43 10.37,8.77 l 0,0.5 z"
         inkscape:connector-curvature="0"
         style="fill:#000000;stroke-width:0" /></g>  </g>
  <g
     id="g6487"
     transform="translate(-229.3269,-300.8739)">
    <g
       id="g6489"
       transform="matrix(1.0629921,0,0,-1.0629921,-186.02362,789.27165)"
       xml:space="preserve"
       stroke-miterlimit="10.433"
       font-style="normal"
       font-variant="normal"
       font-weight="normal"
       font-stretch="normal"
       font-size-adjust="none"
       letter-spacing="normal"
       word-spacing="normal"
       style="font-style:normal;font-variant:normal;font-weight:normal;font-stretch:normal;letter-spacing:normal;word-spacing:normal;text-anchor:start;fill:none;fill-opacity:1;fill-rule:evenodd;stroke:#000000;stroke-linecap:butt;stroke-linejoin:miter;stroke-miterlimit:10.43299961;stroke-dasharray:none;stroke-dashoffset:0;stroke-opacity:1"><path
         d="m 468,440.52 -0.74,0.6 -9.37,-1.4 -0.44,-0.45 0,-1.09 c 2.98,-0.25 4.68,-0.7 4.68,-2.19 0,-1.5 0.1,-2.79 0.1,-4.74 l 0,-17.23 c 0,-6.68 3.73,-8.72 7.72,-8.72 4.03,0 7.67,1.8 10.61,4.29 3.33,2.84 4.78,7.02 4.78,11.16 0,4.48 -2.09,9.81 -7.87,9.81 -3.54,0 -6.68,-1.75 -9.27,-3.89 l -0.54,-2.39 c 1.64,1.2 3.68,2.59 5.82,2.59 5.29,0 5.93,-5.38 5.93,-9.01 0,-4.34 -1.54,-9.97 -7.02,-9.97 -4.14,0 -4.88,5.58 -4.88,9.72 l 0.15,6.67 0.54,2.39 -0.54,0.15 z"
         id="path6491"
         inkscape:connector-curvature="0"
         style="fill:#000000;stroke-width:0" /></g>  </g>
</svg>
