<?xml version="1.0" encoding="UTF-8" standalone="no"?>
<!-- Created with Inkscape (http://www.inkscape.org/) -->

<svg
   xmlns:osb="http://www.openswatchbook.org/uri/2009/osb"
   xmlns:dc="http://purl.org/dc/elements/1.1/"
   xmlns:cc="http://creativecommons.org/ns#"
   xmlns:rdf="http://www.w3.org/1999/02/22-rdf-syntax-ns#"
   xmlns:svg="http://www.w3.org/2000/svg"
   xmlns="http://www.w3.org/2000/svg"
   xmlns:xlink="http://www.w3.org/1999/xlink"
   xmlns:sodipodi="http://sodipodi.sourceforge.net/DTD/sodipodi-0.dtd"
   xmlns:inkscape="http://www.inkscape.org/namespaces/inkscape"
   width="412.77368mm"
   height="181.16573mm"
   viewBox="0 0 1462.5839 641.9258"
   id="svg4817"
   version="1.1"
   inkscape:version="0.91 r13725"
   sodipodi:docname="flix.svg">
  <defs
     id="defs4819">
    <linearGradient
       gradientTransform="translate(-1062.8106,23.825355)"
       gradientUnits="userSpaceOnUse"
       y2="236.66402"
       x2="362.53461"
       y1="236.66402"
       x1="338.51126"
       id="linearGradient4142-5"
       xlink:href="#linearGradient4138"
       inkscape:collect="always" />
    <linearGradient
       osb:paint="solid"
       id="linearGradient4138">
      <stop
         id="stop4140"
         offset="0"
         style="stop-color:#000000;stop-opacity:1;" />
    </linearGradient>
    <linearGradient
       gradientTransform="translate(111.51967,23.825344)"
       gradientUnits="userSpaceOnUse"
       y2="236.66402"
       x2="362.53461"
       y1="236.66402"
       x1="338.51126"
       id="linearGradient4142"
       xlink:href="#linearGradient4138"
       inkscape:collect="always" />
  </defs>
  <sodipodi:namedview
     id="base"
     pagecolor="#ffffff"
     bordercolor="#666666"
     borderopacity="1.0"
     inkscape:pageopacity="0.0"
     inkscape:pageshadow="2"
     inkscape:zoom="0.49497475"
     inkscape:cx="416.54471"
     inkscape:cy="537.70304"
     inkscape:document-units="px"
     inkscape:current-layer="g7232"
     showgrid="false"
     fit-margin-top="0"
     fit-margin-left="0"
     fit-margin-right="0"
     fit-margin-bottom="0"
     inkscape:snap-nodes="true"
     inkscape:object-paths="true"
     inkscape:snap-intersection-paths="true"
     inkscape:object-nodes="true"
     inkscape:snap-smooth-nodes="true"
     inkscape:snap-midpoints="true"
     inkscape:window-width="1920"
     inkscape:window-height="1007"
     inkscape:window-x="0"
     inkscape:window-y="27"
     inkscape:window-maximized="1" />
  <metadata
     id="metadata4822">
    <rdf:RDF>
      <cc:Work
         rdf:about="">
        <dc:format>image/svg+xml</dc:format>
        <dc:type
           rdf:resource="http://purl.org/dc/dcmitype/StillImage" />
        <dc:title></dc:title>
      </cc:Work>
    </rdf:RDF>
  </metadata>
  <g
     inkscape:label="Layer 1"
     inkscape:groupmode="layer"
     id="layer1"
     transform="translate(690.96422,-28.297048)">
    <path
       inkscape:connector-curvature="0"
       id="rect4136"
       d="m 423.65681,280.18735 124.75386,0 0,115.15736 -124.75386,0 z"
       style="fill:none;fill-opacity:1;stroke:url(#linearGradient4142);stroke-width:1.79999995;stroke-miterlimit:4;stroke-dasharray:none;stroke-dashoffset:0;stroke-opacity:1"
       sodipodi:nodetypes="ccccc" />
    <path
       style="font-style:normal;font-variant:normal;font-weight:normal;font-stretch:normal;letter-spacing:normal;word-spacing:normal;text-anchor:start;fill:#000000;fill-opacity:1;fill-rule:evenodd;stroke:#000000;stroke-width:0;stroke-linecap:butt;stroke-linejoin:miter;stroke-miterlimit:10.43299961;stroke-dasharray:none;stroke-dashoffset:0;stroke-opacity:1"
       inkscape:connector-curvature="0"
       d="m 443.49279,319.68454 0,1.637 1.27559,0 c 4.07126,0 4.18819,0.58465 4.18819,2.48741 l 0,27.90354 c 0,1.91338 -0.11693,2.49803 -4.18819,2.49803 l -1.27559,0 0,1.63701 19.38898,0 -1.43504,-1.63701 -5.34685,0 c -2.4874,0 -2.5937,-0.37205 -2.5937,-2.12598 l 0,-28.63701 c 0,-1.75394 0.1063,-2.12599 2.5937,-2.12599 l 5.2937,0 c 3.28465,0 6.94134,1.1693 9.63071,4.93229 2.28543,3.11456 2.76378,7.6748 2.76378,11.79921 0,5.87835 -1.00984,9.05669 -2.9126,11.65039 -1.06299,1.43504 -4.08189,4.50709 -9.42874,4.50709 l 1.43504,1.63701 c 8.88661,0 16.2,-7.83425 16.2,-17.79449 0,-10.05591 -7.15394,-18.3685 -16.2,-18.3685 z"
       id="path4286"
       sodipodi:nodetypes="ccssssccccssssscscccssc" />
    <path
       style="font-style:normal;font-variant:normal;font-weight:normal;font-stretch:normal;letter-spacing:normal;word-spacing:normal;text-anchor:start;fill:#000000;fill-opacity:1;fill-rule:evenodd;stroke:#000000;stroke-width:0;stroke-linecap:butt;stroke-linejoin:miter;stroke-miterlimit:10.43299961;stroke-dasharray:none;stroke-dashoffset:0;stroke-opacity:1"
       inkscape:connector-curvature="0"
       d="m 494.79279,320.8432 -0.0213,-0.0532 -0.0213,-0.0532 -0.0213,-0.0425 -0.0213,-0.0532 -0.0319,-0.0957 -0.0425,-0.085 -0.0425,-0.0744 -0.0319,-0.0744 -0.0425,-0.0744 -0.0425,-0.0638 -0.0319,-0.0638 -0.0425,-0.0532 -0.0319,-0.0425 -0.0425,-0.0531 -0.0425,-0.0319 -0.0425,-0.0425 -0.0425,-0.0319 -0.0425,-0.0319 -0.0531,-0.0213 -0.0532,-0.0213 -0.0531,-0.0213 -0.0531,-0.0213 -0.0638,-0.0106 -0.0638,-0.0106 -0.0638,-0.0106 -0.0744,-0.0106 -0.0744,0 -0.0744,-0.0106 -0.085,0 -0.085,0 -0.0957,0 -0.0957,0 -0.10629,0 -0.11693,0 -8.9504,0 0,1.637 1.27559,0 c 4.08189,0 4.17756,0.58465 4.17756,2.48741 l 0,26.47913 c 0,1.42441 0,3.92244 -5.45315,3.92244 l 0,1.63701 12.39449,0 0,-1.63701 c -5.45315,0 -5.45315,-2.49803 -5.45315,-3.92244 l 0,-28.54134 0.0531,0 12.75591,32.9315 c 0.26574,0.69094 0.53149,1.16929 1.06299,1.16929 0.58464,0 0.74409,-0.4252 0.95669,-1.00985 l 13.02165,-33.51614 0.0531,0 0,30.39095 c 0,1.91338 -0.1063,2.49803 -4.18818,2.49803 l -1.26497,0 0,1.63701 15.19016,0 0,-1.63701 -1.26496,0 c -4.08189,0 -4.17756,-0.58465 -4.17756,-2.49803 l 0,-27.90354 c 0,-1.90276 0.0957,-2.48741 4.17756,-2.48741 l 1.26496,0 0,-1.637 -8.93976,0 c -1.38189,0 -1.38189,0.0531 -1.75394,1.00984 l -11.59724,29.8063 z"
       id="path4288"
       sodipodi:nodetypes="cccccccccccccccccccccccccccccccccccccsssccccscccscccssccccssssccsccc" />
    <path
       style="font-style:normal;font-variant:normal;font-weight:normal;font-stretch:normal;letter-spacing:normal;word-spacing:normal;text-anchor:start;fill:#000000;fill-opacity:1;fill-rule:evenodd;stroke:#000000;stroke-width:0;stroke-linecap:butt;stroke-linejoin:miter;stroke-miterlimit:10.43299961;stroke-dasharray:none;stroke-dashoffset:0;stroke-opacity:1"
       inkscape:connector-curvature="0"
       id="path4156"
       d="m -649.34576,323.80895 0,-0.17008 0,-0.17008 0,-0.15945 0.0106,-0.14882 0.0106,-0.14882 0.0213,-0.13819 0.0213,-0.12756 0.0213,-0.12756 0.0319,-0.11692 0.0425,-0.1063 0.0532,-0.1063 0.0532,-0.1063 0.0638,-0.085 0.085,-0.085 0.085,-0.085 0.0957,-0.0744 0.11693,-0.0638 0.12756,-0.0638 0.0638,-0.0319 0.0744,-0.0319 0.0744,-0.0213 0.0744,-0.0319 0.085,-0.0213 0.085,-0.0213 0.085,-0.0319 0.0957,-0.0213 0.0957,-0.0106 0.1063,-0.0213 0.1063,-0.0213 0.10629,-0.0106 0.11693,-0.0213 0.11693,-0.0106 0.12756,-0.0106 0.12756,-0.0106 0.13819,-0.0106 0.13819,-0.0106 0.14882,-0.0106 0.14882,-0.0106 0.14882,-0.0106 0.15944,0 0.17008,-0.0106 0.17008,0 0.17008,0 0.18071,-0.0106 0.19134,0 0.19134,0 1.38189,0 0,-1.637 -16.15748,0 0,1.637 1.38189,0 c 4.17756,0 4.337,0.58465 4.337,2.48741 l 0,27.90354 c 0,1.91338 -0.15944,2.49803 -4.337,2.49803 l -1.38189,0 0,1.63701 16.15748,0 0,-1.63701 -1.38189,0 c -4.17756,0 -4.47518,-0.58965 -4.33701,-2.49803 z"
       sodipodi:nodetypes="cccccccccccccccccccccccccccccccccccccccccccccccccccssssccccssc" />
    <path
       style="font-style:normal;font-variant:normal;font-weight:normal;font-stretch:normal;letter-spacing:normal;word-spacing:normal;text-anchor:start;fill:#000000;fill-opacity:1;fill-rule:evenodd;stroke:#000000;stroke-width:0;stroke-linecap:butt;stroke-linejoin:miter;stroke-miterlimit:10.43299961;stroke-dasharray:none;stroke-dashoffset:0;stroke-opacity:1"
       inkscape:connector-curvature="0"
       id="path4158"
       d="m -629.37214,320.8432 -0.0213,-0.0532 -0.0213,-0.0532 -0.0213,-0.0425 -0.0213,-0.0532 -0.0319,-0.0957 -0.0425,-0.085 -0.0425,-0.0744 -0.0319,-0.0744 -0.0425,-0.0744 -0.0425,-0.0638 -0.0319,-0.0638 -0.0425,-0.0532 -0.0319,-0.0425 -0.0425,-0.0531 -0.0425,-0.0319 -0.0425,-0.0425 -0.0425,-0.0319 -0.0425,-0.0319 -0.0532,-0.0213 -0.0531,-0.0213 -0.0532,-0.0213 -0.0532,-0.0213 -0.0638,-0.0106 -0.0638,-0.0106 -0.0638,-0.0106 -0.0744,-0.0106 -0.0744,0 -0.0744,-0.0106 -0.085,0 -0.085,0 -0.0957,0 -0.0957,0 -0.1063,0 -0.11693,0 -8.95039,0 0,1.637 1.27559,0 c 4.08189,0 4.17756,0.58465 4.17756,2.48741 l 0,26.47913 c 0,1.42441 0,3.92244 -5.45315,3.92244 l 0,1.63701 12.39449,0 0,-1.63701 c -5.45315,0 -5.55373,-2.50159 -5.45315,-3.92244 l 0,-28.54134 0.0531,0 12.7559,32.9315 c 0.26575,0.69094 0.5315,1.16929 1.063,1.16929 0.58464,0 0.74409,-0.4252 0.95669,-1.00985 l 13.02165,-33.51614 0.0531,0 0,30.39095 c 0,1.91338 -0.1063,2.49803 -4.18819,2.49803 l -1.26496,0 0,1.63701 15.19016,0 0,-1.63701 -1.26496,0 c -4.08189,0 -4.17756,-0.58465 -4.17756,-2.49803 l 0,-27.90354 c 0,-1.90276 0.0957,-2.48741 4.17756,-2.48741 l 1.26496,0 0,-1.637 -8.93976,0 c -1.38189,0 -1.38189,0.0531 -1.75394,1.00984 l -11.59725,29.8063 z"
       sodipodi:nodetypes="cccccccccccccccccccccccccccccccccccccsssccccscccscccssccccssssccsccc" />
    <path
       inkscape:connector-curvature="0"
       id="rect4136-2"
       d="m -690.06422,280.18735 124.75385,0 0,115.15736 -124.75385,0 z"
       style="fill:none;fill-opacity:1;stroke:url(#linearGradient4142-5);stroke-width:1.79999995;stroke-miterlimit:4;stroke-dasharray:none;stroke-dashoffset:0;stroke-opacity:1"
       sodipodi:nodetypes="ccccc" />
    <path
       style="font-style:normal;font-variant:normal;font-weight:normal;font-stretch:normal;letter-spacing:normal;word-spacing:normal;text-anchor:start;fill:#000000;fill-opacity:1;fill-rule:evenodd;stroke:#000000;stroke-width:0;stroke-linecap:butt;stroke-linejoin:miter;stroke-miterlimit:10.43299961;stroke-dasharray:none;stroke-dashoffset:0;stroke-opacity:1"
       inkscape:connector-curvature="0"
       d="m -426.93581,332.38729 0.47834,-0.12756 0.46772,-0.12756 0.46772,-0.14882 0.45708,-0.15944 0.44646,-0.17008 0.44646,-0.18071 0.42519,-0.19134 0.4252,-0.19134 0.41457,-0.2126 0.3933,-0.22323 0.39331,-0.22322 0.37205,-0.24449 0.36142,-0.24449 0.35078,-0.25512 0.34016,-0.26575 0.3189,-0.27637 0.30827,-0.27638 0.287,-0.29764 0.27638,-0.29764 0.25512,-0.30827 0.24449,-0.30826 0.22323,-0.3189 0.20196,-0.32953 0.18071,-0.34016 0.17008,-0.34015 0.14882,-0.35079 0.11693,-0.35079 0.1063,-0.36142 0.085,-0.37204 0.0532,-0.37205 0.0425,-0.37205 0.0106,-0.38267 c 0,-5.09174 -6.0378,-9.53504 -13.8189,-9.53504 l -16.63583,0 0,1.637 1.27559,0 c 4.07126,0 4.18819,0.58465 4.18819,2.48741 l 0,27.90354 c 0,1.91338 -0.11693,2.49803 -4.18819,2.49803 l -1.27559,0 0,1.63701 15.46654,0 0,-1.63701 -1.27559,0 c -4.07126,0 -4.17756,-0.58465 -4.17756,-2.49803 l 0,-13.3937 0,-1.16929 0,-13.70197 c 0,-1.22244 0,-1.86024 1.15866,-2.01969 0.5315,-0.1063 2.07283,-0.1063 3.1252,-0.1063 4.77283,0 10.6937,0.2126 10.6937,7.89804 0,3.64606 -1.26496,7.92992 -9.09921,7.92992 l -5.87835,0 0,1.16929 6.09094,0 c 0.83977,0 3.07205,0 4.92166,1.80708 2.00905,1.90276 2.00905,3.53977 2.00905,7.09016 0,3.4441 0,5.55945 2.16851,7.56851 2.17913,1.91338 5.09173,2.23228 6.67559,2.23228 4.13504,0 5.02795,-4.34764 5.02795,-5.8252 0,-0.3189 0,-0.90354 -0.68032,-0.90354 -0.58464,0 -0.58464,0.47835 -0.63779,0.85039 -0.3189,3.75236 -2.1685,4.70906 -3.49724,4.70906 -2.59371,0 -3.0189,-2.7 -3.763,-7.62166 l -0.68031,-4.24133 c -0.95669,-3.39095 -3.5504,-5.13426 -6.46299,-6.1441 z"
       id="path4188"
       sodipodi:nodetypes="cccccccccccccccccccccccccccccccccsccssssccccssccscsssccscscssscscccc" />
    <path
       style="font-style:normal;font-variant:normal;font-weight:normal;font-stretch:normal;letter-spacing:normal;word-spacing:normal;text-anchor:start;fill:#000000;fill-opacity:1;fill-rule:evenodd;stroke:#000000;stroke-width:0;stroke-linecap:butt;stroke-linejoin:miter;stroke-miterlimit:10.43299961;stroke-dasharray:none;stroke-dashoffset:0;stroke-opacity:1"
       inkscape:connector-curvature="0"
       d="m -405.82479,338.15934 0.0532,-1.10551 c 0.3189,-7.89803 4.7622,-9.21614 6.56929,-9.21614 5.45315,0 5.98465,7.1433 5.98465,9.21614 l -12.55394,0 -0.0532,1.10551 14.77559,0 c 1.15866,0 1.31811,0 1.31811,-1.10551 0,-5.24055 -2.85945,-10.38544 -9.47126,-10.38544 -6.14409,0 -11.02323,5.46378 -11.02323,12.07559 0,7.09016 5.55945,12.23504 11.66103,12.23504 6.45236,0 8.83346,-5.87834 8.83346,-6.88819 0,-0.53149 -0.4252,-0.63779 -0.69094,-0.63779 -0.46772,0 -0.57402,0.3189 -0.68032,0.74409 -1.86024,5.45315 -6.62244,5.45315 -7.15394,5.45315 -2.64685,0 -4.7622,-1.58386 -5.98464,-3.55039 -1.58386,-2.54055 -1.58386,-6.02717 -1.58386,-7.94055 z"
       id="path4190"
       sodipodi:nodetypes="ccscccssssssscscc" />
    <path
       style="font-style:normal;font-variant:normal;font-weight:normal;font-stretch:normal;letter-spacing:normal;word-spacing:normal;text-anchor:start;fill:#000000;fill-opacity:1;fill-rule:evenodd;stroke:#000000;stroke-width:0;stroke-linecap:butt;stroke-linejoin:miter;stroke-miterlimit:10.43299961;stroke-dasharray:none;stroke-dashoffset:0;stroke-opacity:1"
       inkscape:connector-curvature="0"
       d="m -382.70471,343.35737 0,-0.0319 0,-0.0213 0,-0.0425 0,-0.0319 0,-0.0425 0.0106,-0.0532 0,-0.0532 0,-0.0531 0.0106,-0.0638 0.0106,-0.0744 0.0106,-0.0638 0.0106,-0.0744 0.0106,-0.0744 0.0106,-0.085 0.0213,-0.085 0.0213,-0.085 0.0213,-0.085 0.0213,-0.085 0.0319,-0.0957 0.0319,-0.0957 0.0319,-0.0957 0.0425,-0.0957 0.0425,-0.0957 0.0425,-0.1063 0.0532,-0.0957 0.0531,-0.1063 0.0532,-0.0957 0.0638,-0.10629 0.0638,-0.0957 0.0744,-0.1063 0.0744,-0.0957 0.085,-0.0957 c 2.06221,1.47756 4.23071,1.63701 5.24055,1.63701 l 0,-1.22244 c -4.60275,0 -4.60275,-5.29371 -4.60275,-6.51615 0,-1.42441 0.0425,-3.11456 0.83976,-4.4433 0.4252,-0.6378 1.64764,-2.11536 3.76299,-2.11536 4.60276,0 4.60276,5.2937 4.60276,6.50551 0,1.43504 -0.0531,3.13583 -0.8504,4.45394 -0.41456,0.6378 -1.637,2.11536 -3.75236,2.11536 l 0,0 0,1.22244 c 4.92166,0 8.57835,-3.6567 8.57835,-7.73859 0,-1.9559 -0.8504,-3.91181 -2.16851,-5.13425 1.90276,-1.79645 3.80552,-2.0622 4.76221,-2.0622 0.1063,0 0.37205,0 0.5315,0.0532 -0.58465,0.2126 -0.8504,0.79724 -0.8504,1.43504 0,0.89291 0.69095,1.5307 1.54134,1.5307 0.5315,0 1.53071,-0.37204 1.53071,-1.58385 0,-0.90355 -0.6378,-2.60433 -2.7,-2.60433 -1.06299,0 -3.39095,0.31889 -5.6126,2.49803 -2.22165,-1.75394 -4.44331,-1.91339 -5.6126,-1.91339 -4.92165,0 -8.57834,3.65669 -8.57834,7.72795 0,2.33859 1.16929,4.34764 2.4874,5.46378 -0.69095,0.78662 -1.64764,2.54055 -1.64764,4.39016 0,1.64764 0.69094,3.65669 2.33858,4.70906 -3.17834,0.90354 -4.8685,3.17834 -4.8685,5.2937 0,3.81614 5.24055,6.72874 11.69291,6.72874 l 0.0531,-1.21181 c -5.34685,0 -9.00354,-2.71063 -9.00354,-5.51693 0,-2.43426 2.01968,-4.39016 4.34764,-4.54961 l 3.12519,0 c 4.54961,0 10.4811,0 10.4811,4.54961 0,2.85945 -3.75236,5.51693 -8.95039,5.51693 l 0,0 -0.0531,1.21181 c 6.25039,0 11.75669,-2.7 11.75669,-6.82441 0,-1.86024 -0.73346,-4.56024 -3.44409,-6.0378 -2.79567,-1.48819 -5.86772,-1.48819 -9.09921,-1.48819 -1.32874,0 -3.60355,0 -3.97559,-0.0532 -1.69016,-0.2126 -2.8063,-1.8496 -2.8063,-3.53976 z"
       id="path4192"
       sodipodi:nodetypes="cccccccccccccccccccccccccccccccccccscssccccscscsssscsscscsccscsscccscsccc" />
    <path
       inkscape:connector-curvature="0"
       id="path4500"
       d="m -405.37832,280.18736 -62.37694,0 0,115.15735 62.37694,0"
       style="fill:none;fill-rule:evenodd;stroke:#000000;stroke-width:1.79999995;stroke-linecap:butt;stroke-linejoin:miter;stroke-miterlimit:4;stroke-dasharray:1.79999995, 5.39999986;stroke-dashoffset:0;stroke-opacity:1"
       sodipodi:nodetypes="cccc" />
    <path
       inkscape:connector-curvature="0"
       id="path4502"
       d="m -405.37832,280.18736 62.37693,0 0,115.15735 -62.37693,0"
       style="fill:none;fill-rule:evenodd;stroke:#000000;stroke-width:1.79999995;stroke-linecap:butt;stroke-linejoin:miter;stroke-miterlimit:4;stroke-dasharray:none;stroke-opacity:1"
       sodipodi:nodetypes="cccc" />
    <path
       style="font-style:normal;font-variant:normal;font-weight:normal;font-stretch:normal;letter-spacing:normal;word-spacing:normal;text-anchor:start;fill:#000000;fill-opacity:1;fill-rule:evenodd;stroke:#000000;stroke-width:0;stroke-linecap:butt;stroke-linejoin:miter;stroke-miterlimit:10.43299961;stroke-dasharray:none;stroke-dashoffset:0;stroke-opacity:1"
       inkscape:connector-curvature="0"
       d="m 686.78524,332.38729 0.47834,-0.12756 0.46772,-0.12756 0.46772,-0.14882 0.45708,-0.15944 0.44646,-0.17008 0.44646,-0.18071 0.42519,-0.19134 0.4252,-0.19134 0.41457,-0.2126 0.3933,-0.22323 0.39331,-0.22322 0.37205,-0.24449 0.36142,-0.24449 0.35078,-0.25512 0.34016,-0.26575 0.3189,-0.27637 0.30827,-0.27638 0.287,-0.29764 0.27638,-0.29764 0.25512,-0.30827 0.24449,-0.30826 0.22323,-0.3189 0.20196,-0.32953 0.18071,-0.34016 0.17008,-0.34015 0.14882,-0.35079 0.11693,-0.35079 0.1063,-0.36142 0.085,-0.37204 0.0532,-0.37205 0.0425,-0.37205 0.0106,-0.38267 c 0,-5.09174 -6.0378,-9.53504 -13.8189,-9.53504 l -16.63583,0 0,1.637 1.27559,0 c 4.07126,0 4.18819,0.58465 4.18819,2.48741 l 0,27.90354 c 0,1.91338 -0.11693,2.49803 -4.18819,2.49803 l -1.27559,0 0,1.63701 15.46654,0 0,-1.63701 -1.27559,0 c -4.07126,0 -4.17756,-0.58465 -4.17756,-2.49803 l 0,-13.3937 0,-1.16929 0,-13.70197 c 0,-1.22244 0,-1.86024 1.15866,-2.01969 0.5315,-0.1063 2.07284,-0.1063 3.1252,-0.1063 4.77283,0 10.6937,0.2126 10.6937,7.89804 0,3.64606 -1.26496,7.92992 -9.09921,7.92992 l -5.87835,0 0,1.16929 6.09094,0 c 0.83977,0 3.07205,0 4.92166,1.80708 2.00905,1.90276 2.00905,3.53977 2.00905,7.09016 0,3.4441 0,5.55945 2.16851,7.56851 2.17913,1.91338 5.09173,2.23228 6.67559,2.23228 4.13504,0 5.02795,-4.34764 5.02795,-5.8252 0,-0.3189 0,-0.90354 -0.68032,-0.90354 -0.58464,0 -0.58464,0.47835 -0.63779,0.85039 -0.3189,3.75236 -2.1685,4.70906 -3.49724,4.70906 -2.59371,0 -3.0189,-2.7 -3.763,-7.62166 l -0.68031,-4.24133 c -0.95669,-3.39095 -3.5504,-5.13426 -6.46299,-6.1441 z"
       id="path4188-3"
       sodipodi:nodetypes="cccccccccccccccccccccccccccccccccsccssssccccssccscsssccscscssscscccc" />
    <path
       style="font-style:normal;font-variant:normal;font-weight:normal;font-stretch:normal;letter-spacing:normal;word-spacing:normal;text-anchor:start;fill:#000000;fill-opacity:1;fill-rule:evenodd;stroke:#000000;stroke-width:0;stroke-linecap:butt;stroke-linejoin:miter;stroke-miterlimit:10.43299961;stroke-dasharray:none;stroke-dashoffset:0;stroke-opacity:1"
       inkscape:connector-curvature="0"
       d="m 707.89626,338.15934 0.0531,-1.10551 c 0.3189,-7.89803 4.7622,-9.21614 6.56929,-9.21614 5.45315,0 5.98465,7.1433 5.98465,9.21614 l -12.55394,0 -0.0531,1.10551 14.77559,0 c 1.15866,0 1.31811,0 1.31811,-1.10551 0,-5.24055 -2.85945,-10.38544 -9.47126,-10.38544 -6.14409,0 -11.02323,5.46378 -11.02323,12.07559 0,7.09016 5.55945,12.23504 11.66103,12.23504 6.45236,0 8.83346,-5.87834 8.83346,-6.88819 0,-0.53149 -0.4252,-0.63779 -0.69094,-0.63779 -0.46772,0 -0.57402,0.3189 -0.68032,0.74409 -1.86024,5.45315 -6.62244,5.45315 -7.15394,5.45315 -2.64685,0 -4.7622,-1.58386 -5.98464,-3.55039 -1.58386,-2.54055 -1.58386,-6.02717 -1.58386,-7.94055 z"
       id="path4190-6"
       sodipodi:nodetypes="ccscccssssssscscc" />
    <path
       style="font-style:normal;font-variant:normal;font-weight:normal;font-stretch:normal;letter-spacing:normal;word-spacing:normal;text-anchor:start;fill:#000000;fill-opacity:1;fill-rule:evenodd;stroke:#000000;stroke-width:0;stroke-linecap:butt;stroke-linejoin:miter;stroke-miterlimit:10.43299961;stroke-dasharray:none;stroke-dashoffset:0;stroke-opacity:1"
       inkscape:connector-curvature="0"
       d="m 731.01634,343.35737 0,-0.0319 0,-0.0213 0,-0.0425 0,-0.0319 0,-0.0425 0.0106,-0.0532 0,-0.0532 0,-0.0531 0.0106,-0.0638 0.0106,-0.0744 0.0106,-0.0638 0.0106,-0.0744 0.0106,-0.0744 0.0106,-0.085 0.0213,-0.085 0.0213,-0.085 0.0213,-0.085 0.0213,-0.085 0.0319,-0.0957 0.0319,-0.0957 0.0319,-0.0957 0.0425,-0.0957 0.0425,-0.0957 0.0425,-0.1063 0.0532,-0.0957 0.0531,-0.1063 0.0531,-0.0957 0.0638,-0.10629 0.0638,-0.0957 0.0744,-0.1063 0.0744,-0.0957 0.085,-0.0957 c 2.06221,1.47756 4.23071,1.63701 5.24055,1.63701 l 0,-1.22244 c -4.60275,0 -4.60275,-5.29371 -4.60275,-6.51615 0,-1.42441 0.0425,-3.11456 0.83976,-4.4433 0.4252,-0.6378 1.64764,-2.11536 3.76299,-2.11536 4.60276,0 4.60276,5.2937 4.60276,6.50551 0,1.43504 -0.0531,3.13583 -0.8504,4.45394 -0.41456,0.6378 -1.637,2.11536 -3.75236,2.11536 l 0,0 0,1.22244 c 4.92166,0 8.57835,-3.6567 8.57835,-7.73859 0,-1.9559 -0.8504,-3.91181 -2.16851,-5.13425 1.90276,-1.79645 3.80552,-2.0622 4.76221,-2.0622 0.1063,0 0.37205,0 0.5315,0.0532 -0.58465,0.2126 -0.8504,0.79724 -0.8504,1.43504 0,0.89291 0.69095,1.5307 1.54134,1.5307 0.5315,0 1.53071,-0.37204 1.53071,-1.58385 0,-0.90355 -0.6378,-2.60433 -2.7,-2.60433 -1.06299,0 -3.39095,0.31889 -5.6126,2.49803 -2.22165,-1.75394 -4.44331,-1.91339 -5.6126,-1.91339 -4.92165,0 -8.57834,3.65669 -8.57834,7.72795 0,2.33859 1.16929,4.34764 2.4874,5.46378 -0.69095,0.78662 -1.64764,2.54055 -1.64764,4.39016 0,1.64764 0.69094,3.65669 2.33858,4.70906 -3.17834,0.90354 -4.8685,3.17834 -4.8685,5.2937 0,3.81614 5.24055,6.72874 11.69291,6.72874 l 0.0531,-1.21181 c -5.34685,0 -9.00354,-2.71063 -9.00354,-5.51693 0,-2.43426 2.01968,-4.39016 4.34764,-4.54961 l 3.12519,0 c 4.54961,0 10.4811,0 10.4811,4.54961 0,2.85945 -3.75236,5.51693 -8.95039,5.51693 l 0,0 -0.0531,1.21181 c 6.25039,0 11.75669,-2.7 11.75669,-6.82441 0,-1.86024 -0.73346,-4.56024 -3.44409,-6.0378 -2.79567,-1.48819 -5.86772,-1.48819 -9.09921,-1.48819 -1.32874,0 -3.60355,0 -3.97559,-0.0532 -1.69016,-0.2126 -2.8063,-1.8496 -2.8063,-3.53976 z"
       id="path4192-0"
       sodipodi:nodetypes="cccccccccccccccccccccccccccccccccccscssccccscscsssscsscscsccscsscccscsccc" />
    <path
       inkscape:connector-curvature="0"
       id="path4500-2"
       d="m 708.34268,280.18735 62.37698,0 0,115.15735 -62.37698,0"
       style="fill:none;fill-rule:evenodd;stroke:#000000;stroke-width:1.79999995;stroke-linecap:butt;stroke-linejoin:miter;stroke-miterlimit:4;stroke-dasharray:1.79999995, 5.39999986;stroke-dashoffset:0;stroke-opacity:1"
       sodipodi:nodetypes="cccc" />
    <path
       inkscape:connector-curvature="0"
       id="path4502-6"
       d="m 708.34268,280.18735 -62.3769,0 0,115.15735 62.3769,0"
       style="fill:none;fill-rule:evenodd;stroke:#000000;stroke-width:1.79999995;stroke-linecap:butt;stroke-linejoin:miter;stroke-miterlimit:4;stroke-dasharray:none;stroke-opacity:1"
       sodipodi:nodetypes="cccc" />
    <path
       inkscape:connector-curvature="0"
       id="path4590"
       d="m -565.55021,337.76602 97.6151,10e-6"
       style="fill:none;fill-rule:evenodd;stroke:#000000;stroke-width:1.70000017;stroke-linecap:butt;stroke-linejoin:miter;stroke-miterlimit:4;stroke-dasharray:none;stroke-opacity:1"
       sodipodi:nodetypes="cc" />
    <path
       inkscape:connector-curvature="0"
       id="path4592"
       d="m -318.61499,296.696 -24.56625,0"
       style="fill:none;fill-rule:evenodd;stroke:#000000;stroke-width:1.70000017;stroke-linecap:butt;stroke-linejoin:miter;stroke-miterlimit:4;stroke-dasharray:none;stroke-opacity:1"
       sodipodi:nodetypes="cc" />
    <path
       sodipodi:nodetypes="ccccc"
       inkscape:connector-curvature="0"
       id="path4594"
       d="m -318.61499,378.83889 -10.97454,0 -16.24978,50.50668 -143.61577,0 0,-91.57954"
       style="fill:none;fill-rule:evenodd;stroke:#000000;stroke-width:1.70000017;stroke-linecap:butt;stroke-linejoin:miter;stroke-miterlimit:4;stroke-dasharray:none;stroke-opacity:1" />
    <path
       inkscape:connector-curvature="0"
       id="path4604"
       d="m 548.27866,337.76602 97.68716,0"
       style="fill:none;fill-rule:evenodd;stroke:#000000;stroke-width:1.70000017;stroke-linecap:butt;stroke-linejoin:miter;stroke-miterlimit:4;stroke-dasharray:none;stroke-opacity:1"
       sodipodi:nodetypes="cc" />
    <path
       sodipodi:nodetypes="ccccc"
       inkscape:connector-curvature="0"
       id="path4610"
       d="m 408.2918,337.76602 0,91.57955 153.89344,0 0,-55.15439 13.11844,0.0543"
       style="fill:none;fill-rule:evenodd;stroke:#000000;stroke-width:1.70000017;stroke-linecap:butt;stroke-linejoin:miter;stroke-miterlimit:4;stroke-dasharray:none;stroke-opacity:1" />
    <path
       style="fill:#b3b3b3;fill-opacity:1;stroke:#000000;stroke-width:1.79999995;stroke-miterlimit:4;stroke-dasharray:none;stroke-dashoffset:0;stroke-opacity:1"
       d="m -533.66126,208.618 34.2569,0 0,273.2027 -34.2569,0 z"
       id="rect7171"
       inkscape:connector-curvature="0"
       sodipodi:nodetypes="ccccc" />
    <path
       inkscape:connector-curvature="0"
       id="path7196"
       d="m -533.66127,417.25957 12.73655,12.73655 -12.73657,12.73657"
       style="fill:none;fill-rule:evenodd;stroke:#000000;stroke-width:1.70000017;stroke-linecap:butt;stroke-linejoin:miter;stroke-miterlimit:4;stroke-dasharray:none;stroke-opacity:1"
       sodipodi:nodetypes="ccc" />
    <path
       style="fill:#b3b3b3;fill-opacity:1;stroke:#000000;stroke-width:1.79999995;stroke-miterlimit:4;stroke-dasharray:none;stroke-dashoffset:0;stroke-opacity:1"
       d="m -318.61499,93.46061 34.2569,0 0,505.96852 -34.2569,0 z"
       id="rect7171-5"
       inkscape:connector-curvature="0"
       sodipodi:nodetypes="ccccc" />
    <path
       inkscape:connector-curvature="0"
       id="path7196-9"
       d="m -318.615,417.25957 12.73655,12.73655 -12.73657,12.73657"
       style="fill:none;fill-rule:evenodd;stroke:#000000;stroke-width:1.70000017;stroke-linecap:butt;stroke-linejoin:miter;stroke-miterlimit:4;stroke-dasharray:none;stroke-opacity:1"
       sodipodi:nodetypes="ccc" />
    <path
       style="fill:#b3b3b3;fill-opacity:1;stroke:#000000;stroke-width:1.79999995;stroke-miterlimit:4;stroke-dasharray:none;stroke-dashoffset:0;stroke-opacity:1"
       d="m 360.25741,93.46061 34.2569,0 0,505.96852 -34.2569,0 z"
       id="rect7171-2"
       inkscape:connector-curvature="0"
       sodipodi:nodetypes="ccccc" />
    <path
       inkscape:connector-curvature="0"
       id="path7196-8"
       d="m 360.2574,417.25957 12.73655,12.73655 -12.73657,12.73657"
       style="fill:none;fill-rule:evenodd;stroke:#000000;stroke-width:1.70000017;stroke-linecap:butt;stroke-linejoin:miter;stroke-miterlimit:4;stroke-dasharray:none;stroke-opacity:1"
       sodipodi:nodetypes="ccc" />
    <path
       style="fill:#b3b3b3;fill-opacity:1;stroke:#000000;stroke-width:1.79999995;stroke-miterlimit:4;stroke-dasharray:none;stroke-dashoffset:0;stroke-opacity:1"
       d="m 575.30369,208.618 34.2569,0 0,273.2027 -34.2569,0 z"
       id="rect7171-7"
       inkscape:connector-curvature="0"
       sodipodi:nodetypes="ccccc" />
    <path
       inkscape:connector-curvature="0"
       id="path7196-3"
       d="m 575.30368,417.25957 12.73655,12.73655 -12.73657,12.73657"
       style="fill:none;fill-rule:evenodd;stroke:#000000;stroke-width:1.70000017;stroke-linecap:butt;stroke-linejoin:miter;stroke-miterlimit:4;stroke-dasharray:none;stroke-opacity:1"
       sodipodi:nodetypes="ccc" />
    <path
       inkscape:connector-curvature="0"
       id="path4596-3-1"
       d="m -480.70285,337.76604 0,-24.58675 12.76774,0"
       style="fill:none;fill-rule:evenodd;stroke:#000000;stroke-width:1.70000017;stroke-linecap:butt;stroke-linejoin:miter;stroke-miterlimit:4;stroke-dasharray:none;stroke-opacity:1"
       sodipodi:nodetypes="ccc" />
    <path
       style="fill:none;fill-rule:evenodd;stroke:#000000;stroke-width:1.70000005;stroke-linecap:butt;stroke-linejoin:miter;stroke-miterlimit:4;stroke-dasharray:none;stroke-opacity:1"
       d="m 394.51431,337.76602 29.1425,0"
       id="path7016"
       inkscape:connector-curvature="0"
       sodipodi:nodetypes="cc" />
    <g
       id="g7232"
       transform="translate(-90.913729,1.840973)">
      <path
         sodipodi:nodetypes="cccccccccccccccccccccccccccccccccsccccccscccccccccsccccscc"
         d="m 328.1954,568.61239 -0.0638,0.0213 -0.0638,0.0213 -0.0532,0.0213 -0.0638,0.0213 -0.0532,0.0213 -0.0532,0.0213 -0.0532,0.0319 -0.0531,0.0213 -0.0425,0.0213 -0.0532,0.0213 -0.0425,0.0213 -0.0425,0.0319 -0.0425,0.0213 -0.0319,0.0319 -0.0425,0.0213 -0.0319,0.0319 -0.0319,0.0319 -0.0319,0.0319 -0.0319,0.0425 -0.0213,0.0319 -0.0319,0.0425 -0.0213,0.0425 -0.0213,0.0425 -0.0106,0.0532 -0.0213,0.0531 -0.0106,0.0532 -0.0106,0.0532 -0.0106,0.0638 -0.0106,0.0638 0,0.0744 -0.0106,0.0744 0,0.0319 0,0.0425 c 0,0.85039 0.3189,1.00984 1.06299,1.27559 l 31.66654,10.95945 c 2.7,0.94606 3.49724,3.06142 3.55039,5.93149 l 1.63701,0 0,-11.49094 -1.63701,0 c 0,2.64685 -1.32874,3.96496 -2.71063,3.96496 -0.14882,0 -0.68032,-0.0532 -0.78661,-0.1063 l -6.94134,-2.43425 -1.63701,-0.58465 -17.20984,-5.92086 17.20984,-5.98465 0,11.90551 1.63701,0.58465 0,-13.0748 8.11063,-2.8063 c 0.20197,-0.0532 0.52086,-0.15945 0.73346,-0.15945 1.59449,0 1.59449,2.96575 1.59449,4.39016 l 1.63701,0 0,-14.55237 -1.63701,0 0,0.94607 c 0,3.17834 -0.37205,3.92244 -2.12598,4.49645 z"
         id="path4232"
         inkscape:connector-curvature="0"
         style="font-style:normal;font-variant:normal;font-weight:normal;font-stretch:normal;letter-spacing:normal;word-spacing:normal;text-anchor:start;fill:#000000;fill-opacity:1;fill-rule:evenodd;stroke:#000000;stroke-width:0;stroke-linecap:butt;stroke-linejoin:miter;stroke-miterlimit:10.43299961;stroke-dasharray:none;stroke-dashoffset:0;stroke-opacity:1" />
      <path
         sodipodi:nodetypes="ccsssssccccsssscccc"
         d="m 351.38989,519.53404 0,1.31811 c 5.4,0.58465 12.02244,1.32874 12.02244,10.65118 l 0,4.33701 c 0,2.4874 -0.37205,2.5937 -2.12598,2.5937 l -28.22244,0 c -1.79646,0 -2.54056,0 -2.54056,-5.02795 l 0,-1.75394 -1.637,0 0,16.95473 1.637,0 0,-1.27559 c 0,-4.08189 0.58465,-4.17756 2.48741,-4.17756 l 27.90354,0 c 1.91338,0 2.49803,0.0957 2.49803,4.17756 l 0,1.27559 1.63701,0 0,-27.59528 z"
         id="path4234"
         inkscape:connector-curvature="0"
         style="font-style:normal;font-variant:normal;font-weight:normal;font-stretch:normal;letter-spacing:normal;word-spacing:normal;text-anchor:start;fill:#000000;fill-opacity:1;fill-rule:evenodd;stroke:#000000;stroke-width:0;stroke-linecap:butt;stroke-linejoin:miter;stroke-miterlimit:10.43299961;stroke-dasharray:none;stroke-dashoffset:0;stroke-opacity:1" />
      <path
         sodipodi:nodetypes="cccccccccccccccccccccccccccccccccsssccccsssscssccccsc"
         d="m 352.8143,486.58129 0.70157,0.0106 0.66969,0.0425 0.65905,0.0744 0.6378,0.0957 0.61653,0.12756 0.59528,0.15944 0.57402,0.17008 0.55275,0.20197 0.54213,0.2126 0.51023,0.24449 0.49961,0.26575 0.46772,0.287 0.44645,0.29764 0.43583,0.3189 0.40394,0.34016 0.38267,0.35078 0.37205,0.36142 0.34016,0.38268 0.3189,0.39331 0.29763,0.40393 0.26575,0.41457 0.25512,0.4252 0.23386,0.43582 0.20197,0.43583 0.18071,0.44646 0.15944,0.45708 0.12756,0.46772 0.11693,0.45709 0.085,0.46771 0.0531,0.47835 0.0425,0.46772 0.0106,0.46771 c 0,2.4874 -1.32874,8.7378 -11.38464,8.7378 l -20.17559,0 c -1.90276,0 -2.48741,-0.1063 -2.48741,-4.18819 l 0,-1.26496 -1.637,0 0,15.61535 1.637,0 0,-1.26496 c 0,-4.08189 0.58465,-4.17756 2.48741,-4.17756 l 19.96299,0 c 7.47283,0 13.24488,-6.14409 13.24488,-13.35118 0,-6.08031 -4.93228,-10.85315 -10.95945,-11.75669 -1.06299,-0.14882 -1.54134,-0.14882 -3.65669,-0.14882 l -16.9441,0 c -1.75393,0 -4.13504,0 -4.13504,-5.46378 l -1.637,0 0,12.55394 1.637,0 c 0,-5.45315 2.48741,-5.45315 3.92244,-5.45315 z"
         id="path4236"
         inkscape:connector-curvature="0"
         style="font-style:normal;font-variant:normal;font-weight:normal;font-stretch:normal;letter-spacing:normal;word-spacing:normal;text-anchor:start;fill:#000000;fill-opacity:1;fill-rule:evenodd;stroke:#000000;stroke-width:0;stroke-linecap:butt;stroke-linejoin:miter;stroke-miterlimit:10.43299961;stroke-dasharray:none;stroke-dashoffset:0;stroke-opacity:1" />
      <path
         sodipodi:nodetypes="cccccccc"
         style="fill:none;fill-rule:evenodd;stroke:#000000;stroke-width:1.70000005;stroke-linecap:butt;stroke-linejoin:miter;stroke-miterlimit:4;stroke-dasharray:none;stroke-opacity:1"
         d="m 281.80335,412.01366 107.82187,57.19676 0,129.29953 -107.82187,56.95047 0,-80.65194 35.21419,-41.0714 -35.21419,-41.07149 z"
         id="path4354"
         inkscape:connector-curvature="0" />
      <path
         style="fill:none;fill-rule:evenodd;stroke:#000000;stroke-width:1.70000005;stroke-linecap:butt;stroke-linejoin:miter;stroke-miterlimit:4;stroke-dasharray:none;stroke-opacity:1"
         d="m 451.17114,533.73561 -62.07605,0"
         id="path4598"
         inkscape:connector-curvature="0"
         sodipodi:nodetypes="cc" />
      <path
         style="fill:none;fill-rule:evenodd;stroke:#000000;stroke-width:1.70000017;stroke-linecap:butt;stroke-linejoin:miter;stroke-miterlimit:4;stroke-dasharray:none;stroke-opacity:1"
         d="m 261.21715,574.80848 0,92.72342 132.5801,0 4.51675,0 0,-74.53319 15.8795,-59.2631"
         id="path4602"
         inkscape:connector-curvature="0"
         sodipodi:nodetypes="cccccc" />
      <path
         sodipodi:nodetypes="cc"
         inkscape:connector-curvature="0"
         id="path7018"
         d="m 281.80335,574.80848 -475.24771,0"
         style="fill:none;fill-rule:evenodd;stroke:#000000;stroke-width:1px;stroke-linecap:butt;stroke-linejoin:miter;stroke-opacity:1" />
      <path
         sodipodi:nodetypes="cc"
         inkscape:connector-curvature="0"
         id="path7020"
         d="m 281.80335,492.66559 -475.24771,0"
         style="fill:none;fill-rule:evenodd;stroke:#000000;stroke-width:1px;stroke-linecap:butt;stroke-linejoin:miter;stroke-opacity:1" />
      <path
         sodipodi:nodetypes="cccccccc"
         style="fill:none;fill-rule:evenodd;stroke:#000000;stroke-width:1.70000005;stroke-linecap:butt;stroke-linejoin:miter;stroke-miterlimit:4;stroke-dasharray:none;stroke-opacity:1"
         d="m 76.756486,215.9008 107.821874,57.19676 0,129.29953 -107.821874,56.95047 0,-80.65194 35.214194,-41.0714 -35.214194,-41.07149 z"
         id="path4354-9"
         inkscape:connector-curvature="0" />
      <path
         sodipodi:nodetypes="cccccccccccccccccccccccccccccccccsccccccscccccccccsccccscc"
         d="m 123.14854,372.49953 -0.0638,0.0213 -0.0638,0.0213 -0.0532,0.0213 -0.0638,0.0213 -0.0532,0.0213 -0.0532,0.0213 -0.0532,0.0319 -0.0531,0.0213 -0.0425,0.0213 -0.0532,0.0213 -0.0425,0.0213 -0.0425,0.0319 -0.0425,0.0213 -0.0319,0.0319 -0.0425,0.0213 -0.0319,0.0319 -0.0319,0.0319 -0.0319,0.0319 -0.0319,0.0425 -0.0213,0.0319 -0.0319,0.0425 -0.0213,0.0425 -0.0213,0.0425 -0.0106,0.0532 -0.0213,0.0531 -0.0106,0.0532 -0.0106,0.0532 -0.0106,0.0638 -0.0106,0.0638 0,0.0744 -0.0106,0.0744 0,0.0319 0,0.0425 c 0,0.85039 0.3189,1.00984 1.06299,1.27559 l 31.66654,10.95945 c 2.7,0.94606 3.49724,3.06142 3.55039,5.93149 l 1.63701,0 0,-11.49094 -1.63701,0 c 0,2.64685 -1.32874,3.96496 -2.71063,3.96496 -0.14882,0 -0.68032,-0.0532 -0.78661,-0.1063 l -6.94134,-2.43425 -1.63701,-0.58465 -17.20984,-5.92086 17.20984,-5.98465 0,11.90551 1.63701,0.58465 0,-13.0748 8.11063,-2.8063 c 0.20197,-0.0532 0.52086,-0.15945 0.73346,-0.15945 1.59449,0 1.59449,2.96575 1.59449,4.39016 l 1.63701,0 0,-14.55237 -1.63701,0 0,0.94607 c 0,3.17834 -0.37205,3.92244 -2.12598,4.49645 z"
         id="path4232-2"
         inkscape:connector-curvature="0"
         style="font-style:normal;font-variant:normal;font-weight:normal;font-stretch:normal;letter-spacing:normal;word-spacing:normal;text-anchor:start;fill:#000000;fill-opacity:1;fill-rule:evenodd;stroke:#000000;stroke-width:0;stroke-linecap:butt;stroke-linejoin:miter;stroke-miterlimit:10.43299961;stroke-dasharray:none;stroke-dashoffset:0;stroke-opacity:1" />
      <path
         sodipodi:nodetypes="ccsssssccccsssscccc"
         d="m 146.34303,323.42118 0,1.31811 c 5.4,0.58465 12.02244,1.32874 12.02244,10.65118 l 0,4.33701 c 0,2.4874 -0.37205,2.5937 -2.12598,2.5937 l -28.22244,0 c -1.79646,0 -2.54056,0 -2.54056,-5.02795 l 0,-1.75394 -1.637,0 0,16.95473 1.637,0 0,-1.27559 c 0,-4.08189 0.58465,-4.17756 2.48741,-4.17756 l 27.90354,0 c 1.91338,0 2.49803,0.0957 2.49803,4.17756 l 0,1.27559 1.63701,0 0,-27.59528 z"
         id="path4234-7"
         inkscape:connector-curvature="0"
         style="font-style:normal;font-variant:normal;font-weight:normal;font-stretch:normal;letter-spacing:normal;word-spacing:normal;text-anchor:start;fill:#000000;fill-opacity:1;fill-rule:evenodd;stroke:#000000;stroke-width:0;stroke-linecap:butt;stroke-linejoin:miter;stroke-miterlimit:10.43299961;stroke-dasharray:none;stroke-dashoffset:0;stroke-opacity:1" />
      <path
         sodipodi:nodetypes="cccccccccccccccccccccccccccccccccsssccccsssscssccccsc"
         d="m 147.76744,290.46843 0.70157,0.0106 0.66969,0.0425 0.65905,0.0744 0.6378,0.0957 0.61653,0.12756 0.59528,0.15944 0.57402,0.17008 0.55275,0.20197 0.54213,0.2126 0.51023,0.24449 0.49961,0.26575 0.46772,0.287 0.44645,0.29764 0.43583,0.3189 0.40394,0.34016 0.38267,0.35078 0.37205,0.36142 0.34016,0.38268 0.3189,0.39331 0.29763,0.40393 0.26575,0.41457 0.25512,0.4252 0.23386,0.43582 0.20197,0.43583 0.18071,0.44646 0.15944,0.45708 0.12756,0.46772 0.11693,0.45709 0.085,0.46771 0.0531,0.47835 0.0425,0.46772 0.0106,0.46771 c 0,2.4874 -1.32874,8.7378 -11.38464,8.7378 l -20.17559,0 c -1.90276,0 -2.48741,-0.1063 -2.48741,-4.18819 l 0,-1.26496 -1.637,0 0,15.61535 1.637,0 0,-1.26496 c 0,-4.08189 0.58465,-4.17756 2.48741,-4.17756 l 19.96299,0 c 7.47283,0 13.24488,-6.14409 13.24488,-13.35118 0,-6.08031 -4.93228,-10.85315 -10.95945,-11.75669 -1.06299,-0.14882 -1.54134,-0.14882 -3.65669,-0.14882 l -16.9441,0 c -1.75393,0 -4.13504,0 -4.13504,-5.46378 l -1.637,0 0,12.55394 1.637,0 c 0,-5.45315 2.48741,-5.45315 3.92244,-5.45315 z"
         id="path4236-0"
         inkscape:connector-curvature="0"
         style="font-style:normal;font-variant:normal;font-weight:normal;font-stretch:normal;letter-spacing:normal;word-spacing:normal;text-anchor:start;fill:#000000;fill-opacity:1;fill-rule:evenodd;stroke:#000000;stroke-width:0;stroke-linecap:butt;stroke-linejoin:miter;stroke-miterlimit:10.43299961;stroke-dasharray:none;stroke-dashoffset:0;stroke-opacity:1" />
      <path
         style="fill:none;fill-rule:evenodd;stroke:#000000;stroke-width:1.70000005;stroke-linecap:butt;stroke-linejoin:miter;stroke-miterlimit:4;stroke-dasharray:none;stroke-opacity:1"
         d="m 451.17114,337.62275 -267.12291,0"
         id="path4598-3"
         inkscape:connector-curvature="0"
         sodipodi:nodetypes="cc" />
      <path
         style="fill:none;fill-rule:evenodd;stroke:#000000;stroke-width:1.70000017;stroke-linecap:butt;stroke-linejoin:miter;stroke-miterlimit:4;stroke-dasharray:none;stroke-opacity:1"
         d="m 56.170286,378.69562 0,92.72342 132.580104,0 4.51675,0 0,-74.53319 15.8795,-59.2631"
         id="path4602-6"
         inkscape:connector-curvature="0"
         sodipodi:nodetypes="cccccc" />
      <path
         sodipodi:nodetypes="cc"
         inkscape:connector-curvature="0"
         id="path7018-0"
         d="m 76.756486,378.69562 -270.200846,0"
         style="fill:none;fill-rule:evenodd;stroke:#000000;stroke-width:1px;stroke-linecap:butt;stroke-linejoin:miter;stroke-opacity:1" />
      <path
         sodipodi:nodetypes="cc"
         inkscape:connector-curvature="0"
         id="path7020-6"
         d="m 76.756486,296.55273 -270.200846,0"
         style="fill:none;fill-rule:evenodd;stroke:#000000;stroke-width:1px;stroke-linecap:butt;stroke-linejoin:miter;stroke-opacity:1" />
      <path
         sodipodi:nodetypes="cccccccccccccccccccccccccccccccccsccccccscccccccccsccccscc"
         d="m -87.973345,184.4679 -0.0638,0.0213 -0.0638,0.0213 -0.0532,0.0213 -0.0638,0.0213 -0.0532,0.0213 -0.0532,0.0213 -0.0532,0.0319 -0.0531,0.0213 -0.0425,0.0213 -0.0532,0.0213 -0.0425,0.0213 -0.0425,0.0319 -0.0425,0.0213 -0.0319,0.0319 -0.0425,0.0213 -0.0319,0.0319 -0.0319,0.0319 -0.0319,0.0319 -0.0319,0.0425 -0.0213,0.0319 -0.0319,0.0425 -0.0213,0.0425 -0.0213,0.0425 -0.0106,0.0532 -0.0213,0.0531 -0.0106,0.0532 -0.0106,0.0532 -0.0106,0.0638 -0.0106,0.0638 0,0.0744 -0.0106,0.0744 0,0.0319 0,0.0425 c 0,0.85039 0.3189,1.00984 1.06299,1.27559 l 31.66654,10.95945 c 2.7,0.94606 3.49724,3.06142 3.55039,5.93149 l 1.63701,0 0,-11.49094 -1.63701,0 c 0,2.64685 -1.32874,3.96496 -2.71063,3.96496 -0.14882,0 -0.68032,-0.0532 -0.78661,-0.1063 l -6.94134,-2.43425 -1.63701,-0.58465 -17.20984,-5.92086 17.20984,-5.98465 0,11.90551 1.63701,0.58465 0,-13.0748 8.11063,-2.8063 c 0.20197,-0.0532 0.52086,-0.15945 0.73346,-0.15945 1.59449,0 1.59449,2.96575 1.59449,4.39016 l 1.63701,0 0,-14.55237 -1.63701,0 0,0.94607 c 0,3.17834 -0.37205,3.92244 -2.12598,4.49645 z"
         id="path4232-2-9"
         inkscape:connector-curvature="0"
         style="font-style:normal;font-variant:normal;font-weight:normal;font-stretch:normal;letter-spacing:normal;word-spacing:normal;text-anchor:start;fill:#000000;fill-opacity:1;fill-rule:evenodd;stroke:#000000;stroke-width:0;stroke-linecap:butt;stroke-linejoin:miter;stroke-miterlimit:10.43299961;stroke-dasharray:none;stroke-dashoffset:0;stroke-opacity:1" />
      <path
         sodipodi:nodetypes="ccsssssccccsssscccc"
         d="m -64.778855,135.38955 0,1.31811 c 5.4,0.58465 12.02244,1.32874 12.02244,10.65118 l 0,4.33701 c 0,2.4874 -0.37205,2.5937 -2.12598,2.5937 l -28.22244,0 c -1.79646,0 -2.54056,0 -2.54056,-5.02795 l 0,-1.75394 -1.637,0 0,16.95473 1.637,0 0,-1.27559 c 0,-4.08189 0.58465,-4.17756 2.48741,-4.17756 l 27.90354,0 c 1.91338,0 2.49803,0.0957 2.49803,4.17756 l 0,1.27559 1.63701,0 0,-27.59528 z"
         id="path4234-7-7"
         inkscape:connector-curvature="0"
         style="font-style:normal;font-variant:normal;font-weight:normal;font-stretch:normal;letter-spacing:normal;word-spacing:normal;text-anchor:start;fill:#000000;fill-opacity:1;fill-rule:evenodd;stroke:#000000;stroke-width:0;stroke-linecap:butt;stroke-linejoin:miter;stroke-miterlimit:10.43299961;stroke-dasharray:none;stroke-dashoffset:0;stroke-opacity:1" />
      <path
         sodipodi:nodetypes="cccccccccccccccccccccccccccccccccsssccccsssscssccccsc"
         d="m -63.354445,102.4368 0.70157,0.0106 0.66969,0.0425 0.65905,0.0744 0.6378,0.0957 0.61653,0.12756 0.59528,0.15944 0.57402,0.17008 0.55275,0.20197 0.54213,0.2126 0.51023,0.24449 0.49961,0.26575 0.46772,0.287 0.44645,0.29764 0.43583,0.3189 0.40394,0.34016 0.38267,0.35078 0.37205,0.36142 0.34016,0.38268 0.3189,0.39331 0.29763,0.40393 0.26575,0.41457 0.25512,0.4252 0.23386,0.43582 0.20197,0.43583 0.18071,0.44646 0.15944,0.45708 0.12756,0.46772 0.11693,0.45709 0.085,0.46771 0.0531,0.47835 0.0425,0.46772 0.0106,0.46771 c 0,2.4874 -1.32874,8.7378 -11.38464,8.7378 l -20.17559,0 c -1.90276,0 -2.48741,-0.1063 -2.48741,-4.18819 l 0,-1.26496 -1.637,0 0,15.61535 1.637,0 0,-1.26496 c 0,-4.08189 0.58465,-4.17756 2.48741,-4.17756 l 19.96299,0 c 7.47283,0 13.24488,-6.14409 13.24488,-13.35118 0,-6.08031 -4.93228,-10.85315 -10.95945,-11.75669 -1.06299,-0.14882 -1.54134,-0.14882 -3.65669,-0.14882 l -16.9441,0 c -1.75393,0 -4.13504,0 -4.13504,-5.463779 l -1.637,0 0,12.553939 1.637,0 c 0,-5.45315 2.48741,-5.45315 3.92244,-5.45315 z"
         id="path4236-0-3"
         inkscape:connector-curvature="0"
         style="font-style:normal;font-variant:normal;font-weight:normal;font-stretch:normal;letter-spacing:normal;word-spacing:normal;text-anchor:start;fill:#000000;fill-opacity:1;fill-rule:evenodd;stroke:#000000;stroke-width:0;stroke-linecap:butt;stroke-linejoin:miter;stroke-miterlimit:10.43299961;stroke-dasharray:none;stroke-dashoffset:0;stroke-opacity:1" />
      <path
         sodipodi:nodetypes="cccccccc"
         style="fill:none;fill-rule:evenodd;stroke:#000000;stroke-width:1.70000005;stroke-linecap:butt;stroke-linejoin:miter;stroke-miterlimit:4;stroke-dasharray:none;stroke-opacity:1"
         d="m -134.3654,27.869171 107.821875,57.19676 0,129.299529 -107.821875,56.95047 0,-80.65194 35.214195,-41.0714 -35.214195,-41.07149 z"
         id="path4354-9-6"
         inkscape:connector-curvature="0" />
      <path
         style="fill:none;fill-rule:evenodd;stroke:#000000;stroke-width:1.70000005;stroke-linecap:butt;stroke-linejoin:miter;stroke-miterlimit:4;stroke-dasharray:none;stroke-opacity:1"
         d="m 451.17114,149.59112 -478.244795,0"
         id="path4598-3-1"
         inkscape:connector-curvature="0"
         sodipodi:nodetypes="cc" />
      <path
         style="fill:none;fill-rule:evenodd;stroke:#000000;stroke-width:1.70000017;stroke-linecap:butt;stroke-linejoin:miter;stroke-miterlimit:4;stroke-dasharray:none;stroke-opacity:1"
         d="m -154.9516,190.66399 0,92.72342 132.580105,0 4.51675,0 0,-74.53319 15.8794997,-59.2631"
         id="path4602-6-2"
         inkscape:connector-curvature="0"
         sodipodi:nodetypes="cccccc" />
      <path
         sodipodi:nodetypes="cc"
         inkscape:connector-curvature="0"
         id="path7018-0-9"
         d="m -134.3654,190.66399 -59.07896,0"
         style="fill:none;fill-rule:evenodd;stroke:#000000;stroke-width:1px;stroke-linecap:butt;stroke-linejoin:miter;stroke-opacity:1" />
      <path
         sodipodi:nodetypes="cc"
         inkscape:connector-curvature="0"
         id="path7020-6-3"
         d="m -134.3654,108.5211 -59.07896,0"
         style="fill:none;fill-rule:evenodd;stroke:#000000;stroke-width:1px;stroke-linecap:butt;stroke-linejoin:miter;stroke-opacity:1" />
    </g>
  </g>
</svg>
