<?xml version="1.0" encoding="UTF-8" standalone="no"?>
<!-- Created with Inkscape (http://www.inkscape.org/) -->

<svg
   xmlns:dc="http://purl.org/dc/elements/1.1/"
   xmlns:cc="http://creativecommons.org/ns#"
   xmlns:rdf="http://www.w3.org/1999/02/22-rdf-syntax-ns#"
   xmlns:svg="http://www.w3.org/2000/svg"
   xmlns="http://www.w3.org/2000/svg"
   xmlns:sodipodi="http://sodipodi.sourceforge.net/DTD/sodipodi-0.dtd"
   xmlns:inkscape="http://www.inkscape.org/namespaces/inkscape"
   width="134.56812mm"
   height="96.224602mm"
   viewBox="0 0 476.81616 340.95331"
   id="svg2"
   version="1.1"
   inkscape:version="0.91 r13725"
   sodipodi:docname="PE.svg">
  <sodipodi:namedview
     id="base"
     pagecolor="#ffffff"
     bordercolor="#666666"
     borderopacity="1.0"
     inkscape:pageopacity="0.0"
     inkscape:pageshadow="2"
     inkscape:zoom="0.98994949"
     inkscape:cx="-32.684748"
     inkscape:cy="286.05013"
     inkscape:document-units="px"
     inkscape:current-layer="layer1"
     showgrid="false"
     inkscape:object-paths="true"
     inkscape:snap-intersection-paths="true"
     inkscape:object-nodes="true"
     inkscape:snap-smooth-nodes="true"
     inkscape:snap-midpoints="true"
     inkscape:window-width="1920"
     inkscape:window-height="1007"
     inkscape:window-x="0"
     inkscape:window-y="27"
     inkscape:window-maximized="1"
     inkscape:snap-nodes="false"
     fit-margin-top="0"
     fit-margin-left="0"
     fit-margin-right="0"
     fit-margin-bottom="0" />
  <defs
     id="defs4">
    <marker
       inkscape:stockid="Arrow2Lend"
       orient="auto"
       refY="0"
       refX="0"
       id="marker13282"
       style="overflow:visible"
       inkscape:isstock="true">
      <path
         id="path13284"
         style="fill:#000000;fill-opacity:1;fill-rule:evenodd;stroke:#000000;stroke-width:0.625;stroke-linejoin:round;stroke-opacity:1"
         d="M 8.7185878,4.0337352 -2.2072895,0.01601326 8.7185884,-4.0017078 c -1.7454984,2.3720609 -1.7354408,5.6174519 -6e-7,8.035443 z"
         transform="matrix(-1.1,0,0,-1.1,-1.1,0)"
         inkscape:connector-curvature="0" />
    </marker>
    <marker
       inkscape:isstock="true"
       style="overflow:visible"
       id="marker13236"
       refX="0"
       refY="0"
       orient="auto"
       inkscape:stockid="Arrow2Lend"
       inkscape:collect="always">
      <path
         transform="matrix(-1.1,0,0,-1.1,-1.1,0)"
         d="M 8.7185878,4.0337352 -2.2072895,0.01601326 8.7185884,-4.0017078 c -1.7454984,2.3720609 -1.7354408,5.6174519 -6e-7,8.035443 z"
         style="fill:#000000;fill-opacity:1;fill-rule:evenodd;stroke:#000000;stroke-width:0.625;stroke-linejoin:round;stroke-opacity:1"
         id="path13238"
         inkscape:connector-curvature="0" />
    </marker>
    <marker
       inkscape:stockid="Arrow2Lend"
       orient="auto"
       refY="0"
       refX="0"
       id="marker10602"
       style="overflow:visible"
       inkscape:isstock="true"
       inkscape:collect="always">
      <path
         id="path10604"
         style="fill:#000000;fill-opacity:1;fill-rule:evenodd;stroke:#000000;stroke-width:0.625;stroke-linejoin:round;stroke-opacity:1"
         d="M 8.7185878,4.0337352 -2.2072895,0.01601326 8.7185884,-4.0017078 c -1.7454984,2.3720609 -1.7354408,5.6174519 -6e-7,8.035443 z"
         transform="matrix(-1.1,0,0,-1.1,-1.1,0)"
         inkscape:connector-curvature="0" />
    </marker>
    <marker
       inkscape:stockid="Arrow2Lend"
       orient="auto"
       refY="0"
       refX="0"
       id="marker10592"
       style="overflow:visible"
       inkscape:isstock="true">
      <path
         id="path10594"
         style="fill:#000000;fill-opacity:1;fill-rule:evenodd;stroke:#000000;stroke-width:0.625;stroke-linejoin:round;stroke-opacity:1"
         d="M 8.7185878,4.0337352 -2.2072895,0.01601326 8.7185884,-4.0017078 c -1.7454984,2.3720609 -1.7354408,5.6174519 -6e-7,8.035443 z"
         transform="matrix(-1.1,0,0,-1.1,-1.1,0)"
         inkscape:connector-curvature="0" />
    </marker>
    <marker
       inkscape:isstock="true"
       style="overflow:visible"
       id="marker10242"
       refX="0"
       refY="0"
       orient="auto"
       inkscape:stockid="Arrow2Lstart">
      <path
         transform="matrix(1.1,0,0,1.1,1.1,0)"
         d="M 8.7185878,4.0337352 -2.2072895,0.01601326 8.7185884,-4.0017078 c -1.7454984,2.3720609 -1.7354408,5.6174519 -6e-7,8.035443 z"
         style="fill:#000000;fill-opacity:1;fill-rule:evenodd;stroke:#000000;stroke-width:0.625;stroke-linejoin:round;stroke-opacity:1"
         id="path10244"
         inkscape:connector-curvature="0" />
    </marker>
    <marker
       inkscape:isstock="true"
       style="overflow:visible"
       id="marker10232"
       refX="0"
       refY="0"
       orient="auto"
       inkscape:stockid="Arrow2Lstart">
      <path
         transform="matrix(1.1,0,0,1.1,1.1,0)"
         d="M 8.7185878,4.0337352 -2.2072895,0.01601326 8.7185884,-4.0017078 c -1.7454984,2.3720609 -1.7354408,5.6174519 -6e-7,8.035443 z"
         style="fill:#000000;fill-opacity:1;fill-rule:evenodd;stroke:#000000;stroke-width:0.625;stroke-linejoin:round;stroke-opacity:1"
         id="path10234"
         inkscape:connector-curvature="0" />
    </marker>
    <marker
       inkscape:collect="always"
       inkscape:stockid="Arrow2Lstart"
       orient="auto"
       refY="0"
       refX="0"
       id="marker10204"
       style="overflow:visible"
       inkscape:isstock="true">
      <path
         id="path10206"
         style="fill:#000000;fill-opacity:1;fill-rule:evenodd;stroke:#000000;stroke-width:0.625;stroke-linejoin:round;stroke-opacity:1"
         d="M 8.7185878,4.0337352 -2.2072895,0.01601326 8.7185884,-4.0017078 c -1.7454984,2.3720609 -1.7354408,5.6174519 -6e-7,8.035443 z"
         transform="matrix(1.1,0,0,1.1,1.1,0)"
         inkscape:connector-curvature="0" />
    </marker>
    <marker
       inkscape:collect="always"
       inkscape:isstock="true"
       style="overflow:visible"
       id="Arrow2Lstart"
       refX="0"
       refY="0"
       orient="auto"
       inkscape:stockid="Arrow2Lstart">
      <path
         transform="matrix(1.1,0,0,1.1,1.1,0)"
         d="M 8.7185878,4.0337352 -2.2072895,0.01601326 8.7185884,-4.0017078 c -1.7454984,2.3720609 -1.7354408,5.6174519 -6e-7,8.035443 z"
         style="fill:#000000;fill-opacity:1;fill-rule:evenodd;stroke:#000000;stroke-width:0.625;stroke-linejoin:round;stroke-opacity:1"
         id="path9788"
         inkscape:connector-curvature="0" />
    </marker>
    <marker
       inkscape:collect="always"
       inkscape:isstock="true"
       style="overflow:visible"
       id="Arrow2Lend"
       refX="0"
       refY="0"
       orient="auto"
       inkscape:stockid="Arrow2Lend">
      <path
         transform="matrix(-1.1,0,0,-1.1,-1.1,0)"
         d="M 8.7185878,4.0337352 -2.2072895,0.01601326 8.7185884,-4.0017078 c -1.7454984,2.3720609 -1.7354408,5.6174519 -6e-7,8.035443 z"
         style="fill:#000000;fill-opacity:1;fill-rule:evenodd;stroke:#000000;stroke-width:0.625;stroke-linejoin:round;stroke-opacity:1"
         id="path9791"
         inkscape:connector-curvature="0" />
    </marker>
    <marker
       inkscape:stockid="Arrow2Lend"
       orient="auto"
       refY="0"
       refX="0"
       id="marker10602-6"
       style="overflow:visible"
       inkscape:isstock="true">
      <path
         id="path10604-2"
         style="fill:#000000;fill-opacity:1;fill-rule:evenodd;stroke:#000000;stroke-width:0.625;stroke-linejoin:round;stroke-opacity:1"
         d="M 8.7185878,4.0337352 -2.2072895,0.01601326 8.7185884,-4.0017078 c -1.7454984,2.3720609 -1.7354408,5.6174519 -6e-7,8.035443 z"
         transform="matrix(-1.1,0,0,-1.1,-1.1,0)"
         inkscape:connector-curvature="0" />
    </marker>
    <marker
       inkscape:stockid="Arrow2Lend"
       orient="auto"
       refY="0"
       refX="0"
       id="marker10602-1"
       style="overflow:visible"
       inkscape:isstock="true">
      <path
         id="path10604-27"
         style="fill:#000000;fill-opacity:1;fill-rule:evenodd;stroke:#000000;stroke-width:0.625;stroke-linejoin:round;stroke-opacity:1"
         d="M 8.7185878,4.0337352 -2.2072895,0.01601326 8.7185884,-4.0017078 c -1.7454984,2.3720609 -1.7354408,5.6174519 -6e-7,8.035443 z"
         transform="matrix(-1.1,0,0,-1.1,-1.1,0)"
         inkscape:connector-curvature="0" />
    </marker>
    <marker
       inkscape:stockid="Arrow2Lend"
       orient="auto"
       refY="0"
       refX="0"
       id="marker10602-9"
       style="overflow:visible"
       inkscape:isstock="true">
      <path
         id="path10604-3"
         style="fill:#000000;fill-opacity:1;fill-rule:evenodd;stroke:#000000;stroke-width:0.625;stroke-linejoin:round;stroke-opacity:1"
         d="M 8.7185878,4.0337352 -2.2072895,0.01601326 8.7185884,-4.0017078 c -1.7454984,2.3720609 -1.7354408,5.6174519 -6e-7,8.035443 z"
         transform="matrix(-1.1,0,0,-1.1,-1.1,0)"
         inkscape:connector-curvature="0" />
    </marker>
    <marker
       inkscape:stockid="Arrow2Lend"
       orient="auto"
       refY="0"
       refX="0"
       id="marker10602-6-0"
       style="overflow:visible"
       inkscape:isstock="true">
      <path
         id="path10604-2-6"
         style="fill:#000000;fill-opacity:1;fill-rule:evenodd;stroke:#000000;stroke-width:0.625;stroke-linejoin:round;stroke-opacity:1"
         d="M 8.7185878,4.0337352 -2.2072895,0.01601326 8.7185884,-4.0017078 c -1.7454984,2.3720609 -1.7354408,5.6174519 -6e-7,8.035443 z"
         transform="matrix(-1.1,0,0,-1.1,-1.1,0)"
         inkscape:connector-curvature="0" />
    </marker>
  </defs>
  <metadata
     id="metadata7">
    <rdf:RDF>
      <cc:Work
         rdf:about="">
        <dc:format>image/svg+xml</dc:format>
        <dc:type
           rdf:resource="http://purl.org/dc/dcmitype/StillImage" />
        <dc:title></dc:title>
      </cc:Work>
    </rdf:RDF>
  </metadata>
  <g
     id="layer1"
     inkscape:groupmode="layer"
     inkscape:label="Layer 1"
     transform="translate(-49.042584,-510.79789)">
    <rect
       style="fill:#ececec;fill-opacity:1;stroke:#000000;stroke-width:1.70000005;stroke-miterlimit:4;stroke-dasharray:none;stroke-dashoffset:0;stroke-opacity:1"
       id="rect9762"
       width="390"
       height="307.14285"
       x="80.714287"
       y="511.64789" />
    <path
       inkscape:connector-curvature="0"
       id="path4171-6"
       style="fill:#ffffff;stroke:#000000;stroke-width:1.29899991;stroke-linecap:butt;stroke-linejoin:miter;stroke-miterlimit:4;stroke-dasharray:none;stroke-opacity:1"
       d="m 233.05075,702.26131 39.963,0 0,75.91607 -39.963,0 z"
       sodipodi:nodetypes="ccccc" />
    <path
       sodipodi:nodetypes="cc"
       style="fill:none;fill-rule:evenodd;stroke:#000000;stroke-width:1px;stroke-linecap:butt;stroke-linejoin:miter;stroke-opacity:1;marker-start:url(#Arrow2Lstart)"
       d="m 230.05254,644.99034 257.8046,0"
       id="path6981"
       inkscape:connector-curvature="0" />
    <g
       id="g11885"
       style="fill:#ffffff">
      <path
         sodipodi:nodetypes="ccccc"
         d="m 188.03597,635.11846 39.963,0 0,39.48749 -39.963,0 z"
         style="fill:#ffffff;stroke:#000000;stroke-width:1.29899991;stroke-linecap:butt;stroke-linejoin:miter;stroke-miterlimit:4;stroke-dasharray:none;stroke-opacity:1"
         id="path4171-3"
         inkscape:connector-curvature="0" />
      <path
         sodipodi:nodetypes="ccccc"
         d="m 188.03597,549.76131 39.963,0 0,39.48749 -39.963,0 z"
         style="fill:#ffffff;stroke:#000000;stroke-width:1.29899991;stroke-linecap:butt;stroke-linejoin:miter;stroke-miterlimit:4;stroke-dasharray:none;stroke-opacity:1"
         id="path4171-3-7"
         inkscape:connector-curvature="0" />
    </g>
    <path
       sodipodi:nodetypes="cc"
       style="fill:none;fill-rule:evenodd;stroke:#000000;stroke-width:1px;stroke-linecap:butt;stroke-linejoin:miter;stroke-opacity:1;marker-start:url(#marker10204)"
       d="m 230.05254,664.7341 257.8046,0"
       id="path6983"
       inkscape:connector-curvature="0" />
    <path
       style="fill:#ffffff;fill-rule:evenodd;stroke:#000000;stroke-width:1px;stroke-linecap:butt;stroke-linejoin:miter;stroke-opacity:1"
       d="m 109.28572,575.04077 35.71428,-22.5 0,119.28572 -35.71428,-22.5 0,-74.28572"
       id="path7048"
       inkscape:connector-curvature="0" />
    <g
       transform="matrix(0.5236178,0,0,0.5236178,179.83165,527.106)"
       id="g7088">
      <g
         style="font-style:normal;font-variant:normal;font-weight:normal;font-stretch:normal;letter-spacing:normal;word-spacing:normal;text-anchor:start;fill:none;fill-opacity:1;fill-rule:evenodd;stroke:#000000;stroke-linecap:butt;stroke-linejoin:miter;stroke-miterlimit:10.43299961;stroke-dasharray:none;stroke-dashoffset:0;stroke-opacity:1"
         word-spacing="normal"
         letter-spacing="normal"
         font-size-adjust="none"
         font-stretch="normal"
         font-weight="normal"
         font-variant="normal"
         font-style="normal"
         stroke-miterlimit="10.433"
         xml:space="preserve"
         transform="matrix(1.0629921,0,0,-1.0629921,14.611012,1050.6754)"
         id="content"><path
           style="fill:#000000;stroke-width:0"
           inkscape:connector-curvature="0"
           id="path7091"
           d="m 474.73,425.08 -0.02,0.28 -0.04,0.27 -0.05,0.25 -0.07,0.25 -0.08,0.23 -0.09,0.23 -0.11,0.21 -0.12,0.21 -0.13,0.19 -0.14,0.18 -0.15,0.18 -0.16,0.16 -0.17,0.16 -0.18,0.14 -0.19,0.14 -0.2,0.12 -0.2,0.12 -0.21,0.11 -0.22,0.1 -0.22,0.09 -0.22,0.09 -0.24,0.07 -0.23,0.07 -0.24,0.06 -0.24,0.06 -0.24,0.04 -0.24,0.04 -0.25,0.03 -0.24,0.02 -0.25,0.02 -0.24,0.01 -0.25,0 c -4.14,0 -8.62,-2.64 -8.62,-7.12 0,-3.29 3.09,-5.08 6.23,-6.38 2.34,-0.99 4.93,-2.34 4.93,-4.88 0,-2.04 -2.14,-3.78 -4.23,-3.78 -3.14,0 -5.48,2.64 -5.68,5.72 l -0.7,0.05 -2.44,-3.53 c 1.64,-3.14 4.34,-4.14 7.32,-4.14 4.39,0 9.37,2.64 9.37,7.73 0,2.33 -1.89,4.13 -5.73,5.77 -3.64,1.55 -5.48,2.79 -5.48,4.78 0,2.3 1.74,4.04 4.09,4.04 2.23,0 3.08,-1.69 3.23,-3.88 l 0.6,-0.36 z" /></g>    </g>
    <g
       transform="matrix(0.5236178,0,0,0.5236178,340.76089,460.19289)"
       id="g7877">
      <g
         style="font-style:normal;font-variant:normal;font-weight:normal;font-stretch:normal;letter-spacing:normal;word-spacing:normal;text-anchor:start;fill:none;fill-opacity:1;fill-rule:evenodd;stroke:#000000;stroke-linecap:butt;stroke-linejoin:miter;stroke-miterlimit:10.43299961;stroke-dasharray:none;stroke-dashoffset:0;stroke-opacity:1"
         id="g7879"
         transform="matrix(1.0629921,0,0,-1.0629921,-186.02362,789.27165)"
         xml:space="preserve"
         stroke-miterlimit="10.433"
         font-style="normal"
         font-variant="normal"
         font-weight="normal"
         font-stretch="normal"
         font-size-adjust="none"
         letter-spacing="normal"
         word-spacing="normal"><path
           style="fill:#000000;stroke-width:0"
           inkscape:connector-curvature="0"
           d="m 482.6,408.39 -0.5,0.5 c -0.3,-0.05 -9.36,-0.75 -14.54,-0.75 -0.25,0 -0.6,0.35 -0.65,0.65 -0.2,5.38 -0.35,11.16 -0.35,16.79 0,3.98 0.1,7.87 0.3,11.5 0.05,0.55 0.3,1.15 0.9,1.25 1.04,0.25 3.19,0.7 3.23,0.7 l 0,1.04 -0.29,0.3 -11.81,0 -0.35,-0.35 -0.05,-0.84 c 0.05,0 1.89,-0.4 2.89,-0.6 0.75,-0.15 1.05,-0.95 1.05,-1.65 l 0,-23.81 c 0,-2.59 -0.3,-5.23 -1.1,-6.32 l 0,-0.7 c 6.87,0 16.88,0 20.57,-0.35 z"
           id="path7881" /><path
           style="fill:#000000;stroke-width:0"
           inkscape:connector-curvature="0"
           d="m 501.13,414.03 -0.12,0.07 -0.12,0.07 -0.25,0.14 -0.26,0.13 -0.26,0.12 -0.27,0.11 -0.27,0.1 -0.28,0.09 -0.28,0.08 -0.28,0.07 -0.27,0.07 -0.28,0.05 -0.26,0.04 -0.27,0.04 -0.26,0.02 -0.12,0.01 -0.13,0.01 -0.12,0 -0.12,0 0.07,-1.22 c 0.98,0 1.95,-0.49 2.65,-1.15 0.63,-0.59 0.63,-1.5 0.63,-2.41 l 0,-8.02 c -1.15,-0.77 -2.58,-1.57 -4.15,-1.57 -1.47,0 -3.07,0.28 -3.9,1.43 -0.91,1.22 -1.16,2.72 -1.12,4.19 0.07,3.52 1.22,5.44 2.12,6.2 1.05,0.87 2.34,1.33 3.77,1.33 l -0.07,1.22 c -6.59,0 -9.38,-4.81 -9.38,-9.77 0,-3.17 1.47,-6.9 5.83,-6.9 2.3,0 4.46,1.08 6.41,2.2 l 0.59,-0.14 c 0.21,-1.19 0.77,-2.06 2.24,-2.06 1.25,0 3.41,1.19 4.95,2.03 l -0.25,0.83 c -0.83,-0.28 -2.02,-0.63 -2.58,-0.63 -1.32,0 -1.46,1.43 -1.46,2.27 0,1.36 -0.07,2.72 -0.07,4.08 0,2.58 0.07,5.2 0.24,7.77 l -0.21,0.18 z"
           id="path7883" /></g>    </g>
    <g
       transform="matrix(0.5236178,0,0,0.5236178,341.55683,489.97805)"
       id="g8677">
      <g
         style="font-style:normal;font-variant:normal;font-weight:normal;font-stretch:normal;letter-spacing:normal;word-spacing:normal;text-anchor:start;fill:none;fill-opacity:1;fill-rule:evenodd;stroke:#000000;stroke-linecap:butt;stroke-linejoin:miter;stroke-miterlimit:10.43299961;stroke-dasharray:none;stroke-dashoffset:0;stroke-opacity:1"
         word-spacing="normal"
         letter-spacing="normal"
         font-size-adjust="none"
         font-stretch="normal"
         font-weight="normal"
         font-variant="normal"
         font-style="normal"
         stroke-miterlimit="10.433"
         xml:space="preserve"
         transform="matrix(1.0629921,0,0,-1.0629921,-186.02362,789.27165)"
         id="g8679"><path
           style="fill:#000000;stroke-width:0"
           inkscape:connector-curvature="0"
           id="path8681"
           d="m 482.6,408.39 -0.5,0.5 c -0.3,-0.05 -9.36,-0.75 -14.54,-0.75 -0.25,0 -0.6,0.35 -0.65,0.65 -0.2,5.38 -0.35,11.16 -0.35,16.79 0,3.98 0.1,7.87 0.3,11.5 0.05,0.55 0.3,1.15 0.9,1.25 1.04,0.25 3.19,0.7 3.23,0.7 l 0,1.04 -0.29,0.3 -11.81,0 -0.35,-0.35 -0.05,-0.84 c 0.05,0 1.89,-0.4 2.89,-0.6 0.75,-0.15 1.05,-0.95 1.05,-1.65 l 0,-23.81 c 0,-2.59 -0.3,-5.23 -1.1,-6.32 l 0,-0.7 c 6.87,0 16.88,0 20.57,-0.35 z" /><path
           style="fill:#000000;stroke-width:0"
           inkscape:connector-curvature="0"
           id="path8683"
           d="m 485.16,422.05 0,-0.73 c 3.35,-0.46 3.7,-0.21 3.7,-1.43 l 0,-16.6 c 0,-3.84 2.54,-4.64 4.6,-4.64 4.47,0 9.07,2.79 10.5,6.52 0.56,1.47 0.73,3.04 0.73,4.57 0,2.93 -1.92,5.58 -5.55,5.58 -2.68,0 -4.98,-1.19 -7.07,-2.58 l -0.18,-1.64 c 1.54,1.19 3.31,2.06 5.41,2.06 1.46,0 2.4,-0.8 2.93,-1.5 0.52,-0.77 1.18,-2.2 1.18,-4.75 0,-3.24 -1.64,-6.59 -5.79,-6.59 -3.41,0 -3.9,2.66 -3.9,6.66 0,1.36 0.1,2.93 0.17,4.12 l 0,0 0.18,1.64 -0.35,0.17 c 0,0.35 0,0.66 0,1.02 0,2.92 0.24,5.78 0.55,8.68 l -0.24,0.24 -6.66,-0.63 z" /></g>    </g>
    <g
       transform="matrix(0.5236178,0,0,0.5236178,45.264383,391.31462)"
       id="g9504">
      <g
         style="font-style:normal;font-variant:normal;font-weight:normal;font-stretch:normal;letter-spacing:normal;word-spacing:normal;text-anchor:start;fill:none;fill-opacity:1;fill-rule:evenodd;stroke:#000000;stroke-linecap:butt;stroke-linejoin:miter;stroke-miterlimit:10.43299961;stroke-dasharray:none;stroke-dashoffset:0;stroke-opacity:1"
         id="g9506"
         transform="matrix(1.0629921,0,0,-1.0629921,-186.02362,789.27165)"
         xml:space="preserve"
         stroke-miterlimit="10.433"
         font-style="normal"
         font-variant="normal"
         font-weight="normal"
         font-stretch="normal"
         font-size-adjust="none"
         letter-spacing="normal"
         word-spacing="normal"><path
           style="fill:#000000;stroke-width:0"
           inkscape:connector-curvature="0"
           d="m 458.34,427.62 -0.35,-0.3 -0.2,-1.1 0.25,-0.34 5.58,0 0.3,-0.4 0,-5.38 c 0,-4.54 -0.3,-9.22 -0.65,-14.15 l 0.85,-0.55 3.93,1.2 c -0.34,4.03 -0.49,8.76 -0.49,13.45 l 0,5.53 0.3,0.3 5.73,0 0.34,0.3 0.35,1.09 -0.25,0.35 -6.17,0 -0.2,0.3 c 0,5.08 0.84,9.41 2.98,9.41 2.34,0 2.7,-2.14 2.9,-3.19 l 0.59,-0.19 2.89,2.69 c -0.64,1.34 -1.94,2.68 -4.63,2.68 -3.14,0 -6.13,-1.84 -7.62,-5.32 -0.8,-1.8 -0.9,-4.34 -0.9,-6.08 l -0.3,-0.3 z"
           id="path9508" /></g>    </g>
    <path
       style="fill:#ffffff;fill-rule:evenodd;stroke:#000000;stroke-width:1px;stroke-linecap:butt;stroke-linejoin:miter;stroke-opacity:1"
       d="m 370.71378,703.07649 35.71428,-22.5 0,119.28572 -35.71428,-22.5 0,-74.28572"
       id="path7048-5"
       inkscape:connector-curvature="0" />
    <g
       transform="matrix(0.5236178,0,0,0.5236178,43.614059,470.78014)"
       id="g9576">
      <g
         style="font-style:normal;font-variant:normal;font-weight:normal;font-stretch:normal;letter-spacing:normal;word-spacing:normal;text-anchor:start;fill:none;fill-opacity:1;fill-rule:evenodd;stroke:#000000;stroke-linecap:butt;stroke-linejoin:miter;stroke-miterlimit:10.43299961;stroke-dasharray:none;stroke-dashoffset:0;stroke-opacity:1"
         word-spacing="normal"
         letter-spacing="normal"
         font-size-adjust="none"
         font-stretch="normal"
         font-weight="normal"
         font-variant="normal"
         font-style="normal"
         stroke-miterlimit="10.433"
         xml:space="preserve"
         transform="matrix(1.0629921,0,0,-1.0629921,-186.02362,789.27165)"
         id="g9578"><path
           style="fill:#000000;stroke-width:0"
           inkscape:connector-curvature="0"
           id="path9580"
           d="m 475.88,408.59 0.44,-0.35 c -0.2,-6.47 -2.44,-11.8 -7.72,-11.8 -1.79,0 -4.08,2.04 -4.98,3.83 l -0.69,0 -2.45,-3.09 c 2.45,-2.29 4.68,-2.79 6.88,-2.79 3.03,0 5.53,0.75 8.07,2.69 0.99,0.75 2.84,2.44 3.63,4.63 1,2.9 1.1,6.43 1.1,8.38 0,10.41 0.2,13.99 0.45,18.52 l -0.7,0.3 -2.54,-1.44 c -1.64,1.24 -3.78,1.69 -5.83,1.69 l 0.35,-1.69 c 2.09,0 4.29,-1.05 4.43,-3.39 l 0,-13.15 c -1.14,-0.89 -3.93,-2.34 -6.22,-2.34 -2.49,0 -5.68,3.04 -5.68,7.52 0,4.48 1.59,11.36 7.47,11.36 l -0.35,1.69 c -6.38,0 -11.41,-5.13 -11.41,-14 0,-5.77 3.09,-9.71 7.23,-9.71 3.14,0 5.93,1.65 8.52,3.14 z" /></g>    </g>
    <g
       id="g12070"
       transform="translate(-1.0972046,-42.142833)"
       style="fill:#ffffff">
      <circle
         r="15"
         cy="782.36218"
         cx="323.03571"
         id="path12058"
         style="fill:#ffffff;fill-opacity:1;stroke:#000000;stroke-width:1.70000005;stroke-miterlimit:4;stroke-dasharray:none;stroke-dashoffset:0;stroke-opacity:1" />
      <path
         inkscape:connector-curvature="0"
         id="path12060"
         d="m 323.03571,767.3622 0,30"
         style="fill:#ffffff;fill-rule:evenodd;stroke:#000000;stroke-width:1.70000005;stroke-linecap:butt;stroke-linejoin:miter;stroke-miterlimit:4;stroke-dasharray:none;stroke-opacity:1" />
      <path
         inkscape:connector-curvature="0"
         id="path12062"
         d="m 338.03571,782.36218 -30,0"
         style="fill:#ffffff;fill-rule:evenodd;stroke:#000000;stroke-width:1.70000005;stroke-linecap:butt;stroke-linejoin:miter;stroke-miterlimit:4;stroke-dasharray:none;stroke-opacity:1" />
    </g>
    <g
       transform="matrix(0.5236178,0,0,0.5236178,78.807608,562.34896)"
       id="g9654">
      <g
         style="font-style:normal;font-variant:normal;font-weight:normal;font-stretch:normal;letter-spacing:normal;word-spacing:normal;text-anchor:start;fill:none;fill-opacity:1;fill-rule:evenodd;stroke:#000000;stroke-linecap:butt;stroke-linejoin:miter;stroke-miterlimit:10.43299961;stroke-dasharray:none;stroke-dashoffset:0;stroke-opacity:1"
         id="g9656"
         transform="matrix(1.0629921,0,0,-1.0629921,-186.02362,789.27165)"
         xml:space="preserve"
         stroke-miterlimit="10.433"
         font-style="normal"
         font-variant="normal"
         font-weight="normal"
         font-stretch="normal"
         font-size-adjust="none"
         letter-spacing="normal"
         word-spacing="normal"><path
           style="fill:#000000;stroke-width:0"
           inkscape:connector-curvature="0"
           d="m 484.99,439.87 -27.35,0 0,-1.54 1.2,0 c 3.84,0 3.93,-0.55 3.93,-2.34 l 0,-26.1 c 0,-1.8 -0.09,-2.35 -3.93,-2.35 l -1.2,0 0,-1.54 15.95,0 0,1.54 -1.65,0 c -4.73,0 -4.73,0.65 -4.73,2.39 l 0,12.26 4.28,0 c 4.78,0 5.28,-1.6 5.28,-5.83 l 1.25,0 0,13.2 -1.25,0 c 0,-4.18 -0.5,-5.83 -5.28,-5.83 l -4.28,0 0,12.61 c 0,1.64 0.1,1.99 2.44,1.99 l 5.97,0 c 7.48,0 8.72,-2.79 9.52,-9.67 l 1.25,0 z"
           id="path9658" /><path
           style="fill:#000000;stroke-width:0"
           inkscape:connector-curvature="0"
           d="m 516.99,439.87 -27.35,0 0,-1.54 1.2,0 c 3.84,0 3.93,-0.55 3.93,-2.34 l 0,-26.1 c 0,-1.8 -0.09,-2.35 -3.93,-2.35 l -1.2,0 0,-1.54 15.95,0 0,1.54 -1.65,0 c -4.73,0 -4.73,0.65 -4.73,2.39 l 0,12.26 4.28,0 c 4.78,0 5.28,-1.6 5.28,-5.83 l 1.25,0 0,13.2 -1.25,0 c 0,-4.18 -0.5,-5.83 -5.28,-5.83 l -4.28,0 0,12.61 c 0,1.64 0.1,1.99 2.44,1.99 l 5.97,0 c 7.48,0 8.72,-2.79 9.52,-9.67 l 1.25,0 z"
           id="path9660" /></g>    </g>
    <path
       inkscape:connector-curvature="0"
       id="path7069"
       d="m 109.28572,612.16601 -58.571433,0"
       style="fill:none;fill-rule:evenodd;stroke:#000000;stroke-width:1px;stroke-linecap:butt;stroke-linejoin:miter;stroke-opacity:1;marker-end:url(#Arrow2Lend)" />
    <path
       inkscape:connector-curvature="0"
       id="path7071"
       d="m 447.85665,833.07649 0,-55 -39.41964,0"
       style="fill:none;fill-rule:evenodd;stroke:#000000;stroke-width:1px;stroke-linecap:butt;stroke-linejoin:miter;stroke-opacity:1;marker-end:url(#marker10592)"
       sodipodi:nodetypes="ccc" />
    <path
       inkscape:connector-curvature="0"
       id="path7075"
       d="m 447.85665,704.50507 -39.41964,0"
       style="fill:none;fill-rule:evenodd;stroke:#000000;stroke-width:1px;stroke-linecap:butt;stroke-linejoin:miter;stroke-opacity:1;marker-end:url(#marker10602)"
       sodipodi:nodetypes="cc" />
    <path
       style="fill:none;fill-rule:evenodd;stroke:#000000;stroke-width:1px;stroke-linecap:butt;stroke-linejoin:miter;stroke-opacity:1;marker-start:url(#marker10242)"
       d="m 230.05254,559.6332 53.51889,0 0,85.35714"
       id="path7065"
       inkscape:connector-curvature="0"
       sodipodi:nodetypes="ccc" />
    <path
       style="fill:none;fill-rule:evenodd;stroke:#000000;stroke-width:1px;stroke-linecap:butt;stroke-linejoin:miter;stroke-opacity:1;marker-start:url(#marker10232)"
       d="m 230.05254,579.37698 34.23317,0 0,85.35712"
       id="path7067"
       inkscape:connector-curvature="0"
       sodipodi:nodetypes="ccc" />
    <path
       inkscape:connector-curvature="0"
       id="path7075-9"
       d="m 370.71378,740.21935 -31.45385,0"
       style="fill:none;fill-rule:evenodd;stroke:#000000;stroke-width:1px;stroke-linecap:butt;stroke-linejoin:miter;stroke-opacity:1;marker-end:url(#marker10602-6)"
       sodipodi:nodetypes="cc" />
    <path
       inkscape:connector-curvature="0"
       id="path7075-0"
       d="m 188.03597,654.86221 -41.42856,0"
       style="fill:none;fill-rule:evenodd;stroke:#000000;stroke-width:1px;stroke-linecap:butt;stroke-linejoin:miter;stroke-opacity:1;marker-end:url(#marker10602-1)" />
    <path
       inkscape:connector-curvature="0"
       id="path7075-6"
       d="m 188.03597,569.50506 -41.42856,0"
       style="fill:none;fill-rule:evenodd;stroke:#000000;stroke-width:1px;stroke-linecap:butt;stroke-linejoin:miter;stroke-opacity:1;marker-end:url(#marker10602-9)" />
    <g
       id="g11964"
       transform="matrix(0.50481257,0,0,0.50481257,301.91831,532.56007)">
      <g
         word-spacing="normal"
         letter-spacing="normal"
         font-size-adjust="none"
         font-stretch="normal"
         font-weight="normal"
         font-variant="normal"
         font-style="normal"
         stroke-miterlimit="10.433"
         xml:space="preserve"
         transform="matrix(1.0629921,0,0,-1.0629921,-186.02362,789.27165)"
         id="g11966"
         style="font-style:normal;font-variant:normal;font-weight:normal;font-stretch:normal;letter-spacing:normal;word-spacing:normal;text-anchor:start;fill:none;fill-opacity:1;fill-rule:evenodd;stroke:#000000;stroke-linecap:butt;stroke-linejoin:miter;stroke-miterlimit:10.43299961;stroke-dasharray:none;stroke-dashoffset:0;stroke-opacity:1"><path
           id="path11968"
           d="m 478.91,421.94 0,0.75 -0.01,0.74 -0.02,0.75 -0.03,0.74 -0.05,0.75 -0.06,0.74 -0.07,0.74 -0.1,0.73 -0.11,0.73 -0.14,0.73 -0.16,0.72 -0.19,0.72 -0.22,0.71 -0.24,0.71 -0.28,0.7 -0.15,0.35 -0.16,0.35 c -2.29,4.78 -6.37,5.58 -8.47,5.58 -2.99,0 -6.62,-1.3 -8.66,-5.93 -1.6,-3.44 -1.85,-7.32 -1.85,-11.31 0,-3.74 0.2,-8.22 2.24,-12.01 2.15,-4.03 5.78,-5.03 8.22,-5.03 l 0,1.1 c -1.94,0 -4.88,1.25 -5.78,6.03 -0.54,2.99 -0.54,7.57 -0.54,10.51 0,3.19 0,6.47 0.4,9.16 0.94,5.93 4.68,6.38 5.92,6.38 1.65,0 4.94,-0.9 5.88,-5.83 0.5,-2.79 0.5,-6.57 0.5,-9.71 0,-3.74 0,-7.13 -0.55,-10.31 -0.75,-4.73 -3.59,-6.23 -5.83,-6.23 l 0,0 0,-1.1 c 2.69,0 6.48,1.05 8.67,5.78 1.59,3.44 1.84,7.32 1.84,11.26 z"
           inkscape:connector-curvature="0"
           style="fill:#000000;stroke-width:0" /></g>    </g>
    <path
       inkscape:connector-curvature="0"
       id="path7075-9-2"
       d="m 306.78903,740.21934 -31.54314,0"
       style="fill:none;fill-rule:evenodd;stroke:#000000;stroke-width:1px;stroke-linecap:butt;stroke-linejoin:miter;stroke-opacity:1;marker-end:url(#marker10602-6-0)"
       sodipodi:nodetypes="cc" />
    <path
       style="fill:none;fill-rule:evenodd;stroke:#000000;stroke-width:1px;stroke-linecap:butt;stroke-linejoin:miter;stroke-opacity:1;marker-end:url(#marker13282)"
       d="m 233.05075,740.21934 -25.03328,0 0,-63.87232"
       id="path13224"
       inkscape:connector-curvature="0"
       sodipodi:nodetypes="ccc" />
    <path
       style="fill:none;fill-rule:evenodd;stroke:#000000;stroke-width:1px;stroke-linecap:butt;stroke-linejoin:miter;stroke-opacity:1;marker-end:url(#marker13236)"
       d="m 208.01747,740.21934 0,48.57141 113.92103,0 0,-31.24997"
       id="path13228"
       inkscape:connector-curvature="0"
       sodipodi:nodetypes="cccc" />
  </g>
</svg>
