<?xml version="1.0" encoding="UTF-8" standalone="no"?>
<!-- Created with Inkscape (http://www.inkscape.org/) -->

<svg
   xmlns:dc="http://purl.org/dc/elements/1.1/"
   xmlns:cc="http://creativecommons.org/ns#"
   xmlns:rdf="http://www.w3.org/1999/02/22-rdf-syntax-ns#"
   xmlns:svg="http://www.w3.org/2000/svg"
   xmlns="http://www.w3.org/2000/svg"
   xmlns:sodipodi="http://sodipodi.sourceforge.net/DTD/sodipodi-0.dtd"
   xmlns:inkscape="http://www.inkscape.org/namespaces/inkscape"
   width="67.532356mm"
   height="78.391815mm"
   viewBox="0 0 239.28788 277.76627"
   id="svg2"
   version="1.1"
   inkscape:version="0.91 r13725"
   sodipodi:docname="rep_tie.svg">
  <sodipodi:namedview
     id="base"
     pagecolor="#ffffff"
     bordercolor="#666666"
     borderopacity="1.0"
     inkscape:pageopacity="0.0"
     inkscape:pageshadow="2"
     inkscape:zoom="1.4142136"
     inkscape:cx="67.881141"
     inkscape:cy="84.355682"
     inkscape:document-units="px"
     inkscape:current-layer="layer1"
     showgrid="false"
     inkscape:snap-smooth-nodes="true"
     inkscape:snap-midpoints="true"
     inkscape:object-nodes="true"
     inkscape:snap-others="true"
     inkscape:window-width="1920"
     inkscape:window-height="1007"
     inkscape:window-x="0"
     inkscape:window-y="27"
     inkscape:window-maximized="1"
     inkscape:snap-nodes="false"
     inkscape:object-paths="true"
     fit-margin-top="0"
     fit-margin-left="0"
     fit-margin-right="0"
     fit-margin-bottom="0"
     inkscape:snap-intersection-paths="true" />
  <defs
     id="defs4">
    <inkscape:perspective
       sodipodi:type="inkscape:persp3d"
       inkscape:vp_x="0 : 14.999999 : 1"
       inkscape:vp_y="0 : 999.99999 : 0"
       inkscape:vp_z="50.000002 : 15 : 1"
       inkscape:persp3d-origin="25 : 10 : 1"
       id="perspective2714" />
    <inkscape:perspective
       sodipodi:type="inkscape:persp3d"
       inkscape:vp_x="0 : 0.5 : 1"
       inkscape:vp_y="0 : 999.99999 : 0"
       inkscape:vp_z="1 : 0.5 : 1"
       inkscape:persp3d-origin="0.50000002 : 0.33333333 : 1"
       id="perspective2806" />
    <inkscape:perspective
       id="perspective2819"
       inkscape:persp3d-origin="372.04725 : 350.78739 : 1"
       inkscape:vp_z="744.0945 : 526.18109 : 1"
       inkscape:vp_y="0 : 999.99999 : 0"
       inkscape:vp_x="0 : 526.18109 : 1"
       sodipodi:type="inkscape:persp3d" />
    <inkscape:perspective
       id="perspective2777"
       inkscape:persp3d-origin="75.000002 : 40 : 1"
       inkscape:vp_z="150.00001 : 60 : 1"
       inkscape:vp_y="0 : 999.99999 : 0"
       inkscape:vp_x="0 : 60 : 1"
       sodipodi:type="inkscape:persp3d" />
    <inkscape:perspective
       id="perspective3275"
       inkscape:persp3d-origin="50.000002 : 33.333333 : 1"
       inkscape:vp_z="100 : 50 : 1"
       inkscape:vp_y="0 : 999.99999 : 0"
       inkscape:vp_x="0 : 50 : 1"
       sodipodi:type="inkscape:persp3d" />
    <inkscape:perspective
       id="perspective5533"
       inkscape:persp3d-origin="32.000001 : 21.333333 : 1"
       inkscape:vp_z="64.000001 : 32 : 1"
       inkscape:vp_y="0 : 999.99999 : 0"
       inkscape:vp_x="0 : 32 : 1"
       sodipodi:type="inkscape:persp3d" />
    <inkscape:perspective
       id="perspective2557"
       inkscape:persp3d-origin="25 : 16.666667 : 1"
       inkscape:vp_z="50.000002 : 25 : 1"
       inkscape:vp_y="0 : 999.99999 : 0"
       inkscape:vp_x="0 : 25 : 1"
       sodipodi:type="inkscape:persp3d" />
  </defs>
  <metadata
     id="metadata7">
    <rdf:RDF>
      <cc:Work
         rdf:about="">
        <dc:format>image/svg+xml</dc:format>
        <dc:type
           rdf:resource="http://purl.org/dc/dcmitype/StillImage" />
        <dc:title></dc:title>
      </cc:Work>
    </rdf:RDF>
  </metadata>
  <g
     transform="translate(-322.36973,-245.04854)"
     inkscape:label="Layer 1"
     inkscape:groupmode="layer"
     id="layer1">
    <g
       id="g4934"
       transform="matrix(0.25307678,0,0,0.25307678,165.05874,171.72647)">
      <g
         id="g4936"
         transform="matrix(2.7398395,0,0,-2.7398395,-335.354,1521.184)"
         xml:space="preserve"
         stroke-miterlimit="10.433"
         font-style="normal"
         font-variant="normal"
         font-weight="normal"
         font-stretch="normal"
         font-size-adjust="none"
         letter-spacing="normal"
         word-spacing="normal"
         style="font-style:normal;font-variant:normal;font-weight:normal;font-stretch:normal;letter-spacing:normal;word-spacing:normal;text-anchor:start;fill:none;fill-opacity:1;fill-rule:evenodd;stroke:#000000;stroke-linecap:butt;stroke-linejoin:miter;stroke-miterlimit:10.43299961;stroke-dasharray:none;stroke-dashoffset:0;stroke-opacity:1"><path
           d="m 482.6,408.39 -0.5,0.5 c -0.3,-0.05 -9.36,-0.75 -14.54,-0.75 -0.25,0 -0.6,0.35 -0.65,0.65 -0.2,5.38 -0.35,11.16 -0.35,16.79 0,3.98 0.1,7.87 0.3,11.5 0.05,0.55 0.3,1.15 0.9,1.25 1.04,0.25 3.19,0.7 3.23,0.7 l 0,1.04 -0.29,0.3 -11.81,0 -0.35,-0.35 -0.05,-0.84 c 0.05,0 1.89,-0.4 2.89,-0.6 0.75,-0.15 1.05,-0.95 1.05,-1.65 l 0,-23.81 c 0,-2.59 -0.3,-5.23 -1.1,-6.32 l 0,-0.7 c 6.87,0 16.88,0 20.57,-0.35 z"
           id="path4938"
           inkscape:connector-curvature="0"
           style="fill:#000000;stroke-width:0" /><path
           d="m 494.68,421.18 0,0.04 0,0.04 0,0.04 0,0.04 0,0.04 0,0.04 0,0.03 0,0.04 -0.01,0.03 0,0.03 0,0.04 0,0.03 -0.01,0.02 0,0.03 0,0.03 -0.01,0.03 0,0.02 0,0.02 -0.02,0.05 -0.01,0.04 -0.01,0.04 -0.02,0.03 -0.02,0.03 -0.02,0.03 -0.03,0.03 -0.02,0.02 -0.03,0.02 -0.04,0.02 -0.03,0.01 -0.04,0.01 -0.05,0.02 -0.05,0 -0.02,0.01 -0.03,0 -0.03,0.01 -0.02,0 -0.03,0 -0.03,0 -0.04,0 -0.03,0.01 -0.03,0 -0.04,0 -0.03,0 -0.04,0 -0.04,0 -0.04,0 -0.04,0 -0.04,0 -0.05,0 -0.04,0 c -2.24,-2.19 -5.41,-2.23 -6.84,-2.23 l 0,-1.25 c 0.84,0 3.14,0 5.06,0.97 l 0,-17.78 c 0,-1.15 0,-1.61 -3.49,-1.61 l -1.33,0 0,-1.25 12.45,0 0,1.25 -1.32,0 c -3.49,0 -3.49,0.46 -3.49,1.61 z"
           id="path4940"
           inkscape:connector-curvature="0"
           style="fill:#000000;stroke-width:0" /></g>    </g>
    <g
       id="g5692"
       transform="matrix(0.25307678,0,0,0.25307678,141.61463,171.48379)">
      <g
         word-spacing="normal"
         letter-spacing="normal"
         font-size-adjust="none"
         font-stretch="normal"
         font-weight="normal"
         font-variant="normal"
         font-style="normal"
         stroke-miterlimit="10.433"
         xml:space="preserve"
         transform="matrix(2.7398395,0,0,-2.7398395,-479.47191,1521.184)"
         id="g5694"
         style="font-style:normal;font-variant:normal;font-weight:normal;font-stretch:normal;letter-spacing:normal;word-spacing:normal;text-anchor:start;fill:none;fill-opacity:1;fill-rule:evenodd;stroke:#000000;stroke-linecap:butt;stroke-linejoin:miter;stroke-miterlimit:10.43299961;stroke-dasharray:none;stroke-dashoffset:0;stroke-opacity:1"><path
           id="path5696"
           d="m 482.6,408.39 -0.5,0.5 c -0.3,-0.05 -9.36,-0.75 -14.54,-0.75 -0.25,0 -0.6,0.35 -0.65,0.65 -0.2,5.38 -0.35,11.16 -0.35,16.79 0,3.98 0.1,7.87 0.3,11.5 0.05,0.55 0.3,1.15 0.9,1.25 1.04,0.25 3.19,0.7 3.23,0.7 l 0,1.04 -0.29,0.3 -11.81,0 -0.35,-0.35 -0.05,-0.84 c 0.05,0 1.89,-0.4 2.89,-0.6 0.75,-0.15 1.05,-0.95 1.05,-1.65 l 0,-23.81 c 0,-2.59 -0.3,-5.23 -1.1,-6.32 l 0,-0.7 c 6.87,0 16.88,0 20.57,-0.35 z"
           inkscape:connector-curvature="0"
           style="fill:#000000;stroke-width:0" /><path
           id="path5698"
           d="m 500.99,410.12 0,0.71 -0.02,0.68 -0.03,0.66 -0.04,0.64 -0.06,0.62 -0.08,0.59 -0.09,0.58 -0.11,0.56 -0.12,0.55 -0.15,0.53 -0.17,0.51 -0.19,0.5 -0.21,0.49 -0.24,0.48 -0.26,0.47 -0.14,0.24 -0.15,0.23 c -1.07,1.6 -3.24,2.99 -6.03,2.99 l 0,-0.97 c 1.89,0 3.7,-1.15 4.33,-3.18 0.56,-1.88 0.59,-4.39 0.59,-7.42 0,-2.58 0,-5.17 -0.45,-7.36 -0.7,-3.17 -3.07,-3.94 -4.47,-3.94 l 0,0 c -1.6,0 -3.73,0.94 -4.43,3.8 -0.49,2.06 -0.49,4.92 -0.49,7.5 0,2.54 0,5.19 0.53,7.11 0.73,2.76 2.96,3.49 4.39,3.49 l 0,0.97 c -8.09,0 -8.09,-9.52 -8.09,-12.03 0,-2.51 0,-11.82 8.09,-11.82 8.09,0 8.09,9.31 8.09,11.82 z"
           inkscape:connector-curvature="0"
           style="fill:#000000;stroke-width:0" /></g>    </g>
    <g
       id="g6458"
       transform="matrix(0.25307678,0,0,0.25307678,260.54032,171.72647)">
      <g
         id="g6460"
         transform="matrix(2.7398395,0,0,-2.7398395,-479.47191,1521.184)"
         xml:space="preserve"
         stroke-miterlimit="10.433"
         font-style="normal"
         font-variant="normal"
         font-weight="normal"
         font-stretch="normal"
         font-size-adjust="none"
         letter-spacing="normal"
         word-spacing="normal"
         style="font-style:normal;font-variant:normal;font-weight:normal;font-stretch:normal;letter-spacing:normal;word-spacing:normal;text-anchor:start;fill:none;fill-opacity:1;fill-rule:evenodd;stroke:#000000;stroke-linecap:butt;stroke-linejoin:miter;stroke-miterlimit:10.43299961;stroke-dasharray:none;stroke-dashoffset:0;stroke-opacity:1"><path
           d="m 482.6,408.39 -0.5,0.5 c -0.3,-0.05 -9.36,-0.75 -14.54,-0.75 -0.25,0 -0.6,0.35 -0.65,0.65 -0.2,5.38 -0.35,11.16 -0.35,16.79 0,3.98 0.1,7.87 0.3,11.5 0.05,0.55 0.3,1.15 0.9,1.25 1.04,0.25 3.19,0.7 3.23,0.7 l 0,1.04 -0.29,0.3 -11.81,0 -0.35,-0.35 -0.05,-0.84 c 0.05,0 1.89,-0.4 2.89,-0.6 0.75,-0.15 1.05,-0.95 1.05,-1.65 l 0,-23.81 c 0,-2.59 -0.3,-5.23 -1.1,-6.32 l 0,-0.7 c 6.87,0 16.88,0 20.57,-0.35 z"
           id="path6462"
           inkscape:connector-curvature="0"
           style="fill:#000000;stroke-width:0" /><path
           d="m 500.61,405.35 -1.19,0 c -0.1,-0.77 -0.45,-2.83 -0.9,-3.18 -0.28,-0.21 -2.97,-0.21 -3.45,-0.21 l -6.42,0 c 3.66,3.25 4.88,4.22 6.97,5.86 2.58,2.06 4.99,4.22 4.99,7.54 0,4.21 -3.7,6.79 -8.16,6.79 -4.33,0 -7.25,-3.03 -7.25,-6.24 0,-1.78 1.5,-1.95 1.84,-1.95 0.84,0 1.85,0.59 1.85,1.85 0,0.62 -0.24,1.85 -2.05,1.85 1.08,2.47 3.45,3.24 5.09,3.24 3.48,0 5.3,-2.72 5.3,-5.54 0,-3.04 -2.16,-5.45 -3.28,-6.7 l -8.4,-8.3 c -0.35,-0.31 -0.35,-0.38 -0.35,-1.36 l 14.36,0 z"
           id="path6464"
           inkscape:connector-curvature="0"
           style="fill:#000000;stroke-width:0" /></g>    </g>
    <g
       id="g7232"
       transform="matrix(0.25307678,0,0,0.25307678,319.82981,171.48379)">
      <g
         word-spacing="normal"
         letter-spacing="normal"
         font-size-adjust="none"
         font-stretch="normal"
         font-weight="normal"
         font-variant="normal"
         font-style="normal"
         stroke-miterlimit="10.433"
         xml:space="preserve"
         transform="matrix(2.7398395,0,0,-2.7398395,-479.47191,1521.184)"
         id="g7234"
         style="font-style:normal;font-variant:normal;font-weight:normal;font-stretch:normal;letter-spacing:normal;word-spacing:normal;text-anchor:start;fill:none;fill-opacity:1;fill-rule:evenodd;stroke:#000000;stroke-linecap:butt;stroke-linejoin:miter;stroke-miterlimit:10.43299961;stroke-dasharray:none;stroke-dashoffset:0;stroke-opacity:1"><path
           id="path7236"
           d="m 482.6,408.39 -0.5,0.5 c -0.3,-0.05 -9.36,-0.75 -14.54,-0.75 -0.25,0 -0.6,0.35 -0.65,0.65 -0.2,5.38 -0.35,11.16 -0.35,16.79 0,3.98 0.1,7.87 0.3,11.5 0.05,0.55 0.3,1.15 0.9,1.25 1.04,0.25 3.19,0.7 3.23,0.7 l 0,1.04 -0.29,0.3 -11.81,0 -0.35,-0.35 -0.05,-0.84 c 0.05,0 1.89,-0.4 2.89,-0.6 0.75,-0.15 1.05,-0.95 1.05,-1.65 l 0,-23.81 c 0,-2.59 -0.3,-5.23 -1.1,-6.32 l 0,-0.7 c 6.87,0 16.88,0 20.57,-0.35 z"
           inkscape:connector-curvature="0"
           style="fill:#000000;stroke-width:0" /><path
           id="path7238"
           d="m 492.52,410.64 0.25,0 0.25,-0.02 0.24,-0.02 0.24,-0.04 0.23,-0.05 0.23,-0.06 0.22,-0.07 0.22,-0.09 0.21,-0.09 0.2,-0.11 0.19,-0.11 0.19,-0.13 0.18,-0.13 0.18,-0.15 0.17,-0.16 0.15,-0.17 0.16,-0.18 0.14,-0.2 0.13,-0.2 0.13,-0.21 0.12,-0.23 0.11,-0.23 0.09,-0.25 0.09,-0.26 0.08,-0.27 0.07,-0.28 0.06,-0.29 0.05,-0.3 0.04,-0.31 0.03,-0.32 0.02,-0.33 0,-0.35 c 0,-4.32 -2.51,-5.61 -4.53,-5.61 -1.39,0 -4.46,0.38 -5.93,2.44 1.64,0.07 2.02,1.22 2.02,1.95 0,1.12 -0.83,1.92 -1.91,1.92 -0.98,0 -1.96,-0.59 -1.96,-2.02 0,-3.28 3.63,-5.41 7.85,-5.41 4.84,0 8.19,3.25 8.19,6.73 0,2.72 -2.23,5.44 -6.06,6.24 3.66,1.33 4.98,3.94 4.98,6.07 0,2.76 -3.17,4.81 -7.04,4.81 -3.87,0 -6.84,-1.88 -6.84,-4.67 0,-1.18 0.77,-1.85 1.82,-1.85 1.08,0 1.77,0.8 1.77,1.78 0,1.01 -0.69,1.75 -1.77,1.81 1.22,1.54 3.62,1.92 4.92,1.92 1.56,0 3.76,-0.76 3.76,-3.8 0,-1.46 -0.49,-3.07 -1.39,-4.15 -1.16,-1.32 -2.13,-1.39 -3.87,-1.5 -0.88,-0.07 -0.95,-0.07 -1.12,-0.1 -0.07,0 -0.35,-0.07 -0.35,-0.46 0,-0.49 0.31,-0.49 0.91,-0.49 z"
           inkscape:connector-curvature="0"
           style="fill:#000000;stroke-width:0" /></g>    </g>
    <rect
       style="fill:none;fill-opacity:1;stroke:#000000;stroke-width:1.70000005;stroke-miterlimit:4;stroke-dasharray:none;stroke-dashoffset:0;stroke-opacity:1"
       id="rect9218"
       width="59.396969"
       height="39.59798"
       x="323.21973"
       y="245.89854" />
    <rect
       style="fill:none;fill-opacity:1;stroke:#000000;stroke-width:1.70000005;stroke-miterlimit:4;stroke-dasharray:none;stroke-dashoffset:0;stroke-opacity:1"
       id="rect9218-3"
       width="59.396969"
       height="39.59798"
       x="382.6167"
       y="245.89854" />
    <rect
       style="fill:none;fill-opacity:1;stroke:#000000;stroke-width:1.70000005;stroke-miterlimit:4;stroke-dasharray:none;stroke-dashoffset:0;stroke-opacity:1"
       id="rect9218-3-6"
       width="59.396969"
       height="39.59798"
       x="442.01367"
       y="245.89854" />
    <rect
       style="fill:none;fill-opacity:1;stroke:#000000;stroke-width:1.70000005;stroke-miterlimit:4;stroke-dasharray:none;stroke-dashoffset:0;stroke-opacity:1"
       id="rect9218-3-7"
       width="59.396969"
       height="39.59798"
       x="501.41064"
       y="245.89854" />
    <g
       transform="translate(-5.6567402,0)"
       id="g10055">
      <circle
         r="15.909903"
         cy="344.99127"
         cx="447.67041"
         id="path9256"
         style="fill:none;fill-opacity:1;stroke:#000000;stroke-width:1.70000005;stroke-miterlimit:4;stroke-dasharray:none;stroke-dashoffset:0;stroke-opacity:1" />
      <g
         id="g9642"
         transform="matrix(0.23798495,0,0,0.23798495,252.18539,256.01436)">
        <g
           word-spacing="normal"
           letter-spacing="normal"
           font-size-adjust="none"
           font-stretch="normal"
           font-weight="normal"
           font-variant="normal"
           font-style="normal"
           stroke-miterlimit="10.433"
           xml:space="preserve"
           transform="matrix(2.7398395,0,0,-2.7398395,-479.47191,1521.184)"
           id="g9644"
           style="font-style:normal;font-variant:normal;font-weight:normal;font-stretch:normal;letter-spacing:normal;word-spacing:normal;text-anchor:start;fill:none;fill-opacity:1;fill-rule:evenodd;stroke:#000000;stroke-linecap:butt;stroke-linejoin:miter;stroke-miterlimit:10.43299961;stroke-dasharray:none;stroke-dashoffset:0;stroke-opacity:1"><polygon
             id="polygon9646"
             points="475.73,419.75 475.73,435.19 473.73,434.89 473.73,419.75 458.64,419.75 458.29,417.76 473.73,417.76 473.73,402.31 475.73,402.66 475.73,417.76 491.07,417.76 491.32,419.75 "
             style="fill:#000000;stroke-width:0" /></g>      </g>
    </g>
    <path
       inkscape:connector-curvature="0"
       id="path10063"
       d="m 352.91819,285.49652 0,59.49475 73.1856,0"
       style="fill:none;fill-rule:evenodd;stroke:#000000;stroke-width:1.70000005;stroke-linecap:butt;stroke-linejoin:miter;stroke-miterlimit:4;stroke-dasharray:none;stroke-opacity:1" />
    <path
       inkscape:connector-curvature="0"
       id="path10065"
       d="m 531.10909,285.49652 0,59.49475 -73.1855,0"
       style="fill:none;fill-rule:evenodd;stroke:#000000;stroke-width:1.70000005;stroke-linecap:butt;stroke-linejoin:miter;stroke-miterlimit:4;stroke-dasharray:none;stroke-opacity:1" />
    <path
       inkscape:connector-curvature="0"
       id="path10069"
       d="m 471.71219,285.49652 0,48.51832 -18.1815,0"
       style="fill:none;fill-rule:evenodd;stroke:#000000;stroke-width:1.70000005;stroke-linecap:butt;stroke-linejoin:miter;stroke-miterlimit:4;stroke-dasharray:none;stroke-opacity:1" />
    <path
       inkscape:connector-curvature="0"
       id="path10071"
       d="m 412.31519,285.49652 0,48.51832 18.1815,0"
       style="fill:none;fill-rule:evenodd;stroke:#000000;stroke-width:1.70000005;stroke-linecap:butt;stroke-linejoin:miter;stroke-miterlimit:4;stroke-dasharray:none;stroke-opacity:1" />
    <path
       style="fill:none;fill-rule:evenodd;stroke:#000000;stroke-width:1.70000005;stroke-linecap:butt;stroke-linejoin:miter;stroke-miterlimit:4;stroke-dasharray:none;stroke-opacity:1"
       d="m 442.01369,360.90117 0,25.35875"
       id="path16151"
       inkscape:connector-curvature="0" />
    <g
       id="g16206"
       transform="translate(11.448504,0)">
      <g
         transform="matrix(0,-0.36136634,0.36136634,0,253.37538,529.1782)"
         id="g5104-64-5">
        <g
           style="font-style:normal;font-variant:normal;font-weight:normal;font-stretch:normal;letter-spacing:normal;word-spacing:normal;text-anchor:start;fill:none;fill-opacity:1;fill-rule:evenodd;stroke:#000000;stroke-linecap:butt;stroke-linejoin:miter;stroke-miterlimit:10.43299961;stroke-dasharray:none;stroke-dashoffset:0;stroke-opacity:1"
           id="g5106-3-6"
           transform="matrix(1.0629921,0,0,-1.0629921,-186.02362,789.27165)"
           xml:space="preserve"
           stroke-miterlimit="10.433"
           font-style="normal"
           font-variant="normal"
           font-weight="normal"
           font-stretch="normal"
           font-size-adjust="none"
           letter-spacing="normal"
           word-spacing="normal"><path
             style="fill:#000000;stroke-width:0"
             inkscape:connector-curvature="0"
             d="m 475.48,424.63 -0.13,-0.01 -0.13,-0.01 -0.12,-0.02 -0.13,-0.03 -0.12,-0.03 -0.11,-0.03 -0.11,-0.04 -0.12,-0.05 -0.1,-0.05 -0.11,-0.05 -0.1,-0.06 -0.09,-0.06 -0.1,-0.07 -0.08,-0.07 -0.09,-0.07 -0.08,-0.08 -0.08,-0.08 -0.07,-0.08 -0.07,-0.09 -0.07,-0.08 -0.06,-0.09 -0.05,-0.1 -0.05,-0.09 -0.05,-0.1 -0.04,-0.09 -0.03,-0.1 -0.03,-0.1 -0.03,-0.1 -0.02,-0.11 -0.01,-0.1 -0.01,-0.1 0,-0.1 c 0,-0.7 0.45,-1.44 1.54,-1.44 1.1,0 2.29,0.84 2.29,2.78 0,2.25 -2.14,4.29 -5.93,4.29 -6.57,0 -8.42,-5.08 -8.42,-7.27 0,-3.89 3.69,-4.64 5.14,-4.94 2.59,-0.49 5.18,-1.04 5.18,-3.78 0,-1.3 -1.15,-5.48 -7.13,-5.48 -0.69,0 -4.53,0 -5.67,2.64 1.89,-0.25 3.13,1.24 3.13,2.64 0,1.14 -0.79,1.74 -1.84,1.74 -1.29,0 -2.79,-1.04 -2.79,-3.28 0,-2.84 2.84,-4.84 7.12,-4.84 8.08,0 10.02,6.03 10.02,8.27 0,1.8 -0.95,3.04 -1.55,3.64 -1.34,1.39 -2.79,1.64 -4.98,2.09 -1.79,0.4 -3.79,0.75 -3.79,2.99 0,1.44 1.2,4.48 5.58,4.48 1.25,0 3.74,-0.35 4.49,-2.29 z"
             id="path5108-0-2" /><path
             style="fill:#000000;stroke-width:0"
             inkscape:connector-curvature="0"
             d="m 502.46,424.78 0.01,0.06 0.01,0.05 0.01,0.05 0.02,0.06 0.02,0.1 0.01,0.06 0.02,0.05 0.01,0.05 0.01,0.06 0.01,0.05 0.01,0.06 0,0.06 0.01,0.06 0,0.03 0,0.03 0,0.03 0,0.04 c 0,0.84 -0.59,1.34 -1.44,1.34 -0.5,0 -1.85,-0.35 -2.05,-2.14 -0.89,1.84 -2.64,3.14 -4.63,3.14 l 0.05,-1.1 c 3.29,0 3.99,-4.03 3.99,-4.28 0,-0.25 -0.1,-0.55 -0.15,-0.75 l -2.4,-9.51 c -0.29,-1.3 -1.44,-2.54 -2.53,-3.49 -1.05,-0.9 -2.59,-1.79 -4.04,-1.79 -2.49,0 -3.24,2.59 -3.24,4.58 0,2.39 1.45,8.27 2.79,10.81 1.35,2.44 3.49,4.43 5.58,4.43 l -0.05,1.1 c -5.68,0 -11.85,-6.98 -11.85,-14.15 0,-4.93 3.04,-7.87 6.62,-7.87 2.94,0 5.28,2.34 5.78,2.89 l 0.05,-0.05 c -1.05,-4.43 -1.64,-6.48 -1.64,-6.57 -0.2,-0.45 -1.9,-5.39 -7.18,-5.39 -0.94,0 -2.59,0.05 -3.98,0.5 1.49,0.45 2.04,1.74 2.04,2.59 0,0.8 -0.55,1.74 -1.89,1.74 -1.1,0 -2.69,-0.89 -2.69,-2.88 0,-2.04 1.84,-3.04 6.62,-3.04 6.23,0 9.81,3.88 10.56,6.87 z"
             id="path5110-30-9" /><path
             style="fill:#000000;stroke-width:0"
             inkscape:connector-curvature="0"
             d="m 508.38,408.94 -0.01,-0.07 -0.02,-0.08 -0.01,-0.07 -0.02,-0.08 -0.03,-0.16 -0.04,-0.16 -0.04,-0.16 -0.03,-0.16 -0.04,-0.16 -0.04,-0.16 -0.01,-0.08 -0.02,-0.07 -0.02,-0.07 -0.01,-0.07 -0.02,-0.07 -0.01,-0.07 -0.01,-0.06 -0.02,-0.06 -0.01,-0.05 -0.01,-0.06 -0.01,-0.05 0,-0.04 -0.01,-0.04 0,-0.04 -0.01,-0.03 0,-0.02 c 0,-0.9 0.7,-1.35 1.45,-1.35 0.6,0 1.5,0.4 1.84,1.4 0.05,0.1 0.65,2.44 0.95,3.68 l 1.1,4.49 c 0.29,1.09 0.59,2.19 0.84,3.34 0.2,0.84 0.6,2.28 0.65,2.48 0.75,1.55 3.39,6.08 8.12,6.08 2.24,0 2.69,-1.84 2.69,-3.49 0,-3.08 -2.44,-9.46 -3.24,-11.6 -0.45,-1.15 -0.5,-1.74 -0.5,-2.29 0,-2.34 1.75,-4.09 4.09,-4.09 4.68,0 6.52,7.28 6.52,7.67 0,0.5 -0.44,0.5 -0.6,0.5 -0.49,0 -0.49,-0.15 -0.74,-0.89 -1,-3.39 -2.64,-6.18 -5.08,-6.18 -0.85,0 -1.2,0.5 -1.2,1.64 0,1.25 0.45,2.44 0.9,3.54 0.94,2.64 3.04,8.12 3.04,10.96 0,3.33 -2.15,5.33 -5.73,5.33 -4.48,0 -6.93,-3.19 -7.77,-4.34 -0.25,2.79 -2.29,4.34 -4.58,4.34 -2.3,0 -3.24,-1.95 -3.74,-2.84 -0.8,-1.7 -1.49,-4.63 -1.49,-4.83 0,-0.5 0.49,-0.5 0.59,-0.5 0.5,0 0.55,0.05 0.85,1.14 0.84,3.54 1.84,5.93 3.64,5.93 0.99,0 1.54,-0.65 1.54,-2.29 0,-1.04 -0.15,-1.59 -0.8,-4.18 z"
             id="path5112-92-1" /></g>      </g>
      <g
         transform="matrix(0.23341633,0,0,0.23341633,219.9584,317.54939)"
         id="g8014">
        <g
           style="font-style:normal;font-variant:normal;font-weight:normal;font-stretch:normal;letter-spacing:normal;word-spacing:normal;text-anchor:start;fill:none;fill-opacity:1;fill-rule:evenodd;stroke:#000000;stroke-linecap:butt;stroke-linejoin:miter;stroke-miterlimit:10.43299961;stroke-dasharray:none;stroke-dashoffset:0;stroke-opacity:1"
           word-spacing="normal"
           letter-spacing="normal"
           font-size-adjust="none"
           font-stretch="normal"
           font-weight="normal"
           font-variant="normal"
           font-style="normal"
           stroke-miterlimit="10.433"
           xml:space="preserve"
           transform="matrix(2.7398395,0,0,-2.7398395,-479.47191,1521.184)"
           id="g8016"><path
             style="fill:#000000;stroke-width:0"
             inkscape:connector-curvature="0"
             id="path8018"
             d="m 474.23,407.59 0.11,-0.14 0.11,-0.13 0.12,-0.12 0.13,-0.12 0.13,-0.11 0.14,-0.1 0.15,-0.09 0.15,-0.09 0.15,-0.08 0.16,-0.07 0.17,-0.07 0.17,-0.06 0.17,-0.05 0.17,-0.06 0.18,-0.04 0.18,-0.04 0.19,-0.04 0.18,-0.03 0.19,-0.03 0.19,-0.02 0.38,-0.04 0.38,-0.03 0.38,-0.02 0.37,0 0.37,-0.01 0.36,0 c 1.4,0 2.49,0 2.49,1.54 0,1.5 -1.24,1.5 -1.99,1.5 -2.09,0 -2.59,0.25 -2.99,0.4 l 0,10.76 c 0,3.53 -2.69,7.72 -9.86,7.72 -2.14,0 -7.22,0 -7.22,-3.64 0,-1.49 1.04,-2.29 2.24,-2.29 0.74,0 2.14,0.45 2.19,2.29 0,0.4 0.05,0.45 1.05,0.55 0.69,0.05 1.34,0.05 1.79,0.05 3.78,0 6.37,-1.54 6.37,-5.08 l 0,-2.94 0,-4.18 c 0,-1.15 0,-2.2 -1.94,-3.09 -1.79,-0.85 -4.03,-0.85 -4.43,-0.85 -3.09,0 -5.13,1.69 -5.13,3.64 0,2.44 4.28,4.28 11.5,4.48 l 0,0 0,2.94 c -8.81,-0.15 -14.94,-2.64 -14.94,-7.42 0,-3.44 3.14,-6.68 8.22,-6.68 1.84,0 4.93,0.35 7.27,1.89 z" /><path
             style="fill:#000000;stroke-width:0"
             inkscape:connector-curvature="0"
             id="path8020"
             d="m 505.21,411.43 0,0.06 0,0.07 0,0.06 -0.01,0.06 -0.01,0.05 -0.01,0.06 -0.01,0.05 -0.02,0.05 -0.01,0.05 -0.02,0.05 -0.02,0.04 -0.02,0.05 -0.02,0.04 -0.03,0.04 -0.02,0.04 -0.03,0.04 -0.02,0.03 -0.03,0.04 -0.03,0.03 -0.03,0.03 -0.03,0.03 -0.03,0.03 -0.07,0.05 -0.07,0.05 -0.07,0.05 -0.07,0.03 -0.08,0.04 -0.07,0.03 -0.08,0.03 -0.07,0.02 -0.08,0.02 -0.07,0.02 -0.07,0.01 -0.07,0.01 -0.07,0.01 -0.07,0.01 -0.06,0 -0.06,0.01 -0.05,0 -0.05,0 -0.04,0 -0.04,0 -0.02,0 -0.01,0 c -0.8,0 -1.29,-0.09 -1.65,-1.09 -0.29,-0.65 -1.24,-2.99 -4.93,-2.99 -4.23,0 -7.82,3.49 -7.82,8.02 0,2.39 1.4,8.12 8.12,8.12 1.05,0 2.99,0 2.99,-0.45 0.05,-1.74 1,-2.44 2.2,-2.44 1.19,0 2.23,0.85 2.23,2.29 0,3.64 -5.18,3.64 -7.42,3.64 -8.57,0 -11.55,-6.78 -11.55,-11.16 0,-5.98 4.68,-11.06 10.95,-11.06 6.93,0 8.62,4.88 8.62,5.73 z" /><path
             style="fill:#000000;stroke-width:0"
             inkscape:connector-curvature="0"
             id="path8022"
             d="m 531.22,411.43 -0.01,0.06 0,0.07 0,0.06 -0.01,0.06 -0.01,0.05 -0.01,0.06 -0.01,0.05 -0.02,0.05 -0.01,0.05 -0.02,0.05 -0.02,0.04 -0.02,0.05 -0.02,0.04 -0.03,0.04 -0.02,0.04 -0.03,0.04 -0.02,0.03 -0.03,0.04 -0.03,0.03 -0.03,0.03 -0.03,0.03 -0.03,0.03 -0.07,0.05 -0.07,0.05 -0.07,0.05 -0.07,0.03 -0.08,0.04 -0.07,0.03 -0.08,0.03 -0.07,0.02 -0.08,0.02 -0.07,0.02 -0.07,0.01 -0.07,0.01 -0.07,0.01 -0.07,0.01 -0.06,0 -0.06,0.01 -0.05,0 -0.05,0 -0.04,0 -0.04,0 -0.02,0 -0.01,0 c -0.8,0 -1.29,-0.09 -1.65,-1.09 -0.29,-0.65 -1.24,-2.99 -4.92,-2.99 -4.24,0 -7.83,3.49 -7.83,8.02 0,2.39 1.4,8.12 8.12,8.12 1.05,0 2.99,0 2.99,-0.45 0.05,-1.74 1,-2.44 2.2,-2.44 1.19,0 2.23,0.85 2.23,2.29 0,3.64 -5.18,3.64 -7.42,3.64 -8.57,0 -11.55,-6.78 -11.55,-11.16 0,-5.98 4.68,-11.06 10.95,-11.06 6.93,0 8.63,4.88 8.63,5.73 z" /><path
             style="fill:#000000;stroke-width:0"
             inkscape:connector-curvature="0"
             id="path8024"
             d="m 551.83,407.59 0.01,-0.07 0,-0.07 0.01,-0.07 0,-0.07 0.01,-0.06 0.01,-0.06 0.01,-0.06 0.02,-0.06 0.01,-0.06 0.01,-0.05 0.02,-0.05 0.02,-0.06 0.02,-0.04 0.02,-0.05 0.02,-0.04 0.02,-0.05 0.02,-0.04 0.03,-0.04 0.02,-0.04 0.03,-0.03 0.05,-0.07 0.06,-0.06 0.06,-0.06 0.06,-0.05 0.07,-0.04 0.07,-0.04 0.07,-0.04 0.08,-0.03 0.08,-0.02 0.07,-0.03 0.08,-0.02 0.09,-0.01 0.08,-0.01 0.08,-0.02 0.09,0 0.08,-0.01 0.17,-0.01 0.17,0 0.17,0 3.64,0 c 0.8,0 2.04,0 2.04,1.54 0,1.5 -1.29,1.5 -1.99,1.5 l -2.24,0 0,16.39 c 0,1.54 -0.3,2.04 -1.99,2.04 l -3.64,0 c -0.8,0 -2.04,0 -2.04,-1.54 0,-1.5 1.3,-1.5 1.99,-1.5 l 2.24,0 0,-10.61 c 0,-4.48 -4.03,-5.08 -5.63,-5.08 -3.93,0 -3.93,1.64 -3.93,3.24 l 0,13.45 c 0,1.54 -0.3,2.04 -1.99,2.04 l -3.64,0 c -0.8,0 -2.04,0 -2.04,-1.54 0,-1.5 1.3,-1.5 1.99,-1.5 l 2.24,0 0,-12.75 c 0,-4.78 3.44,-5.98 7.08,-5.98 2.04,0 4.08,0.5 5.92,1.89 z" /><path
             style="fill:#000000;stroke-width:0"
             inkscape:connector-curvature="0"
             id="path8026"
             d="m 565.43,425.98 -0.01,0.07 0,0.06 -0.01,0.07 -0.01,0.06 -0.01,0.06 -0.01,0.06 -0.01,0.05 -0.02,0.06 -0.01,0.05 -0.02,0.05 -0.02,0.05 -0.02,0.05 -0.01,0.04 -0.02,0.05 -0.03,0.04 -0.02,0.04 -0.02,0.04 -0.03,0.04 -0.05,0.06 -0.05,0.07 -0.06,0.05 -0.06,0.06 -0.06,0.04 -0.07,0.05 -0.07,0.03 -0.07,0.04 -0.07,0.02 -0.08,0.03 -0.08,0.02 -0.07,0.02 -0.08,0.01 -0.09,0.02 -0.08,0.01 -0.08,0 -0.08,0.01 -0.17,0.01 -0.17,0 -0.17,0 -1.6,0 c -0.74,0 -2.04,0 -2.04,-1.49 0,-1.55 1.05,-1.55 2.84,-1.55 l 0,-15.39 c -1.79,0 -2.84,0 -2.84,-1.54 0,-1.5 1.35,-1.5 2.04,-1.5 l 4.39,0 c 0.74,0 2.04,0 2.04,1.5 0,1.54 -1.05,1.54 -2.84,1.54 l 0,8.92 c 0,4.43 2.04,6.77 4.09,6.77 1.14,0 1.83,-0.85 1.83,-4.09 l 0,-11.6 c -0.94,0 -2.19,0 -2.19,-1.54 0,-1.5 1.35,-1.5 2.05,-1.5 l 3.74,0 c 0.74,0 2.03,0 2.03,1.5 0,1.54 -1.04,1.54 -2.83,1.54 l 0,8.92 c 0,4.43 2.04,6.77 4.08,6.77 1.15,0 1.84,-0.85 1.84,-4.09 l 0,-11.6 c -0.94,0 -2.19,0 -2.19,-1.54 0,-1.5 1.35,-1.5 2.05,-1.5 l 3.73,0 c 0.75,0 2.04,0 2.04,1.5 0,1.54 -1.04,1.54 -2.84,1.54 l 0,12.05 c 0,1 0,6.68 -4.43,6.68 -1.49,0 -3.53,-0.65 -4.93,-2.59 -0.75,1.69 -2.15,2.59 -3.78,2.59 -1.6,0 -3.1,-0.7 -4.29,-1.79 z" /></g>      </g>
      <rect
         y="386.25992"
         x="391.81519"
         height="39.597992"
         width="100.39697"
         id="rect9218-5"
         style="fill:none;fill-opacity:1;stroke:#000000;stroke-width:1.70000005;stroke-miterlimit:4;stroke-dasharray:none;stroke-dashoffset:0;stroke-opacity:1" />
      <rect
         y="386.25992"
         x="368.91821"
         height="39.597992"
         width="22.896973"
         id="rect9218-5-3"
         style="fill:none;fill-opacity:1;stroke:#000000;stroke-width:1.70000005;stroke-miterlimit:4;stroke-dasharray:none;stroke-dashoffset:0;stroke-opacity:1" />
    </g>
    <g
       id="g16325"
       transform="translate(27.468616,0)">
      <rect
         y="482.36685"
         x="353.75113"
         height="39.597961"
         width="30.396973"
         id="rect9218-2"
         style="fill:none;fill-opacity:1;stroke:#000000;stroke-width:1.70000005;stroke-miterlimit:4;stroke-dasharray:none;stroke-dashoffset:0;stroke-opacity:1" />
      <rect
         y="482.36685"
         x="384.1481"
         height="39.597961"
         width="30.396973"
         id="rect9218-2-9"
         style="fill:none;fill-opacity:1;stroke:#000000;stroke-width:1.70000005;stroke-miterlimit:4;stroke-dasharray:none;stroke-dashoffset:0;stroke-opacity:1" />
      <rect
         y="482.36685"
         x="414.54507"
         height="39.597961"
         width="30.396973"
         id="rect9218-2-2"
         style="fill:none;fill-opacity:1;stroke:#000000;stroke-width:1.70000005;stroke-miterlimit:4;stroke-dasharray:none;stroke-dashoffset:0;stroke-opacity:1" />
      <rect
         y="482.36685"
         x="444.94205"
         height="39.597961"
         width="30.396973"
         id="rect9218-2-28"
         style="fill:none;fill-opacity:1;stroke:#000000;stroke-width:1.70000005;stroke-miterlimit:4;stroke-dasharray:none;stroke-dashoffset:0;stroke-opacity:1" />
    </g>
    <path
       style="fill:none;fill-rule:evenodd;stroke:#000000;stroke-width:1px;stroke-linecap:butt;stroke-linejoin:miter;stroke-opacity:1"
       d="m 380.36669,425.85791 123.294,0"
       id="path16331"
       inkscape:connector-curvature="0" />
    <path
       style="fill:none;fill-rule:evenodd;stroke:#000000;stroke-width:1px;stroke-linecap:butt;stroke-linejoin:miter;stroke-opacity:1"
       d="m 426.81519,454.11238 0,28.25447"
       id="path16343"
       inkscape:connector-curvature="0" />
    <path
       style="fill:none;fill-rule:evenodd;stroke:#000000;stroke-width:1px;stroke-linecap:butt;stroke-linejoin:miter;stroke-opacity:1"
       d="m 396.40319,454.11238 60.809,0 0,28.25447"
       id="path16345"
       inkscape:connector-curvature="0"
       sodipodi:nodetypes="ccc" />
    <path
       style="fill:none;fill-rule:evenodd;stroke:#000000;stroke-width:1px;stroke-linecap:butt;stroke-linejoin:miter;stroke-opacity:1"
       d="m 457.21219,454.11238 30.397,0 0,28.25447"
       id="path16347"
       inkscape:connector-curvature="0" />
    <path
       style="fill:none;fill-rule:evenodd;stroke:#000000;stroke-width:1px;stroke-linecap:butt;stroke-linejoin:miter;stroke-opacity:1"
       d="m 391.81519,425.85791 0,28.25447 4.588,0 0,28.25447"
       id="path16351"
       inkscape:connector-curvature="0" />
    <g
       id="g16739"
       transform="matrix(0.20459987,0,0,0.20459987,257.78068,423.06696)">
      <g
         id="content"
         transform="matrix(2.7398395,0,0,-2.7398395,-479.47191,1521.184)"
         xml:space="preserve"
         stroke-miterlimit="10.433"
         font-style="normal"
         font-variant="normal"
         font-weight="normal"
         font-stretch="normal"
         font-size-adjust="none"
         letter-spacing="normal"
         word-spacing="normal"
         style="font-style:normal;font-variant:normal;font-weight:normal;font-stretch:normal;letter-spacing:normal;word-spacing:normal;text-anchor:start;fill:none;fill-opacity:1;fill-rule:evenodd;stroke:#000000;stroke-linecap:butt;stroke-linejoin:miter;stroke-miterlimit:10.43299961;stroke-dasharray:none;stroke-dashoffset:0;stroke-opacity:1"><path
           d="m 474.73,425.08 -0.02,0.28 -0.04,0.27 -0.05,0.25 -0.07,0.25 -0.08,0.23 -0.09,0.23 -0.11,0.21 -0.12,0.21 -0.13,0.19 -0.14,0.18 -0.15,0.18 -0.16,0.16 -0.17,0.16 -0.18,0.14 -0.19,0.14 -0.2,0.12 -0.2,0.12 -0.21,0.11 -0.22,0.1 -0.22,0.09 -0.22,0.09 -0.24,0.07 -0.23,0.07 -0.24,0.06 -0.24,0.06 -0.24,0.04 -0.24,0.04 -0.25,0.03 -0.24,0.02 -0.25,0.02 -0.24,0.01 -0.25,0 c -4.14,0 -8.62,-2.64 -8.62,-7.12 0,-3.29 3.09,-5.08 6.23,-6.38 2.34,-0.99 4.93,-2.34 4.93,-4.88 0,-2.04 -2.14,-3.78 -4.23,-3.78 -3.14,0 -5.48,2.64 -5.68,5.72 l -0.7,0.05 -2.44,-3.53 c 1.64,-3.14 4.34,-4.14 7.32,-4.14 4.39,0 9.37,2.64 9.37,7.73 0,2.33 -1.89,4.13 -5.73,5.77 -3.64,1.55 -5.48,2.79 -5.48,4.78 0,2.3 1.74,4.04 4.09,4.04 2.23,0 3.08,-1.69 3.23,-3.88 l 0.6,-0.36 z"
           id="path16742"
           inkscape:connector-curvature="0"
           style="fill:#000000;stroke-width:0" /><path
           d="m 489.68,421.18 0,0.04 0,0.04 0,0.04 0,0.04 0,0.04 0,0.04 0,0.03 0,0.04 -0.01,0.03 0,0.03 0,0.04 0,0.03 -0.01,0.02 0,0.03 0,0.03 -0.01,0.03 0,0.02 0,0.02 -0.02,0.05 -0.01,0.04 -0.01,0.04 -0.02,0.03 -0.02,0.03 -0.02,0.03 -0.03,0.03 -0.02,0.02 -0.03,0.02 -0.04,0.02 -0.03,0.01 -0.04,0.01 -0.05,0.02 -0.05,0 -0.02,0.01 -0.03,0 -0.03,0.01 -0.02,0 -0.03,0 -0.03,0 -0.04,0 -0.03,0.01 -0.03,0 -0.04,0 -0.03,0 -0.04,0 -0.04,0 -0.04,0 -0.04,0 -0.04,0 -0.05,0 -0.04,0 c -2.24,-2.19 -5.41,-2.23 -6.84,-2.23 l 0,-1.25 c 0.84,0 3.14,0 5.06,0.97 l 0,-17.78 c 0,-1.15 0,-1.61 -3.49,-1.61 l -1.33,0 0,-1.25 12.45,0 0,1.25 -1.32,0 c -3.49,0 -3.49,0.46 -3.49,1.61 z"
           id="path16744"
           inkscape:connector-curvature="0"
           style="fill:#000000;stroke-width:0" /></g>    </g>
    <g
       id="g17524"
       transform="matrix(0.20459987,0,0,0.20459987,287.86374,423.06696)">
      <g
         word-spacing="normal"
         letter-spacing="normal"
         font-size-adjust="none"
         font-stretch="normal"
         font-weight="normal"
         font-variant="normal"
         font-style="normal"
         stroke-miterlimit="10.433"
         xml:space="preserve"
         transform="matrix(2.7398395,0,0,-2.7398395,-479.47191,1521.184)"
         id="g17526"
         style="font-style:normal;font-variant:normal;font-weight:normal;font-stretch:normal;letter-spacing:normal;word-spacing:normal;text-anchor:start;fill:none;fill-opacity:1;fill-rule:evenodd;stroke:#000000;stroke-linecap:butt;stroke-linejoin:miter;stroke-miterlimit:10.43299961;stroke-dasharray:none;stroke-dashoffset:0;stroke-opacity:1"><path
           id="path17528"
           d="m 474.73,425.08 -0.02,0.28 -0.04,0.27 -0.05,0.25 -0.07,0.25 -0.08,0.23 -0.09,0.23 -0.11,0.21 -0.12,0.21 -0.13,0.19 -0.14,0.18 -0.15,0.18 -0.16,0.16 -0.17,0.16 -0.18,0.14 -0.19,0.14 -0.2,0.12 -0.2,0.12 -0.21,0.11 -0.22,0.1 -0.22,0.09 -0.22,0.09 -0.24,0.07 -0.23,0.07 -0.24,0.06 -0.24,0.06 -0.24,0.04 -0.24,0.04 -0.25,0.03 -0.24,0.02 -0.25,0.02 -0.24,0.01 -0.25,0 c -4.14,0 -8.62,-2.64 -8.62,-7.12 0,-3.29 3.09,-5.08 6.23,-6.38 2.34,-0.99 4.93,-2.34 4.93,-4.88 0,-2.04 -2.14,-3.78 -4.23,-3.78 -3.14,0 -5.48,2.64 -5.68,5.72 l -0.7,0.05 -2.44,-3.53 c 1.64,-3.14 4.34,-4.14 7.32,-4.14 4.39,0 9.37,2.64 9.37,7.73 0,2.33 -1.89,4.13 -5.73,5.77 -3.64,1.55 -5.48,2.79 -5.48,4.78 0,2.3 1.74,4.04 4.09,4.04 2.23,0 3.08,-1.69 3.23,-3.88 l 0.6,-0.36 z"
           inkscape:connector-curvature="0"
           style="fill:#000000;stroke-width:0" /><path
           id="path17530"
           d="m 495.61,405.35 -1.19,0 c -0.1,-0.77 -0.45,-2.83 -0.9,-3.18 -0.28,-0.21 -2.97,-0.21 -3.45,-0.21 l -6.42,0 c 3.66,3.25 4.88,4.22 6.97,5.86 2.58,2.06 4.99,4.22 4.99,7.54 0,4.21 -3.7,6.79 -8.16,6.79 -4.33,0 -7.25,-3.03 -7.25,-6.24 0,-1.78 1.5,-1.95 1.84,-1.95 0.84,0 1.85,0.59 1.85,1.85 0,0.62 -0.24,1.85 -2.05,1.85 1.08,2.47 3.45,3.24 5.09,3.24 3.48,0 5.3,-2.72 5.3,-5.54 0,-3.04 -2.16,-5.45 -3.28,-6.7 l -8.4,-8.3 c -0.35,-0.31 -0.35,-0.38 -0.35,-1.36 l 14.36,0 z"
           inkscape:connector-curvature="0"
           style="fill:#000000;stroke-width:0" /></g>    </g>
    <g
       id="g18318"
       transform="matrix(0.20459987,0,0,0.20459987,226.96328,422.87076)">
      <g
         id="g18320"
         transform="matrix(2.7398395,0,0,-2.7398395,-479.47191,1521.184)"
         xml:space="preserve"
         stroke-miterlimit="10.433"
         font-style="normal"
         font-variant="normal"
         font-weight="normal"
         font-stretch="normal"
         font-size-adjust="none"
         letter-spacing="normal"
         word-spacing="normal"
         style="font-style:normal;font-variant:normal;font-weight:normal;font-stretch:normal;letter-spacing:normal;word-spacing:normal;text-anchor:start;fill:none;fill-opacity:1;fill-rule:evenodd;stroke:#000000;stroke-linecap:butt;stroke-linejoin:miter;stroke-miterlimit:10.43299961;stroke-dasharray:none;stroke-dashoffset:0;stroke-opacity:1"><path
           d="m 474.73,425.08 -0.02,0.28 -0.04,0.27 -0.05,0.25 -0.07,0.25 -0.08,0.23 -0.09,0.23 -0.11,0.21 -0.12,0.21 -0.13,0.19 -0.14,0.18 -0.15,0.18 -0.16,0.16 -0.17,0.16 -0.18,0.14 -0.19,0.14 -0.2,0.12 -0.2,0.12 -0.21,0.11 -0.22,0.1 -0.22,0.09 -0.22,0.09 -0.24,0.07 -0.23,0.07 -0.24,0.06 -0.24,0.06 -0.24,0.04 -0.24,0.04 -0.25,0.03 -0.24,0.02 -0.25,0.02 -0.24,0.01 -0.25,0 c -4.14,0 -8.62,-2.64 -8.62,-7.12 0,-3.29 3.09,-5.08 6.23,-6.38 2.34,-0.99 4.93,-2.34 4.93,-4.88 0,-2.04 -2.14,-3.78 -4.23,-3.78 -3.14,0 -5.48,2.64 -5.68,5.72 l -0.7,0.05 -2.44,-3.53 c 1.64,-3.14 4.34,-4.14 7.32,-4.14 4.39,0 9.37,2.64 9.37,7.73 0,2.33 -1.89,4.13 -5.73,5.77 -3.64,1.55 -5.48,2.79 -5.48,4.78 0,2.3 1.74,4.04 4.09,4.04 2.23,0 3.08,-1.69 3.23,-3.88 l 0.6,-0.36 z"
           id="path18322"
           inkscape:connector-curvature="0"
           style="fill:#000000;stroke-width:0" /><path
           d="m 495.99,410.12 0,0.71 -0.02,0.68 -0.03,0.66 -0.04,0.64 -0.06,0.62 -0.08,0.59 -0.09,0.58 -0.11,0.56 -0.12,0.55 -0.15,0.53 -0.17,0.51 -0.19,0.5 -0.21,0.49 -0.24,0.48 -0.26,0.47 -0.14,0.24 -0.15,0.23 c -1.07,1.6 -3.24,2.99 -6.03,2.99 l 0,-0.97 c 1.89,0 3.7,-1.15 4.33,-3.18 0.56,-1.88 0.59,-4.39 0.59,-7.42 0,-2.58 0,-5.17 -0.45,-7.36 -0.7,-3.17 -3.07,-3.94 -4.47,-3.94 l 0,0 c -1.6,0 -3.73,0.94 -4.43,3.8 -0.49,2.06 -0.49,4.92 -0.49,7.5 0,2.54 0,5.19 0.53,7.11 0.73,2.76 2.96,3.49 4.39,3.49 l 0,0.97 c -8.09,0 -8.09,-9.52 -8.09,-12.03 0,-2.51 0,-11.82 8.09,-11.82 8.09,0 8.09,9.31 8.09,11.82 z"
           id="path18324"
           inkscape:connector-curvature="0"
           style="fill:#000000;stroke-width:0" /></g>    </g>
    <g
       id="g19120"
       transform="matrix(0.20459987,0,0,0.20459987,318.17382,422.87076)">
      <g
         word-spacing="normal"
         letter-spacing="normal"
         font-size-adjust="none"
         font-stretch="normal"
         font-weight="normal"
         font-variant="normal"
         font-style="normal"
         stroke-miterlimit="10.433"
         xml:space="preserve"
         transform="matrix(2.7398395,0,0,-2.7398395,-479.47191,1521.184)"
         id="g19122"
         style="font-style:normal;font-variant:normal;font-weight:normal;font-stretch:normal;letter-spacing:normal;word-spacing:normal;text-anchor:start;fill:none;fill-opacity:1;fill-rule:evenodd;stroke:#000000;stroke-linecap:butt;stroke-linejoin:miter;stroke-miterlimit:10.43299961;stroke-dasharray:none;stroke-dashoffset:0;stroke-opacity:1"><path
           id="path19124"
           d="m 474.73,425.08 -0.02,0.28 -0.04,0.27 -0.05,0.25 -0.07,0.25 -0.08,0.23 -0.09,0.23 -0.11,0.21 -0.12,0.21 -0.13,0.19 -0.14,0.18 -0.15,0.18 -0.16,0.16 -0.17,0.16 -0.18,0.14 -0.19,0.14 -0.2,0.12 -0.2,0.12 -0.21,0.11 -0.22,0.1 -0.22,0.09 -0.22,0.09 -0.24,0.07 -0.23,0.07 -0.24,0.06 -0.24,0.06 -0.24,0.04 -0.24,0.04 -0.25,0.03 -0.24,0.02 -0.25,0.02 -0.24,0.01 -0.25,0 c -4.14,0 -8.62,-2.64 -8.62,-7.12 0,-3.29 3.09,-5.08 6.23,-6.38 2.34,-0.99 4.93,-2.34 4.93,-4.88 0,-2.04 -2.14,-3.78 -4.23,-3.78 -3.14,0 -5.48,2.64 -5.68,5.72 l -0.7,0.05 -2.44,-3.53 c 1.64,-3.14 4.34,-4.14 7.32,-4.14 4.39,0 9.37,2.64 9.37,7.73 0,2.33 -1.89,4.13 -5.73,5.77 -3.64,1.55 -5.48,2.79 -5.48,4.78 0,2.3 1.74,4.04 4.09,4.04 2.23,0 3.08,-1.69 3.23,-3.88 l 0.6,-0.36 z"
           inkscape:connector-curvature="0"
           style="fill:#000000;stroke-width:0" /><path
           id="path19126"
           d="m 487.52,410.64 0.25,0 0.25,-0.02 0.24,-0.02 0.24,-0.04 0.23,-0.05 0.23,-0.06 0.22,-0.07 0.22,-0.09 0.21,-0.09 0.2,-0.11 0.19,-0.11 0.19,-0.13 0.18,-0.13 0.18,-0.15 0.17,-0.16 0.15,-0.17 0.16,-0.18 0.14,-0.2 0.13,-0.2 0.13,-0.21 0.12,-0.23 0.11,-0.23 0.09,-0.25 0.09,-0.26 0.08,-0.27 0.07,-0.28 0.06,-0.29 0.05,-0.3 0.04,-0.31 0.03,-0.32 0.02,-0.33 0,-0.35 c 0,-4.32 -2.51,-5.61 -4.53,-5.61 -1.39,0 -4.46,0.38 -5.93,2.44 1.64,0.07 2.02,1.22 2.02,1.95 0,1.12 -0.83,1.92 -1.91,1.92 -0.98,0 -1.96,-0.59 -1.96,-2.02 0,-3.28 3.63,-5.41 7.85,-5.41 4.84,0 8.19,3.25 8.19,6.73 0,2.72 -2.23,5.44 -6.06,6.24 3.66,1.33 4.98,3.94 4.98,6.07 0,2.76 -3.17,4.81 -7.04,4.81 -3.87,0 -6.84,-1.88 -6.84,-4.67 0,-1.18 0.77,-1.85 1.82,-1.85 1.08,0 1.77,0.8 1.77,1.78 0,1.01 -0.69,1.75 -1.77,1.81 1.22,1.54 3.62,1.92 4.92,1.92 1.56,0 3.76,-0.76 3.76,-3.8 0,-1.46 -0.49,-3.07 -1.39,-4.15 -1.16,-1.32 -2.13,-1.39 -3.87,-1.5 -0.88,-0.07 -0.95,-0.07 -1.12,-0.1 -0.07,0 -0.35,-0.07 -0.35,-0.46 0,-0.49 0.31,-0.49 0.91,-0.49 z"
           inkscape:connector-curvature="0"
           style="fill:#000000;stroke-width:0" /></g>    </g>
  </g>
</svg>
